<?xml version="1.0" encoding="UTF-8"?>
<svg width="36px" height="35px" viewBox="0 0 36 35" version="1.1" xmlns="http://www.w3.org/2000/svg" xmlns:xlink="http://www.w3.org/1999/xlink">
    <title>noun-game-1698716</title>
    <g id="Page-1" stroke="none" stroke-width="1" fill="none" fill-rule="evenodd">
        <g id="FXbox.io" transform="translate(-702.000000, -2889.000000)" fill="#FFFFFF" fill-rule="nonzero">
            <g id="noun-game-1698716" transform="translate(702.000000, 2889.000000)">
                <path d="M33.4720484,22.4666767 L32.0980752,22.4666767 L32.0980752,18.25425 L24.2361826,18.25425 L24.2361826,22.4666767 L22.5513624,22.4666767 L22.5513624,18.25425 L14.6876645,18.25425 L14.6876645,22.4666767 L12.7230188,22.4666767 L12.7224312,12.8570784 C15.8870167,12.4427712 18.3381977,9.73476756 18.3381977,6.45915451 C18.3381977,2.89724688 15.4409508,0 11.879645,0 C8.31653377,0 5.41943734,2.89724688 5.41943734,6.45915451 C5.41943734,9.73476756 7.87302543,12.4423048 11.0370092,12.8570784 L11.0370092,22.4666767 L2.52760644,22.4666767 C1.13424101,22.4666767 0,23.6008876 0,24.9942831 L0,32.014593 C0,33.4079585 1.13421092,34.5421995 2.52760644,34.5421995 L33.4723936,34.5421995 C34.865759,34.5421995 36,33.4079886 36,32.014593 L36,24.9942831 C36,23.6009177 34.8669776,22.4666767 33.4723936,22.4666767 L33.4720484,22.4666767 Z M7.10526644,6.45945539 C7.10526644,3.82668873 9.24788717,1.68527155 11.8806538,1.68527155 C14.5134205,1.68527155 16.6542359,3.82668873 16.6542359,6.45945539 C16.6542359,9.09222206 14.5134205,11.2336392 11.8806538,11.2336392 C9.24728539,11.2336392 7.10526644,9.09222206 7.10526644,6.45945539 Z M25.9212737,19.9389198 L30.4133754,19.9389198 L30.4133754,22.4665263 L25.9212737,22.4665263 L25.9212737,19.9389198 Z M16.3721538,19.9389198 L20.8660608,19.9389198 L20.8660608,22.4665263 L16.3721538,22.4665263 L16.3721538,19.9389198 Z M34.3155869,32.0144426 C34.3155869,32.4792839 33.9388906,32.8571686 33.4728608,32.8571686 L2.52807372,32.8571686 C2.06204393,32.8571686 1.68534768,32.4798857 1.68534768,32.0144426 L1.68534768,24.9941327 C1.68534768,24.5292914 2.06204393,24.1514066 2.52807372,24.1514066 L33.4728608,24.1514066 C33.9388906,24.1514066 34.3155869,24.5286896 34.3155869,24.9941327 L34.3155869,32.0144426 Z" id="Shape"></path>
            </g>
        </g>
    </g>
</svg>