<?xml version="1.0" encoding="UTF-8"?>
<svg width="33px" height="36px" viewBox="0 0 33 36" version="1.1" xmlns="http://www.w3.org/2000/svg" xmlns:xlink="http://www.w3.org/1999/xlink">
    <title>noun-luck-4136098</title>
    <g id="Page-1" stroke="none" stroke-width="1" fill="none" fill-rule="evenodd">
        <g id="FXbox.io" transform="translate(-275.000000, -2587.000000)" fill="#FFFFFF" fill-rule="nonzero">
            <g id="noun-luck-4136098" transform="translate(275.000000, 2587.000000)">
                <path d="M8.04510507,5.73901735 C8.41414659,5.51759244 8.48795489,5.07474262 8.34033829,4.70570111 C8.11891338,4.33665959 7.67606356,4.26285129 7.30702204,4.41046789 L1.84520759,7.65803324 C0.738083034,8.32230797 0,9.50324083 0,10.8317903 L0,25.1506012 C0,26.4791506 0.738083034,27.6600835 1.84520759,28.3243582 L9.96412096,33.0480896 C10.1117376,33.1218979 10.1855459,33.1218979 10.3331625,33.1218979 C10.6283957,33.1218979 10.8498206,32.9742813 10.9974372,32.7528564 C11.2188621,32.3838149 11.0712455,31.9409651 10.702204,31.7195402 L2.58329062,26.9958087 C1.91901589,26.6267672 1.47616607,25.8886842 1.47616607,25.0767929 L1.47616607,10.8313685 C1.47616607,10.6837519 1.47616607,10.5361353 1.54997437,10.462327 L15.3517054,18.4336238 L15.3517054,35.261917 C15.3517054,35.7047668 15.6469386,36 16.0897884,36 L16.237405,36 L16.3112133,36 L16.3850216,36 C16.975488,36 17.4921462,35.7785751 18.0088043,35.4833419 L30.3343692,28.3239364 C31.4414937,27.6596617 32.1795768,26.4049206 32.1795768,25.1501794 L32.1795768,10.8313685 C32.1795768,9.50281907 31.4414937,8.32188621 30.3343692,7.65761148 L17.9345742,0.498206048 C16.8274497,-0.166068683 15.3512836,-0.166068683 14.244159,0.498206048 L13.0632262,1.16248078 C12.9156096,1.23628908 12.767993,1.45771399 12.6941847,1.6053306 C12.6203764,1.82675551 12.6941847,1.97437212 12.767993,2.19579703 C12.9894179,2.56483854 13.4322677,2.63864685 13.8013092,2.49103024 L14.9822421,1.82675551 C15.6465168,1.45771399 16.5322164,1.45771399 17.1964912,1.82675551 L29.5962862,8.98616094 C29.7439028,9.05996925 29.8177111,9.13377755 29.8915194,9.20758585 L26.5701457,11.1266017 C26.4225291,11.20041 26.2749125,11.3480267 26.2011042,11.5694516 C26.1272959,11.7908765 26.2011042,11.9384931 26.2749125,12.159918 C26.4225291,12.3813429 26.643954,12.5289595 26.9391872,12.5289595 C27.0868038,12.5289595 27.1606121,12.5289595 27.3082287,12.4551512 L30.6296024,10.5361353 C30.6296024,10.6837519 30.7034107,10.7575602 30.7034107,10.9051768 L30.7034107,25.2239877 C30.7034107,26.035879 30.2605609,26.7739621 29.5962862,27.1430036 L17.1964912,34.2286007 C17.0488746,34.302409 16.9750663,34.3762173 16.8274497,34.3762173 L16.8274497,18.4336238 L21.5511811,15.7027166 C21.6987977,15.6289083 21.8464143,15.4812916 21.9202226,15.2598667 C21.9940309,15.0384418 21.9202226,14.8908252 21.8464143,14.6694003 C21.6249894,14.3003588 21.1821396,14.2265505 20.813098,14.3741671 L16.0893666,17.1050743 L2.28763564,9.13377755 C2.36144395,9.05996925 2.50906056,8.98616094 2.58286886,8.91235264 L8.04510507,5.73901735 Z" id="Path"></path>
                <path d="M13.2125298,34.893719 C13.3601464,34.9675273 13.4339547,34.9675273 13.5815714,34.9675273 C13.8768046,34.9675273 14.0982295,34.8199107 14.2458461,34.5984858 C14.467271,34.2294442 14.3196544,33.7865944 13.9506129,33.5651695 C13.5815714,33.3437446 13.1387215,33.4913612 12.9172966,33.8604027 C12.8434883,34.0080193 12.76968,34.2294442 12.8434883,34.4508692 C12.9172966,34.5984858 12.9911049,34.8199107 13.2125298,34.893719 Z" id="Path"></path>
                <path d="M10.2601977,4.41046789 C10.4078143,4.41046789 10.5554309,4.41046789 10.6292392,4.33665959 C10.9982807,4.11523468 11.072089,3.67238486 10.9244724,3.30334334 C10.7030475,2.93430182 10.2601977,2.86049352 9.89115618,3.00811013 C9.74353958,3.08191843 9.59592297,3.30334334 9.52211467,3.45095995 C9.44830636,3.67238486 9.52211467,3.82000146 9.59592297,4.04142637 C9.74353958,4.26285129 9.96496449,4.41046789 10.2601977,4.41046789 Z" id="Path"></path>
                <path d="M24.431392,13.9321608 C24.5790086,13.9321608 24.6528169,13.9321608 24.8004335,13.8583525 C25.169475,13.6369276 25.2432833,13.1940778 25.0956667,12.8250362 C24.8742418,12.4559947 24.431392,12.3821864 24.0623504,12.529803 C23.6933089,12.7512279 23.6195006,13.1940778 23.7671172,13.5631193 C23.9147338,13.7845442 24.1361587,13.9321608 24.431392,13.9321608 Z" id="Path"></path>
                <path d="M20.5191301,9.13419931 C20.5191301,7.65803324 18.6001142,6.55090869 16.0906319,6.55090869 C13.5811496,6.55090869 11.6621337,7.65803324 11.6621337,9.13419931 C11.6621337,10.6103654 13.5811496,11.7174899 16.0906319,11.7174899 C18.6001142,11.7174899 20.5191301,10.6103654 20.5191301,9.13419931 Z M13.1382998,9.13419931 C13.1382998,8.76515779 14.2454243,8.02707476 16.0906319,8.02707476 C17.9358395,8.02707476 19.042964,8.76515779 19.042964,9.13419931 C19.042964,9.50324083 17.9358395,10.2413239 16.0906319,10.2413239 C14.2454243,10.2413239 13.1382998,9.50324083 13.1382998,9.13419931 Z" id="Shape"></path>
                <path d="M2.80513729,16.8844929 C2.80513729,18.2868507 3.76464524,19.4677836 5.0193864,19.4677836 C6.27412755,19.4677836 7.2336355,18.2868507 7.2336355,16.8844929 C7.2336355,15.4821352 6.27412755,14.3012023 5.0193864,14.3012023 C3.76464524,14.3012023 2.80513729,15.4821352 2.80513729,16.8844929 Z M5.75746943,16.8844929 C5.75746943,17.4749594 5.38842791,17.9916175 5.0193864,17.9916175 C4.65034488,17.9916175 4.28130336,17.4749594 4.28130336,16.8844929 C4.28130336,16.2940265 4.65034488,15.7773684 5.0193864,15.7773684 C5.38842791,15.7773684 5.75746943,16.2940265 5.75746943,16.8844929 Z" id="Shape"></path>
                <path d="M27.8999605,17.9911957 C29.1547016,17.9911957 30.1142096,16.8102629 30.1142096,15.4079051 C30.1142096,14.0055473 29.1547016,12.8246145 27.8999605,12.8246145 C26.6452193,12.8246145 25.6857114,14.0055473 25.6857114,15.4079051 C25.6857114,16.8102629 26.6452193,17.9911957 27.8999605,17.9911957 Z M27.8999605,14.3007806 C28.269002,14.3007806 28.6380435,14.8174387 28.6380435,15.4079051 C28.6380435,15.9983715 28.269002,16.5150297 27.8999605,16.5150297 C27.5309189,16.5150297 27.1618774,15.9983715 27.1618774,15.4079051 C27.1618774,14.8174387 27.5309189,14.3007806 27.8999605,14.3007806 Z" id="Shape"></path>
                <path d="M10.9240507,23.89586 C9.66930951,23.89586 8.70980157,25.0767929 8.70980157,26.4791506 C8.70980157,27.8815084 9.66930951,29.0624412 10.9240507,29.0624412 C12.1787918,29.0624412 13.1382998,27.8815084 13.1382998,26.4791506 C13.1382998,25.0767929 12.1787918,23.89586 10.9240507,23.89586 Z M10.9240507,27.5862752 C10.5550092,27.5862752 10.1859676,27.069617 10.1859676,26.4791506 C10.1859676,25.8886842 10.5550092,25.3720261 10.9240507,25.3720261 C11.2930922,25.3720261 11.6621337,25.8886842 11.6621337,26.4791506 C11.6621337,27.069617 11.2930922,27.5862752 10.9240507,27.5862752 Z" id="Shape"></path>
                <path d="M18.304881,27.9548949 C18.304881,29.3572527 19.264389,30.5381855 20.5191301,30.5381855 C21.7738713,30.5381855 22.7333792,29.3572527 22.7333792,27.9548949 C22.7333792,26.5525372 21.7738713,25.3716043 20.5191301,25.3716043 C19.264389,25.3716043 18.304881,26.5525372 18.304881,27.9548949 Z M21.2572132,27.9548949 C21.2572132,28.5453614 20.8881716,29.0620195 20.5191301,29.0620195 C20.1500886,29.0620195 19.7810471,28.5453614 19.7810471,27.9548949 C19.7810471,27.3644285 20.1500886,26.8477704 20.5191301,26.8477704 C20.8881716,26.8477704 21.2572132,27.3644285 21.2572132,27.9548949 Z" id="Shape"></path>
                <path d="M21.9952962,22.0502307 C21.9952962,23.4525884 22.9548041,24.6335213 24.2095453,24.6335213 C25.4642864,24.6335213 26.4237944,23.4525884 26.4237944,22.0502307 C26.4237944,20.6478729 25.4642864,19.46694 24.2095453,19.46694 C22.9548041,19.46694 21.9952962,20.6478729 21.9952962,22.0502307 Z M24.2095453,20.9431061 C24.5785868,20.9431061 24.9476283,21.4597642 24.9476283,22.0502307 C24.9476283,22.6406971 24.5785868,23.1573552 24.2095453,23.1573552 C23.8405038,23.1573552 23.4714623,22.6406971 23.4714623,22.0502307 C23.4714623,21.4597642 23.8405038,20.9431061 24.2095453,20.9431061 Z" id="Shape"></path>
            </g>
        </g>
    </g>
</svg>