<?xml version="1.0" encoding="UTF-8"?>
<svg width="36px" height="29px" viewBox="0 0 36 29" version="1.1" xmlns="http://www.w3.org/2000/svg" xmlns:xlink="http://www.w3.org/1999/xlink">
    <title>noun-forex-3702503</title>
    <g id="Page-1" stroke="none" stroke-width="1" fill="none" fill-rule="evenodd">
        <g id="FXbox.io" transform="translate(-273.000000, -2892.000000)" fill="#FFFFFF" fill-rule="nonzero">
            <g id="noun-forex-3702503" transform="translate(273.000000, 2892.000000)">
                <path d="M0.888931605,28.1776517 C-0.296310535,28.1776517 -0.296310535,26.3755353 0.888931605,26.3755353 L6.32177472,26.3755353 L6.32177472,20.4698211 C6.32177472,19.2850403 8.12389111,19.2850403 8.12389111,20.4698211 L8.12389111,26.3755353 L13.5065143,26.3755353 L13.5065143,15.0338805 C13.5065143,13.8490997 15.3086307,13.8490997 15.3086307,15.0338805 L15.3086307,26.3755353 L20.6912539,26.3755353 L20.6912539,16.3104674 C20.6912539,15.1256866 22.4933703,15.1256866 22.4933703,16.3104674 L22.4933703,26.3755353 L27.8759936,26.3755353 L27.8759936,3.07535142 C27.8759936,1.89010928 29.6781099,1.89010928 29.6781099,3.07535142 L29.6781099,26.3755353 L35.1114144,26.3755353 C36.2961952,26.3755353 36.2961952,28.1776517 35.1114144,28.1776517 L0.889392943,28.1776517 L0.888931605,28.1776517 Z M24.8560778,0.584392124 L25.7349918,2.73686145 C26.179596,3.83405402 24.5113927,4.50958404 24.0667951,3.41265509 L23.9403886,3.10218149 L19.6715002,11.837279 C19.413797,12.365293 18.7158723,12.5112932 18.269693,12.1163487 L13.4657848,7.87757902 L7.01299022,17.1076258 C6.33772382,18.0735349 4.86645238,17.0460972 5.54171878,16.0796339 L12.5711853,6.02642904 C12.8788316,5.58568689 13.5000556,5.51412025 13.9011557,5.86810457 L18.5727259,9.99002401 L22.283989,2.39113507 L21.9552332,2.4948833 C20.8252857,2.85092387 20.283939,1.13354201 21.4133132,0.77745531 L23.7429361,0.0416877799 C24.1993835,-0.10170912 24.6885463,0.135912685 24.8564073,0.584378943 L24.8560778,0.584392124 Z" id="Shape"></path>
            </g>
        </g>
    </g>
</svg>