<?xml version="1.0" encoding="UTF-8"?>
<svg width="58px" height="59px" viewBox="0 0 58 59" version="1.1" xmlns="http://www.w3.org/2000/svg" xmlns:xlink="http://www.w3.org/1999/xlink">
    <title>noun-trading-4386338</title>
    <g id="Page-1" stroke="none" stroke-width="1" fill="none" fill-rule="evenodd">
        <g id="FXbox.io" transform="translate(-691.000000, -2577.000000)" fill="#FFFFFF" fill-rule="nonzero">
            <g id="noun-trading-4386338" transform="translate(719.747125, 2606.501484) rotate(-46.000000) translate(-719.747125, -2606.501484) translate(698.273833, 2587.403301)">
                <path d="M5.71547759,23.4792575 C5.52713844,23.4801981 5.34607615,23.4064443 5.21218373,23.2734951 L0.199179464,18.260815 C-0.0663931545,17.9857452 -0.0663931545,17.5498716 0.199179464,17.2751178 L13.2310619,4.22135615 L11.2244989,2.21479308 L11.2244989,2.21447656 C11.0437526,2.02613741 10.9810809,1.75391191 11.0614828,1.50542935 C11.1564465,1.24839771 11.3909994,1.06892368 11.664173,1.04454867 L22.6969475,0.00253289354 C22.9061772,-0.0151932866 23.1125626,0.0607760569 23.2603848,0.2098664 C23.4082069,0.358952691 23.4822801,0.566286198 23.4626536,0.77520797 L22.4630186,11.8079825 C22.4376955,12.0827363 22.2550531,12.3179292 21.9951771,12.4106726 C21.7454304,12.4888574 21.4728889,12.423651 21.2861299,12.2403716 L19.2795668,10.2407775 L6.21121909,23.27266 C6.07922286,23.4037081 5.90101296,23.4777731 5.71488604,23.4784133 L5.71547759,23.4792575 Z M1.68817049,17.757197 L5.70121561,21.7702421 L18.7476842,8.7667215 C19.0243423,8.4916517 19.4709772,8.4916517 19.7476433,8.7667215 L21.1657378,10.1848159 L21.9526505,1.50607811 L13.3022746,2.28603004 L14.720369,3.70412445 C14.8558497,3.83675274 14.9324511,4.01813107 14.9330832,4.20773434 C14.93245,4.39702158 14.8558481,4.57839991 14.720369,4.7110282 L1.68817049,17.757197 Z" id="Shape"></path>
                <path d="M20.1779617,38.1958399 C19.9782292,38.1967894 19.7876697,38.1132258 19.6528211,37.9663517 C19.5176564,37.8191616 19.4508682,37.6219573 19.4689145,37.4231729 L20.4758425,26.3903984 C20.5011657,26.1156446 20.6838081,25.8804516 20.943684,25.7877083 C21.1934307,25.7095234 21.4659723,25.7747299 21.6527312,25.9580092 L23.6592943,27.9576034 L36.7276421,14.9257209 C37.0039841,14.6506511 37.4509351,14.6506511 37.7272771,14.9257209 L42.7402814,19.9387252 L42.7402814,19.9384087 C43.0153512,20.2150667 43.0153512,20.6617016 42.7402814,20.9383678 L29.7083989,33.9775433 L31.714962,35.9841064 L31.714962,35.9844229 C31.8957082,36.1727621 31.9583799,36.4449876 31.877978,36.6934701 C31.7830143,36.9505018 31.5484615,37.1299758 31.2752879,37.1543508 L20.2425133,38.1963666 L20.1779617,38.1958399 Z M21.7521275,28.013922 L20.9652148,36.6999529 L29.6366595,35.9130401 L28.2185651,34.4949457 C28.0843566,34.3616853 28.0087033,34.180307 28.0087033,33.9913358 C28.0087033,33.8023646 28.0843558,33.6209863 28.2185651,33.4880419 L41.2504476,20.4415734 L37.2374025,16.4285282 L24.1909339,29.4677038 C23.9142758,29.7427736 23.4676409,29.7427736 23.1909747,29.4677038 L21.7521275,28.013922 Z" id="Shape"></path>
            </g>
        </g>
    </g>
</svg>