<?xml version="1.0" encoding="UTF-8"?>
<svg width="36px" height="36px" viewBox="0 0 36 36" version="1.1" xmlns="http://www.w3.org/2000/svg" xmlns:xlink="http://www.w3.org/1999/xlink">
    <title>noun-candles-1218429</title>
    <g id="Page-1" stroke="none" stroke-width="1" fill="none" fill-rule="evenodd">
        <g id="FXbox.io" transform="translate(-1129.000000, -2587.000000)" fill="#FFFFFF" fill-rule="nonzero">
            <g id="noun-candles-1218429" transform="translate(1129.000000, 2587.000000)">
                <path d="M9.51387336,9.06695429 L6.10720829,9.06695429 L6.10720829,0.900009643 C6.10720829,0.402792887 5.7044154,0 5.20719865,0 C4.70998189,0 4.30718901,0.402792887 4.30718901,0.900009643 L4.30718901,9.06695429 L0.900009643,9.06695429 C0.402792887,9.06695429 -8.8817842e-16,9.46974718 -8.8817842e-16,9.96696393 L-8.8817842e-16,28.6170923 C-8.8817842e-16,29.1143091 0.402792887,29.517102 0.900009643,29.517102 L4.30667471,29.517102 L4.30667471,35.0999904 C4.30667471,35.5972071 4.7094676,36 5.20668436,36 C5.70390111,36 6.106694,35.5972071 6.106694,35.0999904 L6.106694,29.517102 L9.51335907,29.517102 C10.0105758,29.517102 10.4133692,29.1143091 10.4133692,28.6170923 L10.4133692,9.96696393 C10.413871,9.46974718 10.0110773,9.06695429 9.51387336,9.06695429 Z M8.61386372,27.7170827 L1.80014786,27.7170827 L1.80014786,10.8669736 L8.61386372,10.8669736 L8.61386372,27.7170827 Z" id="Shape"></path>
                <path d="M35.1005046,12.5782776 L31.6933253,12.5782776 L31.6933253,5.31134262 C31.6933253,4.81412587 31.2905324,4.41133298 30.7933156,4.41133298 C30.2960989,4.41133298 29.893306,4.81412587 29.893306,5.31134262 L29.893306,12.5782776 L26.4866409,12.5782776 C25.9894242,12.5782776 25.5866313,12.9810705 25.5866313,13.4782873 L25.5866313,24.9283385 C25.5866313,25.4255553 25.9894242,25.8283482 26.4866409,25.8283482 L29.893306,25.8283482 L29.893306,35.0997332 C29.893306,35.59695 30.2960989,35.9997429 30.7933156,35.9997429 C31.2905324,35.9997429 31.6933253,35.59695 31.6933253,35.0997332 L31.6933253,25.8283482 L35.1005046,25.8283482 C35.5977214,25.8283482 36.0005143,25.4255553 36.0005143,24.9283385 L36.0005143,13.4782873 C36.0005143,12.9810705 35.5977214,12.5782776 35.1005046,12.5782776 Z M34.200495,24.0283289 L27.3867791,24.0283289 L27.3867791,14.3782969 L34.200495,14.3782969 L34.200495,24.0283289 Z" id="Shape"></path>
                <path d="M22.3068676,5.95047804 L18.9002025,5.95047804 L18.9002025,0.900009643 C18.9002025,0.402792887 18.4969082,0 18.0001929,0 C17.5029761,0 17.1001832,0.402792887 17.1001832,0.900009643 L17.1001832,5.95047804 L13.6935181,5.95047804 C13.1963014,5.95047804 12.7935085,6.35327093 12.7935085,6.85048768 L12.7935085,16.1405158 C12.7935085,16.6377325 13.1963014,17.0405254 13.6935181,17.0405254 L17.1001832,17.0405254 L17.1001832,30.3632396 C17.1001832,30.8604564 17.5029761,31.2632492 18.0001929,31.2632492 C18.4969082,31.2632492 18.9002025,30.8604564 18.9002025,30.3632396 L18.9002025,17.0405254 L22.3068676,17.0405254 C22.8040843,17.0405254 23.2068772,16.6377325 23.2068772,16.1405158 L23.2068772,6.85048768 C23.2068772,6.35327093 22.8040843,5.95047804 22.3068676,5.95047804 Z M21.4068579,15.2405061 L14.5937849,15.2405061 L14.5937849,7.75049733 L21.4075008,7.75049733 L21.4075008,15.2405061 L21.4068579,15.2405061 Z" id="Shape"></path>
            </g>
        </g>
    </g>
</svg>