<?xml version="1.0" encoding="UTF-8"?>
<svg width="20px" height="20px" viewBox="0 0 20 20" version="1.1" xmlns="http://www.w3.org/2000/svg" xmlns:xlink="http://www.w3.org/1999/xlink">
    <title>noun-go-right-2278314 copy 6</title>
    <defs>
        <linearGradient x1="38.7763903%" y1="100%" x2="56.2163626%" y2="-49.8476997%" id="linearGradient-1">
            <stop stop-color="#D800FF" offset="0%"></stop>
            <stop stop-color="#D802FD" offset="28.2621173%"></stop>
            <stop stop-color="#EE9961" offset="100%"></stop>
        </linearGradient>
        <linearGradient x1="5.10556114%" y1="100%" x2="74.8654503%" y2="-49.8476997%" id="linearGradient-2">
            <stop stop-color="#D800FF" offset="0%"></stop>
            <stop stop-color="#D802FD" offset="28.2621173%"></stop>
            <stop stop-color="#EE9961" offset="100%"></stop>
        </linearGradient>
    </defs>
    <g id="Page-1" stroke="none" stroke-width="1" fill="none" fill-rule="evenodd">
        <g id="FXbox.io" transform="translate(-573.000000, -6894.000000)">
            <g id="noun-go-right-2278314-copy-6" transform="translate(573.000000, 6894.000000)">
                <path d="M8.61001542,4.90960345 C8.44972457,4.72150303 8.18096368,4.71178705 8.00967308,4.88780896 C7.83838247,5.06383017 7.82940856,5.35896624 7.98969974,5.54706667 L11.3650276,9.51270555 L7.74407426,13.4886503 C7.57847284,13.6696717 7.57721073,13.9638234 7.74129316,14.1466642 C7.90525059,14.3294873 8.17299856,14.332405 8.34037339,14.1531886 L8.34441861,14.1487464 L12.2566275,9.85367409 L12.2566275,9.85381293 C12.4184361,9.67570923 12.4228599,9.38905242 12.266614,9.20510989 L8.61001542,4.90960345 Z" id="Path" fill="url(#linearGradient-1)"></path>
                <path d="M10.0003571,0 C7.34828571,0 4.80464286,1.05328571 2.92928571,2.92857143 C1.05392857,4.80385714 0,7.3475 0,9.99964286 C0,12.6517143 1.05328571,15.1953571 2.92857143,17.0707143 C4.80385714,18.9460714 7.3475,20 9.99964286,20 C12.6517143,20 15.1953571,18.9467143 17.0707143,17.0714286 C18.9460714,15.1961429 20,12.6525 20,10.0003571 C20,8.24507143 19.5380714,6.52057143 18.6604286,5.00035714 C17.7829286,3.48014286 16.5205,2.21771429 15.0004286,1.34 C13.4802143,0.462214286 11.7558571,0 10.0004286,0 L10.0003571,0 Z M10.0003571,19.3310714 C7.52575,19.3310714 5.1525,18.3479643 3.40285714,16.5982143 C1.653,14.8483571 0.67,12.475 0.67,10.0003571 C0.67,7.52575 1.65296429,5.1525 3.40285714,3.40285714 C5.15275,1.65321429 7.52607143,0.67 10.0003571,0.67 C12.4749643,0.67 14.8482143,1.65296429 16.5982143,3.40285714 C18.3479286,5.15271429 19.3310714,7.52607143 19.3310714,10.0003571 C19.3310714,11.6381786 18.9,13.2472857 18.0810714,14.6657143 C17.262,16.0841071 16.0841429,17.2619643 14.66575,18.0810357 C13.2473571,18.8999643 11.63825,19.3310714 10.0003929,19.3310714 L10.0003571,19.3310714 Z" id="Shape" fill="url(#linearGradient-2)"></path>
            </g>
        </g>
    </g>
</svg>