<?xml version="1.0" encoding="UTF-8"?>
<svg width="542px" height="325px" viewBox="0 0 542 325" version="1.1" xmlns="http://www.w3.org/2000/svg" xmlns:xlink="http://www.w3.org/1999/xlink">
    <title>Group 16</title>
    <defs>
        <linearGradient x1="13.7254902%" y1="1.11896375%" x2="89.2156863%" y2="113.015339%" id="linearGradient-1">
            <stop stop-color="#E468F6" offset="0%"></stop>
            <stop stop-color="#A578FF" offset="49.3933%"></stop>
            <stop stop-color="#6681FF" offset="100%"></stop>
        </linearGradient>
        <linearGradient x1="-3.12649525%" y1="122.387596%" x2="75.1761606%" y2="-75.0984534%" id="linearGradient-2">
            <stop stop-color="#FF345F" offset="0%"></stop>
            <stop stop-color="#F59233" offset="11.900575%"></stop>
            <stop stop-color="#EAFF00" offset="100%"></stop>
        </linearGradient>
        <path d="M251.5,32.7045455 C241.273923,23.971326 230.642475,17.8046415 219.605657,14.2044919 L156,157.204492 L285.5,73.2045455 C273.059411,54.9377649 261.726077,41.4377649 251.5,32.7045455 Z" id="path-3"></path>
        <filter x="-41.0%" y="-31.2%" width="181.7%" height="174.1%" filterUnits="objectBoundingBox" id="filter-4">
            <feOffset dx="0" dy="8" in="SourceAlpha" result="shadowOffsetOuter1"></feOffset>
            <feGaussianBlur stdDeviation="16" in="shadowOffsetOuter1" result="shadowBlurOuter1"></feGaussianBlur>
            <feColorMatrix values="0 0 0 0 0   0 0 0 0 0   0 0 0 0 0  0 0 0 0.08 0" type="matrix" in="shadowBlurOuter1" result="shadowMatrixOuter1"></feColorMatrix>
            <feMorphology radius="0.25" operator="dilate" in="SourceAlpha" result="shadowSpreadOuter2"></feMorphology>
            <feOffset dx="0" dy="0" in="shadowSpreadOuter2" result="shadowOffsetOuter2"></feOffset>
            <feColorMatrix values="0 0 0 0 0   0 0 0 0 0   0 0 0 0 0  0 0 0 0.08 0" type="matrix" in="shadowOffsetOuter2" result="shadowMatrixOuter2"></feColorMatrix>
            <feMerge>
                <feMergeNode in="shadowMatrixOuter1"></feMergeNode>
                <feMergeNode in="shadowMatrixOuter2"></feMergeNode>
            </feMerge>
        </filter>
        <linearGradient x1="18.8045866%" y1="100%" x2="67.278042%" y2="-49.8476997%" id="linearGradient-5">
            <stop stop-color="#D800FF" offset="0%"></stop>
            <stop stop-color="#D802FD" offset="28.2621173%"></stop>
            <stop stop-color="#EE9961" offset="100%"></stop>
        </linearGradient>
    </defs>
    <g id="Page-1" stroke="none" stroke-width="1" fill="none" fill-rule="evenodd">
        <g id="FXbox.io" transform="translate(-110.000000, -6091.000000)">
            <g id="Group-16" transform="translate(110.000000, 6102.295455)">
                <path d="M237.357664,45.3906768 C230.119221,36.9332559 219.833333,30.0378788 206.5,24.7045455 L150,163.704545 L299,147.204545 C298.310343,140.72425 297.477009,136.057583 296.5,133.204545 C285.274218,100.423304 276.358736,82.5374917 274,78.7045455 C270,72.2045455 241.890996,50.6874373 237.357664,45.3906768 Z M150,13.7045455 C232.842712,13.7045455 300,80.861833 300,163.704545 C300,246.547258 232.842712,313.704545 150,313.704545 C67.1572875,313.704545 1.01453063e-14,246.547258 0,163.704545 C-1.01453063e-14,80.861833 67.1572875,13.7045455 150,13.7045455 Z" id="Rectangle-Copy-19" fill="url(#linearGradient-1)"></path>
                <g id="100%-Daly-Rewards" transform="translate(87.999000, 173.144545)" fill="#FFFFFF" fill-rule="nonzero">
                    <polygon id="Path" points="25.731 0.36 25.731 25.56 21.051 25.56 21.051 4.284 15.723 4.284 15.723 0.36"></polygon>
                    <path d="M41.247,25.92 C39.231,25.92 37.431,25.41 35.847,24.39 C34.263,23.37 33.015,21.882 32.103,19.926 C31.191,17.97 30.735,15.648 30.735,12.96 C30.735,10.272 31.191,7.95 32.103,5.994 C33.015,4.038 34.263,2.55 35.847,1.53 C37.431,0.51 39.231,-9.09494702e-13 41.247,-9.09494702e-13 C43.263,-9.09494702e-13 45.069,0.51 46.665,1.53 C48.261,2.55 49.515,4.038 50.427,5.994 C51.339,7.95 51.795,10.272 51.795,12.96 C51.795,15.648 51.339,17.97 50.427,19.926 C49.515,21.882 48.261,23.37 46.665,24.39 C45.069,25.41 43.263,25.92 41.247,25.92 Z M41.247,21.852 C43.047,21.852 44.469,21.108 45.513,19.62 C46.557,18.132 47.079,15.912 47.079,12.96 C47.079,10.008 46.557,7.788 45.513,6.3 C44.469,4.812 43.047,4.068 41.247,4.068 C39.471,4.068 38.061,4.812 37.017,6.3 C35.973,7.788 35.451,10.008 35.451,12.96 C35.451,15.912 35.973,18.132 37.017,19.62 C38.061,21.108 39.471,21.852 41.247,21.852 Z" id="Shape"></path>
                    <path d="M65.475,25.92 C63.459,25.92 61.659,25.41 60.075,24.39 C58.491,23.37 57.243,21.882 56.331,19.926 C55.419,17.97 54.963,15.648 54.963,12.96 C54.963,10.272 55.419,7.95 56.331,5.994 C57.243,4.038 58.491,2.55 60.075,1.53 C61.659,0.51 63.459,-9.09494702e-13 65.475,-9.09494702e-13 C67.491,-9.09494702e-13 69.297,0.51 70.893,1.53 C72.489,2.55 73.743,4.038 74.655,5.994 C75.567,7.95 76.023,10.272 76.023,12.96 C76.023,15.648 75.567,17.97 74.655,19.926 C73.743,21.882 72.489,23.37 70.893,24.39 C69.297,25.41 67.491,25.92 65.475,25.92 Z M65.475,21.852 C67.275,21.852 68.697,21.108 69.741,19.62 C70.785,18.132 71.307,15.912 71.307,12.96 C71.307,10.008 70.785,7.788 69.741,6.3 C68.697,4.812 67.275,4.068 65.475,4.068 C63.699,4.068 62.289,4.812 61.245,6.3 C60.201,7.788 59.679,10.008 59.679,12.96 C59.679,15.912 60.201,18.132 61.245,19.62 C62.289,21.108 63.699,21.852 65.475,21.852 Z" id="Shape"></path>
                    <path d="M84.807,13.932 C83.007,13.932 81.555,13.296 80.451,12.024 C79.347,10.752 78.795,9.084 78.795,7.02 C78.795,4.956 79.347,3.288 80.451,2.016 C81.555,0.744 83.007,0.108 84.807,0.108 C86.607,0.108 88.065,0.738 89.181,1.998 C90.297,3.258 90.855,4.932 90.855,7.02 C90.855,9.108 90.297,10.782 89.181,12.042 C88.065,13.302 86.607,13.932 84.807,13.932 Z M99.927,0.36 L103.455,0.36 L86.247,25.56 L82.719,25.56 L99.927,0.36 Z M84.807,11.412 C85.791,11.412 86.553,11.028 87.093,10.26 C87.633,9.492 87.903,8.412 87.903,7.02 C87.903,5.628 87.633,4.548 87.093,3.78 C86.553,3.012 85.791,2.628 84.807,2.628 C83.871,2.628 83.121,3.018 82.557,3.798 C81.993,4.578 81.711,5.652 81.711,7.02 C81.711,8.388 81.993,9.462 82.557,10.242 C83.121,11.022 83.871,11.412 84.807,11.412 Z M101.331,25.812 C99.531,25.812 98.079,25.176 96.975,23.904 C95.871,22.632 95.319,20.964 95.319,18.9 C95.319,16.836 95.871,15.168 96.975,13.896 C98.079,12.624 99.531,11.988 101.331,11.988 C103.131,11.988 104.589,12.624 105.705,13.896 C106.821,15.168 107.379,16.836 107.379,18.9 C107.379,20.964 106.821,22.632 105.705,23.904 C104.589,25.176 103.131,25.812 101.331,25.812 Z M101.331,23.292 C102.291,23.292 103.047,22.902 103.599,22.122 C104.151,21.342 104.427,20.268 104.427,18.9 C104.427,17.532 104.151,16.458 103.599,15.678 C103.047,14.898 102.291,14.508 101.331,14.508 C100.371,14.508 99.615,14.892 99.063,15.66 C98.511,16.428 98.235,17.508 98.235,18.9 C98.235,20.292 98.511,21.372 99.063,22.14 C99.615,22.908 100.371,23.292 101.331,23.292 Z" id="Shape"></path>
                    <path d="M0,38.96 L5.508,38.96 C6.852,38.96 8.046,39.221 9.09,39.743 C10.134,40.265 10.944,41.003 11.52,41.957 C12.096,42.911 12.384,44.012 12.384,45.26 C12.384,46.508 12.096,47.609 11.52,48.563 C10.944,49.517 10.134,50.255 9.09,50.777 C8.046,51.299 6.852,51.56 5.508,51.56 L0,51.56 L0,38.96 Z M5.4,49.58 C6.324,49.58 7.137,49.403 7.839,49.049 C8.541,48.695 9.081,48.191 9.459,47.537 C9.837,46.883 10.026,46.124 10.026,45.26 C10.026,44.396 9.837,43.637 9.459,42.983 C9.081,42.329 8.541,41.825 7.839,41.471 C7.137,41.117 6.324,40.94 5.4,40.94 L2.34,40.94 L2.34,49.58 L5.4,49.58 Z" id="Shape"></path>
                    <path d="M18.324,41.84 C19.74,41.84 20.823,42.179 21.573,42.857 C22.323,43.535 22.698,44.558 22.698,45.926 L22.698,51.56 L20.574,51.56 L20.574,50.39 C20.298,50.81 19.905,51.131 19.395,51.353 C18.885,51.575 18.27,51.686 17.55,51.686 C16.83,51.686 16.2,51.563 15.66,51.317 C15.12,51.071 14.703,50.729 14.409,50.291 C14.115,49.853 13.968,49.358 13.968,48.806 C13.968,47.942 14.289,47.249 14.931,46.727 C15.573,46.205 16.584,45.944 17.964,45.944 L20.448,45.944 L20.448,45.8 C20.448,45.128 20.247,44.612 19.845,44.252 C19.443,43.892 18.846,43.712 18.054,43.712 C17.514,43.712 16.983,43.796 16.461,43.964 C15.939,44.132 15.498,44.366 15.138,44.666 L14.256,43.028 C14.76,42.644 15.366,42.35 16.074,42.146 C16.782,41.942 17.532,41.84 18.324,41.84 Z M18.018,50.048 C18.582,50.048 19.083,49.919 19.521,49.661 C19.959,49.403 20.268,49.034 20.448,48.554 L20.448,47.438 L18.126,47.438 C16.83,47.438 16.182,47.864 16.182,48.716 C16.182,49.124 16.344,49.448 16.668,49.688 C16.992,49.928 17.442,50.048 18.018,50.048 Z" id="Shape"></path>
                    <polygon id="Path" points="25.578 38.204 27.828 38.204 27.828 51.56 25.578 51.56"></polygon>
                    <path d="M39.78,41.948 L35.28,52.334 C34.86,53.378 34.35,54.113 33.75,54.539 C33.15,54.965 32.424,55.178 31.572,55.178 C31.092,55.178 30.618,55.1 30.15,54.944 C29.682,54.788 29.298,54.572 28.998,54.296 L29.898,52.64 C30.114,52.844 30.369,53.006 30.663,53.126 C30.957,53.246 31.254,53.306 31.554,53.306 C31.95,53.306 32.277,53.204 32.535,53 C32.793,52.796 33.03,52.454 33.246,51.974 L33.408,51.596 L29.214,41.948 L31.554,41.948 L34.578,49.058 L37.62,41.948 L39.78,41.948 Z" id="Path"></path>
                    <path d="M54.612,51.56 L52.038,47.87 C51.93,47.882 51.768,47.888 51.552,47.888 L48.708,47.888 L48.708,51.56 L46.368,51.56 L46.368,38.96 L51.552,38.96 C52.644,38.96 53.595,39.14 54.405,39.5 C55.215,39.86 55.836,40.376 56.268,41.048 C56.7,41.72 56.916,42.518 56.916,43.442 C56.916,44.39 56.685,45.206 56.223,45.89 C55.761,46.574 55.098,47.084 54.234,47.42 L57.132,51.56 L54.612,51.56 Z M54.558,43.442 C54.558,42.638 54.294,42.02 53.766,41.588 C53.238,41.156 52.464,40.94 51.444,40.94 L48.708,40.94 L48.708,45.962 L51.444,45.962 C52.464,45.962 53.238,45.743 53.766,45.305 C54.294,44.867 54.558,44.246 54.558,43.442 Z" id="Shape"></path>
                    <path d="M68.346,46.808 C68.346,46.964 68.334,47.186 68.31,47.474 L60.768,47.474 C60.9,48.182 61.245,48.743 61.803,49.157 C62.361,49.571 63.054,49.778 63.882,49.778 C64.938,49.778 65.808,49.43 66.492,48.734 L67.698,50.12 C67.266,50.636 66.72,51.026 66.06,51.29 C65.4,51.554 64.656,51.686 63.828,51.686 C62.772,51.686 61.842,51.476 61.038,51.056 C60.234,50.636 59.613,50.051 59.175,49.301 C58.737,48.551 58.518,47.702 58.518,46.754 C58.518,45.818 58.731,44.975 59.157,44.225 C59.583,43.475 60.174,42.89 60.93,42.47 C61.686,42.05 62.538,41.84 63.486,41.84 C64.422,41.84 65.259,42.047 65.997,42.461 C66.735,42.875 67.311,43.457 67.725,44.207 C68.139,44.957 68.346,45.824 68.346,46.808 Z M63.486,43.64 C62.766,43.64 62.157,43.853 61.659,44.279 C61.161,44.705 60.858,45.272 60.75,45.98 L66.204,45.98 C66.108,45.284 65.814,44.72 65.322,44.288 C64.83,43.856 64.218,43.64 63.486,43.64 Z" id="Shape"></path>
                    <polygon id="Path" points="85.5 41.948 81.954 51.56 79.794 51.56 77.31 44.936 74.79 51.56 72.63 51.56 69.102 41.948 71.226 41.948 73.764 49.04 76.41 41.948 78.3 41.948 80.892 49.076 83.502 41.948"></polygon>
                    <path d="M90.72,41.84 C92.136,41.84 93.219,42.179 93.969,42.857 C94.719,43.535 95.094,44.558 95.094,45.926 L95.094,51.56 L92.97,51.56 L92.97,50.39 C92.694,50.81 92.301,51.131 91.791,51.353 C91.281,51.575 90.666,51.686 89.946,51.686 C89.226,51.686 88.596,51.563 88.056,51.317 C87.516,51.071 87.099,50.729 86.805,50.291 C86.511,49.853 86.364,49.358 86.364,48.806 C86.364,47.942 86.685,47.249 87.327,46.727 C87.969,46.205 88.98,45.944 90.36,45.944 L92.844,45.944 L92.844,45.8 C92.844,45.128 92.643,44.612 92.241,44.252 C91.839,43.892 91.242,43.712 90.45,43.712 C89.91,43.712 89.379,43.796 88.857,43.964 C88.335,44.132 87.894,44.366 87.534,44.666 L86.652,43.028 C87.156,42.644 87.762,42.35 88.47,42.146 C89.178,41.942 89.928,41.84 90.72,41.84 Z M90.414,50.048 C90.978,50.048 91.479,49.919 91.917,49.661 C92.355,49.403 92.664,49.034 92.844,48.554 L92.844,47.438 L90.522,47.438 C89.226,47.438 88.578,47.864 88.578,48.716 C88.578,49.124 88.74,49.448 89.064,49.688 C89.388,49.928 89.838,50.048 90.414,50.048 Z" id="Shape"></path>
                    <path d="M100.116,43.352 C100.764,42.344 101.904,41.84 103.536,41.84 L103.536,43.982 C103.344,43.946 103.17,43.928 103.014,43.928 C102.138,43.928 101.454,44.183 100.962,44.693 C100.47,45.203 100.224,45.938 100.224,46.898 L100.224,51.56 L97.974,51.56 L97.974,41.948 L100.116,41.948 L100.116,43.352 Z" id="Path"></path>
                    <path d="M114.948,38.204 L114.948,51.56 L112.788,51.56 L112.788,50.318 C112.416,50.774 111.957,51.116 111.411,51.344 C110.865,51.572 110.262,51.686 109.602,51.686 C108.678,51.686 107.847,51.482 107.109,51.074 C106.371,50.666 105.792,50.087 105.372,49.337 C104.952,48.587 104.742,47.726 104.742,46.754 C104.742,45.782 104.952,44.924 105.372,44.18 C105.792,43.436 106.371,42.86 107.109,42.452 C107.847,42.044 108.678,41.84 109.602,41.84 C110.238,41.84 110.82,41.948 111.348,42.164 C111.876,42.38 112.326,42.704 112.698,43.136 L112.698,38.204 L114.948,38.204 Z M109.872,49.76 C110.412,49.76 110.898,49.637 111.33,49.391 C111.762,49.145 112.104,48.794 112.356,48.338 C112.608,47.882 112.734,47.354 112.734,46.754 C112.734,46.154 112.608,45.626 112.356,45.17 C112.104,44.714 111.762,44.363 111.33,44.117 C110.898,43.871 110.412,43.748 109.872,43.748 C109.332,43.748 108.846,43.871 108.414,44.117 C107.982,44.363 107.64,44.714 107.388,45.17 C107.136,45.626 107.01,46.154 107.01,46.754 C107.01,47.354 107.136,47.882 107.388,48.338 C107.64,48.794 107.982,49.145 108.414,49.391 C108.846,49.637 109.332,49.76 109.872,49.76 Z" id="Shape"></path>
                    <path d="M120.87,51.686 C120.09,51.686 119.328,51.584 118.584,51.38 C117.84,51.176 117.246,50.918 116.802,50.606 L117.666,48.896 C118.098,49.184 118.617,49.415 119.223,49.589 C119.829,49.763 120.426,49.85 121.014,49.85 C122.358,49.85 123.03,49.496 123.03,48.788 C123.03,48.452 122.859,48.218 122.517,48.086 C122.175,47.954 121.626,47.828 120.87,47.708 C120.078,47.588 119.433,47.45 118.935,47.294 C118.437,47.138 118.005,46.865 117.639,46.475 C117.273,46.085 117.09,45.542 117.09,44.846 C117.09,43.934 117.471,43.205 118.233,42.659 C118.995,42.113 120.024,41.84 121.32,41.84 C121.98,41.84 122.64,41.915 123.3,42.065 C123.96,42.215 124.5,42.416 124.92,42.668 L124.056,44.378 C123.24,43.898 122.322,43.658 121.302,43.658 C120.642,43.658 120.141,43.757 119.799,43.955 C119.457,44.153 119.286,44.414 119.286,44.738 C119.286,45.098 119.469,45.353 119.835,45.503 C120.201,45.653 120.768,45.794 121.536,45.926 C122.304,46.046 122.934,46.184 123.426,46.34 C123.918,46.496 124.341,46.76 124.695,47.132 C125.049,47.504 125.226,48.032 125.226,48.716 C125.226,49.616 124.836,50.336 124.056,50.876 C123.276,51.416 122.214,51.686 120.87,51.686 Z" id="Path"></path>
                </g>
                <g id="9%-from-rewards-Team" transform="translate(280.292614, 0.000000)" fill="#000000" fill-rule="nonzero">
                    <g id="10" transform="translate(1.153453, 0.255682)">
                        <polygon id="Path" points="5.76138583 0.198863636 5.76138583 14.7443182 3.56245561 14.7443182 3.56245561 2.40345348 3.47722834 2.40345348 0 4.67052113 0 2.56813743 3.62493342 0.198863636"></polygon>
                        <path d="M14.7613959,14.9829102 C13.6410863,14.9820224 12.6836852,14.6870561 11.8891924,14.0980114 C11.0946996,13.5089666 10.4862716,12.6543265 10.0639083,11.5340909 C9.64154504,10.4138554 9.43084428,9.06157522 9.43180277,7.47725053 C9.43276781,5.89958422 9.64513316,4.55300071 10.0689021,3.4375 C10.492671,2.32199929 11.1025047,1.47020745 11.8984032,0.882124467 C12.6943016,0.294041489 13.6486325,0 14.7613959,0 C15.8740853,0 16.8286196,0.294263435 17.624999,0.882790305 C18.4213783,1.47131718 19.0316929,2.32334946 19.4559427,3.43888716 C19.8801925,4.55442486 20.0918365,5.90054599 20.090878,7.47725053 C20.090878,9.06342478 19.8797116,10.4166482 19.4573853,11.5369207 C19.035059,12.6571933 18.4268714,13.511593 17.6328226,14.1001199 C16.8387737,14.6886467 15.8816314,14.9829102 14.7613959,14.9829102 Z M14.7613959,13.0909313 C15.7461704,13.0909313 16.5172109,12.6105846 17.0745173,11.6498912 C17.6318238,10.6891979 17.9099961,9.29831765 17.9090369,7.47725053 C17.9090369,6.26986417 17.7821367,5.24856105 17.5283415,4.41334118 C17.2745462,3.5781213 16.9128112,2.94437293 16.4431364,2.51209606 C15.9734616,2.07981919 15.4128814,1.86368075 14.7613959,1.86368075 C13.7840936,1.86368075 13.0156055,2.3466353 12.4559316,3.31254439 C11.8962577,4.27845348 11.615496,5.66668886 11.6136409,7.47725053 C11.6126847,8.68840998 11.7381581,9.71184008 11.9900669,10.5475408 C12.2419756,11.3832416 12.6030078,12.0160652 13.0731635,12.4460116 C13.5433191,12.8759581 14.1060633,13.0909313 14.7613959,13.0909313 Z" id="Shape"></path>
                    </g>
                    <path d="M29.7466443,11.25 L29.7466443,10.5596591 C29.7474433,10.0670721 29.8511809,9.6145186 30.057857,9.20199862 C30.2645331,8.78947865 30.566241,8.45835738 30.9629806,8.20863481 C31.3597202,7.95891224 31.8423363,7.83405096 32.4108289,7.83405096 C32.9895087,7.83405096 33.4753042,7.95849609 33.8682152,8.20738636 C34.2611263,8.45627663 34.55814,8.78696511 34.7592564,9.19945179 C34.9603728,9.61193848 35.0605314,10.0653409 35.0597372,10.5596591 L35.0597372,11.25 C35.0605314,11.742587 34.9593074,12.1951405 34.7560603,12.6076605 C34.5528133,13.0201804 34.2536689,13.3513017 33.8586271,13.6010243 C33.4635854,13.8507468 32.980986,13.9756081 32.4108289,13.9756081 C31.8338136,13.9756081 31.3478017,13.8507468 30.9527933,13.6010243 C30.5577849,13.3513017 30.2582077,13.0201804 30.0540617,12.6076605 C29.8499158,12.1951405 29.7474433,11.742587 29.7466443,11.25 Z M31.2346925,10.5596591 L31.2346925,11.25 C31.2364237,11.6156117 31.323998,11.9473489 31.4974155,12.2452115 C31.6708331,12.5430742 31.9753042,12.6920055 32.4108289,12.6920055 C32.8394954,12.6920055 33.1397051,12.5437234 33.3114581,12.2471591 C33.483211,11.9505948 33.5682219,11.6182085 33.5664907,11.25 L33.5664907,10.5596591 C33.5682219,10.1914506 33.486407,9.85819869 33.3210461,9.55990323 C33.1556853,9.26160778 32.8522795,9.11246005 32.4108289,9.11246005 C31.9855581,9.11246005 31.6836505,9.26160778 31.505106,9.55990323 C31.3265615,9.85819869 31.2364237,10.1914506 31.2346925,10.5596591 Z M23.1602407,3.75852273 L23.1602407,3.06818182 C23.1611063,2.57386364 23.2650935,2.1204612 23.4722025,1.70797452 C23.6793114,1.29548784 23.9814354,0.964799361 24.3785745,0.715909091 C24.7757137,0.467018821 25.2576639,0.342573686 25.8244253,0.342573686 C26.4031051,0.342573686 26.8889006,0.467018821 27.2818116,0.715909091 C27.6747227,0.964799361 27.971753,1.29548784 28.1729027,1.70797452 C28.3740524,2.1204612 28.4741944,2.57386364 28.4733344,3.06818182 L28.4733344,3.75852273 C28.4741944,4.25284091 28.3729871,4.70582719 28.1697067,5.11748158 C27.9664263,5.52913596 27.6672653,5.85895885 27.2722236,6.10695024 C26.8771818,6.35494163 26.3945824,6.47893732 25.8244253,6.47893732 C25.2474766,6.47893732 24.7614814,6.35450883 24.3664396,6.10565186 C23.9713979,5.85679488 23.6718207,5.5265392 23.4677081,5.11488481 C23.2635954,4.70323042 23.1611063,4.25110973 23.1602407,3.75852273 Z M24.6534824,3.06818182 L24.6534824,3.75852273 C24.655147,4.12673118 24.7424883,4.45911754 24.9155064,4.75568182 C25.0885244,5.05224609 25.3914974,5.20052823 25.8244253,5.20052823 C26.2531584,5.20052823 26.5533848,5.05224609 26.7251044,4.75568182 C26.8968241,4.45911754 26.9818183,4.12673118 26.9800871,3.75852273 L26.9800871,3.06818182 C26.9818183,2.69997337 26.9000201,2.36672141 26.7346925,2.06842596 C26.5693649,1.7701305 26.2659425,1.62098278 25.8244253,1.62098278 C25.3991545,1.62098278 25.0980958,1.7707797 24.9212492,2.07037354 C24.7444026,2.36996737 24.655147,2.70257013 24.6534824,3.06818182 Z M23.6920789,13.7045455 L32.6920789,0.613636364 L34.2210761,0.613636364 L25.2210761,13.7045455 L23.6920789,13.7045455 Z" id="Shape"></path>
                    <path d="M47.2812625,3.88636364 L47.2812625,5.42045455 L41.732967,5.42045455 L41.732967,3.88636364 L47.2812625,3.88636364 Z M43.2516771,13.7045455 L43.2516771,2.74608265 C43.2516771,2.13411088 43.3863428,1.62486128 43.6556743,1.21833385 C43.9250058,0.811806419 44.2812625,0.507118919 44.7244443,0.304271351 C45.1676261,0.101423784 45.6482946,0 46.1664498,0 C46.5525693,0 46.8817763,0.030678489 47.1540708,0.092035467 C47.4263652,0.153392445 47.6289964,0.209639116 47.7619643,0.260775479 L47.3119243,1.81024725 C47.2250325,1.78214888 47.1108412,1.75040505 46.9693506,1.71501576 C46.8278601,1.67962646 46.6574055,1.66193182 46.457987,1.66193182 C45.9926328,1.66193182 45.6606626,1.77657249 45.4620764,2.00585383 C45.2634902,2.23513517 45.1641971,2.56707209 45.1641971,3.0016646 L45.1641971,13.7045455 L43.2516771,13.7045455 Z" id="Shape"></path>
                    <path d="M49.2500016,13.7045455 L49.2500016,3.88636364 L51.1011978,3.88636364 L51.1011978,5.44602273 L51.2034706,5.44602273 C51.3824478,4.91934482 51.6984213,4.50301292 52.1513909,4.19702703 C52.6043606,3.89104115 53.1184874,3.73804821 53.6937715,3.73804821 C53.8130897,3.73804821 53.9543639,3.74209317 54.1175941,3.75018311 C54.2808243,3.75827304 54.4105795,3.77000843 54.5068597,3.78538929 L54.5068597,5.61481268 C54.4310207,5.59264027 54.2950899,5.56748824 54.0990672,5.53935658 C53.9030444,5.51122492 53.7065889,5.49715909 53.5097006,5.49715909 C53.0588616,5.49715909 52.656812,5.59197443 52.3035516,5.78160511 C51.9502912,5.9712358 51.6718044,6.23289351 51.4680913,6.56657826 C51.2643781,6.90026301 51.1625215,7.28187145 51.1625215,7.71140359 L51.1625215,13.7045455 L49.2500016,13.7045455 Z" id="Path"></path>
                    <path d="M60.3057168,13.9039972 C59.3835311,13.9039972 58.5798312,13.6928434 57.8946173,13.2705356 C57.2094033,12.8482278 56.6771656,12.2575961 56.2979043,11.4986406 C55.9186429,10.7396851 55.7290122,9.85397061 55.7290122,8.84149725 C55.7290122,7.82216575 55.9186429,6.93132435 56.2979043,6.16897306 C56.6771656,5.40662176 57.2094033,4.81429221 57.8946173,4.39198442 C58.5798312,3.96967662 59.3835311,3.75852273 60.3057168,3.75852273 C61.2279025,3.75852273 62.0316023,3.96967662 62.7168163,4.39198442 C63.4020303,4.81429221 63.9342679,5.40662176 64.3135293,6.16897306 C64.6927906,6.93132435 64.8824213,7.82216575 64.8824213,8.84149725 C64.8824213,9.85397061 64.6927906,10.7396851 64.3135293,11.4986406 C63.9342679,12.2575961 63.4020303,12.8482278 62.7168163,13.2705356 C62.0316023,13.6928434 61.2279025,13.9039972 60.3057168,13.9039972 Z M60.3108104,12.2982955 C60.9091325,12.2982955 61.4038835,12.1401922 61.7950634,11.8239857 C62.1862432,11.5077792 62.4772811,11.0876021 62.6681768,10.5634544 C62.8590726,10.0393066 62.9545205,9.46362305 62.9545205,8.83640359 C62.9545205,8.20825195 62.8590726,7.63060414 62.6681768,7.10346014 C62.4772811,6.57631614 62.1862432,6.15295965 61.7950634,5.83339067 C61.4038835,5.51382169 60.9091325,5.3540372 60.3108104,5.3540372 C59.7091592,5.3540372 59.211878,5.51382169 58.818967,5.83339067 C58.4260559,6.15295965 58.1341525,6.57631614 57.9432567,7.10346014 C57.752361,7.63060414 57.6569131,8.20825195 57.6569131,8.83640359 C57.6569131,9.46362305 57.752361,10.0393066 57.9432567,10.5634544 C58.1341525,11.0876021 58.4260559,11.5077792 58.818967,11.8239857 C59.211878,12.1401922 59.7091592,12.2982955 60.3108104,12.2982955 Z" id="Shape"></path>
                    <path d="M67.0096803,13.7045455 L67.0096803,3.88636364 L68.8454957,3.88636364 L68.8454957,5.48697177 L68.968243,5.48697177 C69.1727884,4.944913 69.5068727,4.52132346 69.9704957,4.21620317 C70.4341188,3.91108287 70.989794,3.75852273 71.6375212,3.75852273 C72.2937712,3.75852273 72.8447689,3.91171542 73.2905142,4.21810081 C73.7362595,4.52448619 74.0665318,4.94744318 74.2813311,5.48697177 L74.3836039,5.48697177 C74.6179789,4.96109286 74.9904154,4.5415483 75.5009134,4.22833807 C76.0114115,3.91512784 76.6207865,3.75852273 77.3290384,3.75852273 C78.2196634,3.75852273 78.9468585,4.03807484 79.5106236,4.59717907 C80.0743887,5.15628329 80.3562712,5.9983354 80.3562712,7.1233354 L80.3562712,13.7045455 L78.4437512,13.7045455 L78.4437512,7.30231268 C78.4437512,6.63667436 78.2635089,6.15492387 77.9030242,5.85706121 C77.5425394,5.55919855 77.1108766,5.41026722 76.6080357,5.41026722 C75.9832798,5.41026722 75.4981169,5.60096325 75.152547,5.98235529 C74.806977,6.36374734 74.634192,6.85144043 74.634192,7.44543457 L74.634192,13.7045455 L72.7318594,13.7045455 L72.7318594,7.17956543 C72.7318594,6.64689498 72.5652334,6.21884433 72.2319815,5.89541349 C71.8987295,5.57198264 71.4670667,5.41026722 70.936993,5.41026722 C70.5747771,5.41026722 70.2406928,5.50486617 69.9347402,5.69406405 C69.6287876,5.88326194 69.3835428,6.14596835 69.1990058,6.48218328 C69.0144688,6.81839822 68.9222003,7.2076638 68.9222003,7.64998002 L68.9222003,13.7045455 L67.0096803,13.7045455 Z" id="Path"></path>
                    <path d="M87.678996,13.7045455 L87.678996,3.88636364 L89.5301923,3.88636364 L89.5301923,5.44602273 L89.632465,5.44602273 C89.8114423,4.91934482 90.1274157,4.50301292 90.5803854,4.19702703 C91.033355,3.89104115 91.5474819,3.73804821 92.122766,3.73804821 C92.2420842,3.73804821 92.3833583,3.74209317 92.5465886,3.75018311 C92.7098188,3.75827304 92.8395739,3.77000843 92.9358541,3.78538929 L92.9358541,5.61481268 C92.8600152,5.59264027 92.7240843,5.56748824 92.5280616,5.53935658 C92.3320389,5.51122492 92.1355834,5.49715909 91.938695,5.49715909 C91.4878561,5.49715909 91.0858064,5.59197443 90.732546,5.78160511 C90.3792856,5.9712358 90.1007989,6.23289351 89.8970857,6.56657826 C89.6933726,6.90026301 89.591516,7.28187145 89.591516,7.71140359 L89.591516,13.7045455 L87.678996,13.7045455 Z" id="Path"></path>
                    <path d="M98.8318903,13.9039972 C97.8654263,13.9039972 97.0329623,13.695823 96.3344981,13.2794744 C95.636034,12.8631259 95.0986694,12.2767556 94.7224043,11.5203635 C94.3461392,10.7639715 94.1580067,9.87784091 94.1580067,8.86197177 C94.1580067,7.85455877 94.3463556,6.96732955 94.7230535,6.20028409 C95.0997514,5.43323864 95.6277277,4.83451705 96.3069824,4.40411932 C96.9862371,3.97372159 97.7818304,3.75852273 98.6937622,3.75852273 C99.2512018,3.75852273 99.789432,3.84970925 100.308453,4.0320823 C100.827474,4.21445534 101.293244,4.50188099 101.705764,4.89435924 C102.118284,5.28683749 102.444711,5.79587069 102.685045,6.42145885 C102.925379,7.04704701 103.045547,7.804288 103.045547,8.69318182 L103.045547,9.36814187 L95.236964,9.36814187 L95.236964,7.93632369 L101.168782,7.93632369 C101.167917,7.43694513 101.06586,6.99186568 100.862613,6.60108532 C100.659366,6.21030495 100.373439,5.90220503 100.004831,5.67678556 C99.6362227,5.45136608 99.2043268,5.33865634 98.709143,5.33865634 C98.1713456,5.33865634 97.7038774,5.46926048 97.3067382,5.73046875 C96.9095991,5.99167702 96.6029973,6.33280251 96.3869329,6.75384521 C96.1708684,7.17488792 96.0620039,7.63043768 96.0603393,8.1204945 L96.0603393,9.2352073 C96.0603393,9.8914573 96.1766612,10.4496959 96.4093051,10.9099232 C96.6419489,11.3701505 96.9670776,11.720864 97.3846912,11.9620639 C97.8023049,12.2032637 98.2897982,12.3238636 98.8471713,12.3238636 C99.2128495,12.3238636 99.54462,12.2718783 99.8424827,12.1679077 C100.140345,12.0639371 100.397509,11.9077648 100.613973,11.6993908 C100.830437,11.4910167 100.99663,11.2321222 101.112552,10.9227073 L102.922799,11.25 C102.777913,11.7818049 102.519252,12.246926 102.146815,12.6453635 C101.774379,13.043801 101.30711,13.3531827 100.74501,13.5735085 C100.182909,13.7938343 99.5452026,13.9039972 98.8318903,13.9039972 Z" id="Path"></path>
                    <polygon id="Path" points="107.300018 13.7045455 104.416007 3.88636364 106.38985 3.88636364 108.312558 11.0965909 108.409737 11.0965909 110.337538 3.88636364 112.311481 3.88636364 114.228995 11.0659291 114.326174 11.0659291 116.238694 3.88636364 118.212538 3.88636364 115.328527 13.7045455 113.380151 13.7045455 111.385833 6.61706543 111.242711 6.61706543 109.248393 13.7045455"></polygon>
                    <path d="M122.881321,13.9192782 C122.258297,13.9192782 121.696013,13.8040217 121.194471,13.5735085 C120.692928,13.3429954 120.295556,13.0057151 120.002354,12.5616677 C119.709152,12.1176203 119.562551,11.5747292 119.562551,10.9329945 C119.562551,10.3755549 119.669518,9.91807417 119.883452,9.56055242 C120.097386,9.20303067 120.385461,8.91986639 120.747677,8.71105957 C121.109893,8.50225275 121.514506,8.34501509 121.961516,8.23934659 C122.408527,8.13367809 122.865142,8.05314498 123.331361,7.99774725 C123.918564,7.92783425 124.394755,7.87050559 124.759934,7.82576127 C125.125113,7.78101696 125.391648,7.70815763 125.559539,7.60718328 C125.72743,7.50620894 125.811375,7.33979936 125.811375,7.10795455 L125.811375,7.06191184 C125.811375,6.50626998 125.65457,6.07503995 125.340961,5.76822177 C125.027351,5.46140359 124.56203,5.3079945 123.944998,5.3079945 C123.301532,5.3079945 122.795062,5.44881925 122.425589,5.73046875 C122.056115,6.01211825 121.800633,6.32639382 121.659142,6.67329545 L119.864276,6.26420455 C120.077344,5.66761364 120.389056,5.1850142 120.799412,4.81640625 C121.209768,4.4477983 121.683845,4.17933239 122.221642,4.01100852 C122.75944,3.84268466 123.323638,3.75852273 123.914236,3.75852273 C124.307147,3.75852273 124.723928,3.80476518 125.16458,3.89725009 C125.605232,3.989735 126.019017,4.15720992 126.405935,4.39967485 C126.792854,4.64213978 127.10926,4.98815918 127.355154,5.43773304 C127.601048,5.88730691 127.723995,6.46961559 127.723995,7.18465909 L127.723995,13.7045455 L125.857418,13.7045455 L125.857418,12.3648127 L125.780713,12.3648127 C125.659731,12.6085094 125.475859,12.8501088 125.2291,13.0896107 C124.98234,13.3291127 124.664869,13.5272661 124.276685,13.6840709 C123.888501,13.8408758 123.42338,13.9192782 122.881321,13.9192782 Z M123.295506,12.390281 C123.826512,12.390281 124.280147,12.2854614 124.656412,12.0758223 C125.032678,11.8661832 125.320103,11.5921908 125.518689,11.2538452 C125.717276,10.9154996 125.816569,10.5528675 125.816569,10.165949 L125.816569,8.89772727 C125.746656,8.96677468 125.615186,9.0294134 125.42216,9.08564342 C125.229133,9.14187345 125.009257,9.19087913 124.76253,9.23266047 C124.515804,9.27444181 124.274604,9.3106634 124.038931,9.34132524 C123.803258,9.37198708 123.606586,9.39797141 123.448915,9.41927823 C123.080773,9.46875 122.743926,9.54823442 122.438373,9.65773149 C122.13282,9.76722856 121.889073,9.92531516 121.707133,10.1319913 C121.525192,10.3386674 121.434222,10.61246 121.434222,10.9533691 C121.434222,11.4272461 121.609354,11.7852006 121.959618,12.0272328 C122.309883,12.2692649 122.755178,12.390281 123.295506,12.390281 Z" id="Shape"></path>
                    <path d="M130.270512,13.7045455 L130.270512,3.88636364 L132.121708,3.88636364 L132.121708,5.44602273 L132.223981,5.44602273 C132.402958,4.91934482 132.718932,4.50301292 133.171901,4.19702703 C133.624871,3.89104115 134.138998,3.73804821 134.714282,3.73804821 C134.8336,3.73804821 134.974874,3.74209317 135.138105,3.75018311 C135.301335,3.75827304 135.43109,3.77000843 135.52737,3.78538929 L135.52737,5.61481268 C135.451531,5.59264027 135.3156,5.56748824 135.119578,5.53935658 C134.923555,5.51122492 134.727099,5.49715909 134.530211,5.49715909 C134.079372,5.49715909 133.677322,5.59197443 133.324062,5.78160511 C132.970802,5.9712358 132.692315,6.23289351 132.488602,6.56657826 C132.284889,6.90026301 132.183032,7.28187145 132.183032,7.71140359 L132.183032,13.7045455 L130.270512,13.7045455 Z" id="Path"></path>
                    <path d="M140.866,13.89371 C140.071655,13.89371 139.365334,13.6908791 138.747037,13.2852173 C138.12874,12.8795554 137.642944,12.2978793 137.28965,11.5401889 C136.936357,10.7824984 136.75971,9.87441184 136.75971,8.81592907 C136.75971,7.75398393 136.938055,6.84544789 137.294744,6.09032093 C137.651434,5.33519398 138.140641,4.75777921 138.762368,4.35807662 C139.384094,3.95837402 140.090432,3.75852273 140.881381,3.75852273 C141.48989,3.75852273 141.97993,3.85973011 142.351501,4.06214489 C142.723072,4.26455966 143.012845,4.5002164 143.220819,4.7691151 C143.428794,5.03801381 143.589877,5.27387029 143.704068,5.47668457 L143.816528,5.47668457 L143.816528,0.613636364 L145.729048,0.613636364 L145.729048,13.7045455 L143.862571,13.7045455 L143.862571,12.1755482 L143.704068,12.1755482 C143.588146,12.3852206 143.423018,12.6245062 143.208685,12.8934049 C142.994351,13.1623036 142.699468,13.3962458 142.324035,13.5952315 C141.948603,13.7942172 141.462591,13.89371 140.866,13.89371 Z M141.290472,12.2676336 C141.839322,12.2676336 142.30401,12.1216819 142.684537,11.8297785 C143.065063,11.5378751 143.354836,11.131331 143.553855,10.6101463 C143.752874,10.0889615 143.852384,9.48406428 143.852384,8.79545455 C143.852384,8.11190518 143.754589,7.51466508 143.558999,7.00373424 C143.363409,6.4928034 143.075334,6.09523149 142.694774,5.81101851 C142.314214,5.52680553 141.846114,5.38469904 141.290472,5.38469904 C140.714322,5.38469904 140.233853,5.53363037 139.849065,5.83149303 C139.464278,6.12935569 139.175354,6.53545033 138.982294,7.04977694 C138.789234,7.56410356 138.692704,8.14599609 138.692704,8.79545455 C138.692704,9.45170455 138.790932,10.0421198 138.987388,10.5667003 C139.183843,11.0912809 139.474465,11.5059149 139.859253,11.8106024 C140.244041,12.1152899 140.721114,12.2676336 141.290472,12.2676336 Z" id="Shape"></path>
                    <path d="M155.808051,6.28467907 L154.074508,6.59149725 C154.00293,6.37077193 153.889155,6.15983443 153.733183,5.95868475 C153.57721,5.75753507 153.367338,5.59282338 153.103566,5.46454967 C152.839795,5.33627597 152.50889,5.27213912 152.110852,5.27213912 C151.569725,5.27213912 151.118054,5.39317183 150.755838,5.63523726 C150.393622,5.87730269 150.212914,6.18753329 150.213713,6.56592907 C150.212914,6.89491966 150.334595,7.15869141 150.578758,7.35724432 C150.822921,7.55579723 151.214301,7.71985973 151.752897,7.84943182 L153.31775,8.20738636 C154.221159,8.414462 154.894238,8.73597856 155.336987,9.17193604 C155.779736,9.60789351 156.001543,10.1727406 156.002409,10.8664773 C156.001543,11.4562766 155.831288,11.9797918 155.491644,12.4370228 C155.152,12.8942538 154.68112,13.2530573 154.079002,13.5134333 C153.476885,13.7738093 152.779952,13.9039972 151.988204,13.9039972 C150.887041,13.9039972 149.989375,13.6687733 149.295206,13.1983254 C148.601036,12.7278775 148.174251,12.0579612 148.014849,11.1885764 L149.860952,10.9022328 C149.979404,11.3872292 150.217391,11.752225 150.574913,11.9972201 C150.932435,12.2422152 151.398405,12.3647128 151.972823,12.3647128 C152.600109,12.3647128 153.101036,12.2334761 153.475603,11.9710028 C153.85017,11.7085294 154.037887,11.3880948 154.038752,11.009699 C154.037887,10.6994185 153.923895,10.4403076 153.696778,10.2323664 C153.469661,10.0244252 153.119996,9.86762029 152.647783,9.76195179 L150.991045,9.39371005 C150.07139,9.18836559 149.393816,8.85684482 148.958325,8.39914773 C148.522833,7.94145064 148.30552,7.36446866 148.306386,6.66820179 C148.30552,6.08865634 148.466803,5.58090487 148.790234,5.1449474 C149.113665,4.70898992 149.560675,4.36892978 150.131265,4.12476696 C150.701855,3.88060414 151.356624,3.75852273 152.095571,3.75852273 C153.15665,3.75852273 153.991661,3.98778742 154.600603,4.44631681 C155.209545,4.90484619 155.612028,5.51763361 155.808051,6.28467907 Z" id="Path"></path>
                    <polygon id="Path" points="0 26.3114236 0 24.6136364 10.1300937 24.6136364 10.1300937 26.3114236 6.04947177 26.3114236 6.04947177 37.7045455 4.08072177 37.7045455 4.08072177 26.3114236"></polygon>
                    <path d="M16.4403706,37.9039972 C15.4739066,37.9039972 14.6414426,37.695823 13.9429784,37.2794744 C13.2445143,36.8631259 12.7071497,36.2767556 12.3308846,35.5203635 C11.9546195,34.7639715 11.7664869,33.8778409 11.7664869,32.8619718 C11.7664869,31.8545588 11.9548359,30.9673295 12.3315338,30.2002841 C12.7082317,29.4332386 13.236208,28.834517 13.9154627,28.4041193 C14.5947174,27.9737216 15.3903106,27.7585227 16.3022425,27.7585227 C16.8596821,27.7585227 17.3979123,27.8497093 17.9169331,28.0320823 C18.4359538,28.2144553 18.9017242,28.501881 19.3142442,28.8943592 C19.7267642,29.2868375 20.0531913,29.7958707 20.2935255,30.4214589 C20.5338598,31.047047 20.6540269,31.804288 20.6540269,32.6931818 L20.6540269,33.3681419 L12.8454442,33.3681419 L12.8454442,31.9363237 L18.7772624,31.9363237 C18.7763968,31.4369451 18.6743405,30.9918657 18.4710934,30.6010853 C18.2678464,30.210305 17.9819189,29.902205 17.6133109,29.6767856 C17.2447029,29.4513661 16.8128071,29.3386563 16.3176233,29.3386563 C15.7798259,29.3386563 15.3123576,29.4692605 14.9152185,29.7304687 C14.5180794,29.991677 14.2114776,30.3328025 13.9954132,30.7538452 C13.7793487,31.1748879 13.6704842,31.6304377 13.6688196,32.1204945 L13.6688196,33.2352073 C13.6688196,33.8914573 13.7851415,34.4496959 14.0177853,34.9099232 C14.2504292,35.3701505 14.5755579,35.720864 14.9931715,35.9620639 C15.4107852,36.2032637 15.8982785,36.3238636 16.4556515,36.3238636 C16.8213298,36.3238636 17.1531003,36.2718783 17.4509629,36.1679077 C17.7488256,36.0639371 18.0059889,35.9077648 18.2224529,35.6993908 C18.4389168,35.4910167 18.60511,35.2321222 18.7210324,34.9227073 L20.5312797,35.25 C20.3863933,35.7818049 20.1277318,36.246926 19.7552953,36.6453635 C19.3828588,37.043801 18.9155903,37.3531827 18.3534898,37.5735085 C17.7913893,37.7938343 17.1536829,37.9039972 16.4403706,37.9039972 Z" id="Path"></path>
                    <path d="M25.639788,37.9192782 C25.0167633,37.9192782 24.4544797,37.8040217 23.9529372,37.5735085 C23.4513947,37.3429954 23.0540225,37.0057151 22.7608207,36.5616677 C22.4676189,36.1176203 22.321018,35.5747292 22.321018,34.9329945 C22.321018,34.3755549 22.4279849,33.9180742 22.6419187,33.5605524 C22.8558525,33.2030307 23.1439273,32.9198664 23.5061432,32.7110596 C23.8683591,32.5022528 24.2729723,32.3450151 24.7199827,32.2393466 C25.1669931,32.1336781 25.6236082,32.053145 26.089828,31.9977472 C26.6770306,31.9278343 27.1532213,31.8705056 27.5184002,31.8257613 C27.8835791,31.781017 28.1501141,31.7081576 28.3180051,31.6071833 C28.4858962,31.5062089 28.5698417,31.3397994 28.5698417,31.1079545 L28.5698417,31.0619118 C28.5698417,30.50627 28.4130369,30.07504 28.0994271,29.7682218 C27.7858174,29.4614036 27.3204965,29.3079945 26.7034643,29.3079945 C26.0599984,29.3079945 25.5535287,29.4488192 25.1840552,29.7304687 C24.8145816,30.0121183 24.5590995,30.3263938 24.417609,30.6732955 L22.6227426,30.2642045 C22.8358107,29.6676136 23.1475228,29.1850142 23.5578788,28.8164062 C23.9682348,28.4477983 24.4423115,28.1793324 24.980109,28.0110085 C25.5179064,27.8426847 26.0821042,27.7585227 26.6727026,27.7585227 C27.0656137,27.7585227 27.482395,27.8047652 27.9230466,27.8972501 C28.3636983,27.989735 28.7774833,28.1572099 29.1644018,28.3996748 C29.5513203,28.6421398 29.8677266,28.9881592 30.1136206,29.437733 C30.3595146,29.8873069 30.4824616,30.4696156 30.4824616,31.1846591 L30.4824616,37.7045455 L28.6158844,37.7045455 L28.6158844,36.3648127 L28.5391799,36.3648127 C28.4181971,36.6085094 28.2343259,36.8501088 27.9875663,37.0896107 C27.7408068,37.3291127 27.4233352,37.5272661 27.0351516,37.6840709 C26.646968,37.8408758 26.1818468,37.9192782 25.639788,37.9192782 Z M26.0539726,36.390281 C26.5849785,36.390281 27.0386139,36.2854614 27.414879,36.0758223 C27.7911441,35.8661832 28.0785698,35.5921908 28.277156,35.2538452 C28.4757422,34.9154996 28.5750353,34.5528675 28.5750353,34.165949 L28.5750353,32.8977273 C28.5051223,32.9667747 28.3736525,33.0294134 28.1806261,33.0856434 C27.9875996,33.1418734 27.7677233,33.1908791 27.520997,33.2326605 C27.2742707,33.2744418 27.0330708,33.3106634 26.7973974,33.3413252 C26.5617241,33.3719871 26.3650521,33.3979714 26.2073817,33.4192782 C25.8392398,33.46875 25.5023923,33.5482344 25.1968392,33.6577315 C24.8912862,33.7672286 24.6475395,33.9253152 24.4655992,34.1319913 C24.283659,34.3386674 24.1926889,34.61246 24.1926889,34.9533691 C24.1926889,35.4272461 24.3678209,35.7852006 24.718085,36.0272328 C25.0683491,36.2692649 25.513645,36.390281 26.0539726,36.390281 Z" id="Shape"></path>
                    <path d="M33.0289785,37.7045455 L33.0289785,27.8863636 L34.864794,27.8863636 L34.864794,29.4869718 L34.9875412,29.4869718 C35.1920867,28.944913 35.5261709,28.5213235 35.989794,28.2162032 C36.453417,27.9110829 37.0090922,27.7585227 37.6568194,27.7585227 C38.3130694,27.7585227 38.8640671,27.9117154 39.3098124,28.2181008 C39.7555577,28.5244862 40.08583,28.9474432 40.3006294,29.4869718 L40.4029021,29.4869718 C40.6372771,28.9610929 41.0097136,28.5415483 41.5202117,28.2283381 C42.0307097,27.9151278 42.6400847,27.7585227 43.3483367,27.7585227 C44.2389617,27.7585227 44.9661567,28.0380748 45.5299218,28.5971791 C46.0936869,29.1562833 46.3755694,29.9983354 46.3755694,31.1233354 L46.3755694,37.7045455 L44.4630495,37.7045455 L44.4630495,31.3023127 C44.4630495,30.6366744 44.2828071,30.1549239 43.9223224,29.8570612 C43.5618376,29.5591986 43.1301748,29.4102672 42.6273339,29.4102672 C42.002578,29.4102672 41.5174151,29.6009632 41.1718452,29.9823553 C40.8262752,30.3637473 40.6534902,30.8514404 40.6534902,31.4454346 L40.6534902,37.7045455 L38.7511576,37.7045455 L38.7511576,31.1795654 C38.7511576,30.646895 38.5845316,30.2188443 38.2512797,29.8954135 C37.9180277,29.5719826 37.4863649,29.4102672 36.9562912,29.4102672 C36.5940753,29.4102672 36.259991,29.5048662 35.9540384,29.6940641 C35.6480859,29.8832619 35.402841,30.1459684 35.218304,30.4821833 C35.033767,30.8183982 34.9414985,31.2076638 34.9414985,31.64998 L34.9414985,37.7045455 L33.0289785,37.7045455 Z" id="Path"></path>
                    <polygon id="Path" points="53.9181987 24 49.6994487 39.6732955 47.9966677 39.6732955 52.2154177 24"></polygon>
                    <path d="M59.9420945,37.7045455 L55.7028699,37.7045455 L55.7028699,24.6136364 L60.075029,24.6136364 C61.3602962,24.6136364 62.4625079,24.8746449 63.3816641,25.3966619 C64.3008203,25.918679 65.0064921,26.6669811 65.4986796,27.6415683 C65.9908671,28.6161555 66.2369608,29.7818382 66.2369608,31.1386164 C66.2369608,32.5022528 65.9893856,33.6747769 65.4942351,34.656189 C64.9990846,35.637601 64.2823266,36.3910134 63.343961,36.9164262 C62.4055954,37.441839 61.2716399,37.7045455 59.9420945,37.7045455 Z M57.6819071,35.9760964 L59.8347281,35.9760964 C60.830156,35.9760964 61.658342,35.7881803 62.3192862,35.412348 C62.9802303,35.0365157 63.4745485,34.4889304 63.8022407,33.7695923 C64.1299329,33.0502541 64.293779,32.1732622 64.293779,31.1386164 C64.293779,30.1107622 64.1312147,29.2397461 63.8060859,28.5255682 C63.4809572,27.8113903 62.9968763,27.268932 62.3538432,26.8981934 C61.7108101,26.5274547 60.9120208,26.3420854 59.9574753,26.3420854 L57.6819071,26.3420854 L57.6819071,35.9760964 Z" id="Shape"></path>
                    <path d="M72.7722312,37.9039972 C71.8057672,37.9039972 70.9733032,37.695823 70.2748391,37.2794744 C69.5763749,36.8631259 69.0390103,36.2767556 68.6627452,35.5203635 C68.2864801,34.7639715 68.0983476,33.8778409 68.0983476,32.8619718 C68.0983476,31.8545588 68.2866965,30.9673295 68.6633944,30.2002841 C69.0400923,29.4332386 69.5680686,28.834517 70.2473233,28.4041193 C70.926578,27.9737216 71.7221713,27.7585227 72.6341031,27.7585227 C73.1915427,27.7585227 73.7297729,27.8497093 74.2487937,28.0320823 C74.7678145,28.2144553 75.2335848,28.501881 75.6461048,28.8943592 C76.0586248,29.2868375 76.3850519,29.7958707 76.6253862,30.4214589 C76.8657204,31.047047 76.9858875,31.804288 76.9858875,32.6931818 L76.9858875,33.3681419 L69.1773049,33.3681419 L69.1773049,31.9363237 L75.1091231,31.9363237 C75.1082575,31.4369451 75.0062011,30.9918657 74.8029541,30.6010853 C74.599707,30.210305 74.3137795,29.902205 73.9451715,29.6767856 C73.5765636,29.4513661 73.1446677,29.3386563 72.6494839,29.3386563 C72.1116865,29.3386563 71.6442183,29.4692605 71.2470792,29.7304687 C70.84994,29.991677 70.5433383,30.3328025 70.3272738,30.7538452 C70.1112093,31.1748879 70.0023448,31.6304377 70.0006802,32.1204945 L70.0006802,33.2352073 C70.0006802,33.8914573 70.1170021,34.4496959 70.349646,34.9099232 C70.5822898,35.3701505 70.9074185,35.720864 71.3250321,35.9620639 C71.7426458,36.2032637 72.2301391,36.3238636 72.7875122,36.3238636 C73.1531904,36.3238636 73.4849609,36.2718783 73.7828236,36.1679077 C74.0806862,36.0639371 74.3378495,35.9077648 74.5543135,35.6993908 C74.7707774,35.4910167 74.9369706,35.2321222 75.052893,34.9227073 L76.8631403,35.25 C76.7182539,35.7818049 76.4595925,36.246926 76.0871559,36.6453635 C75.7147194,37.043801 75.2474509,37.3531827 74.6853504,37.5735085 C74.1232499,37.7938343 73.4855435,37.9039972 72.7722312,37.9039972 Z" id="Path"></path>
                    <polygon id="Path" points="87.5148504 27.8863636 83.9506858 37.7045455 81.9051314 37.7045455 78.3409668 27.8863636 80.391515 27.8863636 82.8767223 35.4442583 82.9789951 35.4442583 85.4643022 27.8863636"></polygon>
                    <path d="M93.5438383,37.9039972 C92.5773744,37.9039972 91.7449103,37.695823 91.0464462,37.2794744 C90.3479821,36.8631259 89.8106174,36.2767556 89.4343524,35.5203635 C89.0580873,34.7639715 88.8699547,33.8778409 88.8699547,32.8619718 C88.8699547,31.8545588 89.0583037,30.9673295 89.4350015,30.2002841 C89.8116994,29.4332386 90.3396757,28.834517 91.0189304,28.4041193 C91.6981851,27.9737216 92.4937784,27.7585227 93.4057102,27.7585227 C93.9631499,27.7585227 94.5013801,27.8497093 95.0204008,28.0320823 C95.5394216,28.2144553 96.005192,28.501881 96.417712,28.8943592 C96.8302319,29.2868375 97.156659,29.7958707 97.3969933,30.4214589 C97.6373275,31.047047 97.7574947,31.804288 97.7574947,32.6931818 L97.7574947,33.3681419 L89.948912,33.3681419 L89.948912,31.9363237 L95.8807302,31.9363237 C95.8798646,31.4369451 95.7778083,30.9918657 95.5745612,30.6010853 C95.3713141,30.210305 95.0853866,29.902205 94.7167787,29.6767856 C94.3481707,29.4513661 93.9162749,29.3386563 93.4210911,29.3386563 C92.8832937,29.3386563 92.4158254,29.4692605 92.0186863,29.7304687 C91.6215472,29.991677 91.3149454,30.3328025 91.0988809,30.7538452 C90.8828165,31.1748879 90.773952,31.6304377 90.7722874,32.1204945 L90.7722874,33.2352073 C90.7722874,33.8914573 90.8886093,34.4496959 91.1212531,34.9099232 C91.3538969,35.3701505 91.6790257,35.720864 92.0966393,35.9620639 C92.5142529,36.2032637 93.0017463,36.3238636 93.5591193,36.3238636 C93.9247976,36.3238636 94.256568,36.2718783 94.5544307,36.1679077 C94.8522934,36.0639371 95.1094567,35.9077648 95.3259206,35.6993908 C95.5423846,35.4910167 95.7085778,35.2321222 95.8245002,34.9227073 L97.6347474,35.25 C97.4898611,35.7818049 97.2311996,36.246926 96.8587631,36.6453635 C96.4863266,37.043801 96.0190581,37.3531827 95.4569576,37.5735085 C94.8948571,37.7938343 94.2571507,37.9039972 93.5438383,37.9039972 Z" id="Path"></path>
                    <polygon id="Path" points="101.797233 24.6136364 101.797233 37.7045455 99.8847131 37.7045455 99.8847131 24.6136364"></polygon>
                    <path d="M108.501223,37.9039972 C107.579037,37.9039972 106.775338,37.6928434 106.090124,37.2705356 C105.40491,36.8482278 104.872672,36.2575961 104.493411,35.4986406 C104.114149,34.7396851 103.924519,33.8539706 103.924519,32.8414972 C103.924519,31.8221657 104.114149,30.9313244 104.493411,30.1689731 C104.872672,29.4066218 105.40491,28.8142922 106.090124,28.3919844 C106.775338,27.9696766 107.579037,27.7585227 108.501223,27.7585227 C109.423409,27.7585227 110.227109,27.9696766 110.912323,28.3919844 C111.597537,28.8142922 112.129774,29.4066218 112.509036,30.1689731 C112.888297,30.9313244 113.077928,31.8221657 113.077928,32.8414972 C113.077928,33.8539706 112.888297,34.7396851 112.509036,35.4986406 C112.129774,36.2575961 111.597537,36.8482278 110.912323,37.2705356 C110.227109,37.6928434 109.423409,37.9039972 108.501223,37.9039972 Z M108.506317,36.2982955 C109.104639,36.2982955 109.59939,36.1401922 109.99057,35.8239857 C110.38175,35.5077792 110.672787,35.0876021 110.863683,34.5634544 C111.054579,34.0393066 111.150027,33.463623 111.150027,32.8364036 C111.150027,32.208252 111.054579,31.6306041 110.863683,31.1034601 C110.672787,30.5763161 110.38175,30.1529597 109.99057,29.8333907 C109.59939,29.5138217 109.104639,29.3540372 108.506317,29.3540372 C107.904666,29.3540372 107.407384,29.5138217 107.014473,29.8333907 C106.621562,30.1529597 106.329659,30.5763161 106.138763,31.1034601 C105.947867,31.6306041 105.852419,32.208252 105.852419,32.8364036 C105.852419,33.463623 105.947867,34.0393066 106.138763,34.5634544 C106.329659,35.0876021 106.621562,35.5077792 107.014473,35.8239857 C107.407384,36.1401922 107.904666,36.2982955 108.506317,36.2982955 Z" id="Shape"></path>
                    <path d="M115.205187,41.3863636 L115.205187,27.8863636 L117.071664,27.8863636 L117.071664,29.4766846 L117.230267,29.4766846 C117.344458,29.2738703 117.505524,29.0380138 117.713465,28.7691151 C117.921406,28.5002164 118.211179,28.2645597 118.582783,28.0621449 C118.954388,27.8597301 119.444444,27.7585227 120.052954,27.7585227 C120.843836,27.7585227 121.550157,27.958374 122.171917,28.3580766 C122.793677,28.7577792 123.282884,29.335194 123.639541,30.0903209 C123.996197,30.8454479 124.174525,31.7539839 124.174525,32.8159291 C124.174525,33.8744118 123.997895,34.7824984 123.644634,35.5401889 C123.291374,36.2978793 122.805578,36.8795554 122.187248,37.2852173 C121.568917,37.6908791 120.862613,37.89371 120.068335,37.89371 C119.471744,37.89371 118.985732,37.7942172 118.610299,37.5952315 C118.234866,37.3962458 117.939967,37.1623036 117.7256,36.8934049 C117.511234,36.6245062 117.346122,36.3852206 117.230267,36.1755482 L117.117707,36.1755482 L117.117707,41.3863636 L115.205187,41.3863636 Z M117.081951,32.7954545 C117.081951,33.4840643 117.181444,34.0889615 117.38043,34.6101463 C117.579415,35.131331 117.869188,35.5378751 118.249748,35.8297785 C118.630308,36.1216819 119.095013,36.2676336 119.643863,36.2676336 C120.213155,36.2676336 120.690211,36.1152899 121.075032,35.8106024 C121.459853,35.5059149 121.750475,35.0912809 121.946897,34.5667003 C122.143319,34.0421198 122.24153,33.4517045 122.24153,32.7954545 C122.24153,32.1459961 122.145017,31.5641036 121.951991,31.0497769 C121.758964,30.5354503 121.470057,30.1293557 121.085269,29.831493 C120.700481,29.5336304 120.220013,29.384699 119.643863,29.384699 C119.088155,29.384699 118.620037,29.5268055 118.239511,29.8110185 C117.858984,30.0952315 117.570926,30.4928034 117.375336,31.0037342 C117.179746,31.5146651 117.081951,32.1119052 117.081951,32.7954545 Z" id="Shape"></path>
                    <path d="M126.312013,37.7045455 L126.312013,27.8863636 L128.147829,27.8863636 L128.147829,29.4869718 L128.270576,29.4869718 C128.475121,28.944913 128.809206,28.5213235 129.272829,28.2162032 C129.736452,27.9110829 130.292127,27.7585227 130.939854,27.7585227 C131.596104,27.7585227 132.147102,27.9117154 132.592847,28.2181008 C133.038592,28.5244862 133.368865,28.9474432 133.583664,29.4869718 L133.685937,29.4869718 C133.920312,28.9610929 134.292748,28.5415483 134.803246,28.2283381 C135.313744,27.9151278 135.923119,27.7585227 136.631371,27.7585227 C137.521996,27.7585227 138.249191,28.0380748 138.812957,28.5971791 C139.376722,29.1562833 139.658604,29.9983354 139.658604,31.1233354 L139.658604,37.7045455 L137.746084,37.7045455 L137.746084,31.3023127 C137.746084,30.6366744 137.565842,30.1549239 137.205357,29.8570612 C136.844872,29.5591986 136.41321,29.4102672 135.910369,29.4102672 C135.285613,29.4102672 134.80045,29.6009632 134.45488,29.9823553 C134.10931,30.3637473 133.936525,30.8514404 133.936525,31.4454346 L133.936525,37.7045455 L132.034192,37.7045455 L132.034192,31.1795654 C132.034192,30.646895 131.867566,30.2188443 131.534314,29.8954135 C131.201062,29.5719826 130.7694,29.4102672 130.239326,29.4102672 C129.87711,29.4102672 129.543026,29.5048662 129.237073,29.6940641 C128.931121,29.8832619 128.685876,30.1459684 128.501339,30.4821833 C128.316802,30.8183982 128.224533,31.2076638 128.224533,31.64998 L128.224533,37.7045455 L126.312013,37.7045455 Z" id="Path"></path>
                    <path d="M146.449569,37.9039972 C145.483105,37.9039972 144.650641,37.695823 143.952177,37.2794744 C143.253713,36.8631259 142.716348,36.2767556 142.340083,35.5203635 C141.963818,34.7639715 141.775685,33.8778409 141.775685,32.8619718 C141.775685,31.8545588 141.964034,30.9673295 142.340732,30.2002841 C142.71743,29.4332386 143.245406,28.834517 143.924661,28.4041193 C144.603916,27.9737216 145.399509,27.7585227 146.311441,27.7585227 C146.86888,27.7585227 147.407111,27.8497093 147.926131,28.0320823 C148.445152,28.2144553 148.910922,28.501881 149.323442,28.8943592 C149.735962,29.2868375 150.06239,29.7958707 150.302724,30.4214589 C150.543058,31.047047 150.663225,31.804288 150.663225,32.6931818 L150.663225,33.3681419 L142.854643,33.3681419 L142.854643,31.9363237 L148.786461,31.9363237 C148.785595,31.4369451 148.683539,30.9918657 148.480292,30.6010853 C148.277045,30.210305 147.991117,29.902205 147.622509,29.6767856 C147.253901,29.4513661 146.822005,29.3386563 146.326822,29.3386563 C145.789024,29.3386563 145.321556,29.4692605 144.924417,29.7304687 C144.527278,29.991677 144.220676,30.3328025 144.004611,30.7538452 C143.788547,31.1748879 143.679682,31.6304377 143.678018,32.1204945 L143.678018,33.2352073 C143.678018,33.8914573 143.79434,34.4496959 144.026984,34.9099232 C144.259627,35.3701505 144.584756,35.720864 145.00237,35.9620639 C145.419983,36.2032637 145.907477,36.3238636 146.46485,36.3238636 C146.830528,36.3238636 147.162299,36.2718783 147.460161,36.1679077 C147.758024,36.0639371 148.015187,35.9077648 148.231651,35.6993908 C148.448115,35.4910167 148.614308,35.2321222 148.730231,34.9227073 L150.540478,35.25 C150.395592,35.7818049 150.13693,36.246926 149.764494,36.6453635 C149.392057,37.043801 148.924789,37.3531827 148.362688,37.5735085 C147.800588,37.7938343 147.162881,37.9039972 146.449569,37.9039972 Z" id="Path"></path>
                    <path d="M154.702964,31.875 L154.702964,37.7045455 L152.790444,37.7045455 L152.790444,27.8863636 L154.626259,27.8863636 L154.626259,29.4869718 L154.749006,29.4869718 C154.975724,28.963623 155.330483,28.544711 155.813282,28.2302357 C156.296081,27.9157604 156.906089,27.7585227 157.643304,27.7585227 C158.31407,27.7585227 158.900224,27.8985152 159.401766,28.1785001 C159.903309,28.458485 160.293223,28.8729026 160.57151,29.4217529 C160.849798,29.9706032 160.988508,30.6502907 160.987647,31.4608154 L160.987647,37.7045455 L159.075123,37.7045455 L159.075123,31.6909291 C159.075988,30.9767512 158.891268,30.4189453 158.520962,30.0175115 C158.150656,29.6160778 157.64164,29.4153609 156.993913,29.4153609 C156.550731,29.4153609 156.156771,29.511458 155.812033,29.7036521 C155.467296,29.8958463 155.196483,30.1753817 154.999594,30.5422585 C154.802706,30.9091353 154.703829,31.3533825 154.702964,31.875 Z" id="Path"></path>
                    <path d="M168.131426,27.8863636 L168.131426,29.4204545 L162.767202,29.4204545 L162.767202,27.8863636 L168.131426,27.8863636 Z M164.204097,25.5340909 L166.116633,25.5340909 L166.116633,34.8230313 C166.116633,35.1911732 166.171598,35.4687777 166.281528,35.6558449 C166.391458,35.8429122 166.535495,35.9690552 166.71364,36.034274 C166.891785,36.0994929 167.084828,36.1321023 167.29277,36.1321023 C167.447044,36.1321023 167.581061,36.121865 167.694819,36.1013905 C167.808578,36.080916 167.89785,36.0638872 167.962636,36.0503041 L168.310403,37.6304377 C168.197011,37.6704545 168.037826,37.7134843 167.832848,37.759527 C167.627869,37.8055697 167.372837,37.8307218 167.06775,37.8349831 C166.564909,37.8435059 166.095726,37.753368 165.660201,37.5645696 C165.224677,37.3757713 164.872681,37.0857821 164.604215,36.6946023 C164.33575,36.3034224 164.202382,35.8108021 164.204097,35.2167414 L164.204097,25.5340909 Z" id="Shape"></path>
                    <polygon id="Path" points="175.223989 24 171.005239 39.6732955 169.302458 39.6732955 173.521208 24"></polygon>
                    <polygon id="Path" points="177.00866 24.6136364 179.406975 24.6136364 183.574589 34.7897727 183.727998 34.7897727 187.895612 24.6136364 190.293927 24.6136364 190.293927 37.7045455 188.412069 37.7045455 188.412069 28.2341309 188.289322 28.2341309 184.43372 37.6840709 182.868867 37.6840709 179.013265 28.2238437 178.890518 28.2238437 178.890518 37.7045455 177.00866 37.7045455"></polygon>
                    <path d="M195.872894,37.9192782 C195.249869,37.9192782 194.687586,37.8040217 194.186043,37.5735085 C193.684501,37.3429954 193.287128,37.0057151 192.993927,36.5616677 C192.700725,36.1176203 192.554124,35.5747292 192.554124,34.9329945 C192.554124,34.3755549 192.661091,33.9180742 192.875025,33.5605524 C193.088958,33.2030307 193.377033,32.9198664 193.739249,32.7110596 C194.101465,32.5022528 194.506078,32.3450151 194.953089,32.2393466 C195.400099,32.1336781 195.856714,32.053145 196.322934,31.9977472 C196.910136,31.9278343 197.386327,31.8705056 197.751506,31.8257613 C198.116685,31.781017 198.38322,31.7081576 198.551111,31.6071833 C198.719002,31.5062089 198.802948,31.3397994 198.802948,31.1079545 L198.802948,31.0619118 C198.802948,30.50627 198.646143,30.07504 198.332533,29.7682218 C198.018923,29.4614036 197.553602,29.3079945 196.93657,29.3079945 C196.293104,29.3079945 195.786635,29.4488192 195.417161,29.7304687 C195.047688,30.0121183 194.792205,30.3263938 194.650715,30.6732955 L192.855848,30.2642045 C193.068917,29.6676136 193.380629,29.1850142 193.790985,28.8164062 C194.201341,28.4477983 194.675417,28.1793324 195.213215,28.0110085 C195.751012,27.8426847 196.31521,27.7585227 196.905809,27.7585227 C197.29872,27.7585227 197.715501,27.8047652 198.156153,27.8972501 C198.596804,27.989735 199.010589,28.1572099 199.397508,28.3996748 C199.784426,28.6421398 200.100833,28.9881592 200.346727,29.437733 C200.592621,29.8873069 200.715568,30.4696156 200.715568,31.1846591 L200.715568,37.7045455 L198.84899,37.7045455 L198.84899,36.3648127 L198.772286,36.3648127 C198.651303,36.6085094 198.467432,36.8501088 198.220672,37.0896107 C197.973913,37.3291127 197.656441,37.5272661 197.268257,37.6840709 C196.880074,37.8408758 196.414953,37.9192782 195.872894,37.9192782 Z M196.287079,36.390281 C196.818084,36.390281 197.27172,36.2854614 197.647985,36.0758223 C198.02425,35.8661832 198.311676,35.5921908 198.510262,35.2538452 C198.708848,34.9154996 198.808141,34.5528675 198.808141,34.165949 L198.808141,32.8977273 C198.738228,32.9667747 198.606758,33.0294134 198.413732,33.0856434 C198.220706,33.1418734 198.000829,33.1908791 197.754103,33.2326605 C197.507377,33.2744418 197.266177,33.3106634 197.030503,33.3413252 C196.79483,33.3719871 196.598158,33.3979714 196.440488,33.4192782 C196.072346,33.46875 195.735498,33.5482344 195.429945,33.6577315 C195.124392,33.7672286 194.880645,33.9253152 194.698705,34.1319913 C194.516765,34.3386674 194.425795,34.61246 194.425795,34.9533691 C194.425795,35.4272461 194.600927,35.7852006 194.951191,36.0272328 C195.301455,36.2692649 195.746751,36.390281 196.287079,36.390281 Z" id="Shape"></path>
                    <path d="M203.262084,37.7045455 L203.262084,27.8863636 L205.113281,27.8863636 L205.113281,29.4460227 L205.215553,29.4460227 C205.394531,28.9193448 205.710504,28.5030129 206.163474,28.197027 C206.616443,27.8910411 207.13057,27.7380482 207.705854,27.7380482 C207.825173,27.7380482 207.966447,27.7420932 208.129677,27.7501831 C208.292907,27.758273 208.422662,27.7700084 208.518943,27.7853893 L208.518943,29.6148127 C208.443104,29.5926403 208.307173,29.5674882 208.11115,29.5393566 C207.915127,29.5112249 207.718672,29.4971591 207.521783,29.4971591 C207.070945,29.4971591 206.668895,29.5919744 206.315634,29.7816051 C205.962374,29.9712358 205.683887,30.2328935 205.480174,30.5665783 C205.276461,30.900263 205.174604,31.2818714 205.174604,31.7114036 L205.174604,37.7045455 L203.262084,37.7045455 Z" id="Path"></path>
                    <path d="M211.939959,34.3755882 L211.924678,32.0436901 L212.262158,32.0436901 L216.17409,27.8863636 L218.459845,27.8863636 L214.000794,32.6164773 L213.69907,32.6164773 L211.939959,34.3755882 Z M210.180848,37.7045455 L210.180848,24.6136364 L212.093368,24.6136364 L212.093368,37.7045455 L210.180848,37.7045455 Z M216.383729,37.7045455 L212.865507,33.040949 L214.184865,31.7011164 L218.725814,37.7045455 L216.383729,37.7045455 Z" id="Shape"></path>
                    <path d="M224.432606,37.9039972 C223.466142,37.9039972 222.633678,37.695823 221.935214,37.2794744 C221.23675,36.8631259 220.699385,36.2767556 220.32312,35.5203635 C219.946855,34.7639715 219.758722,33.8778409 219.758722,32.8619718 C219.758722,31.8545588 219.947071,30.9673295 220.323769,30.2002841 C220.700467,29.4332386 221.228443,28.834517 221.907698,28.4041193 C222.586953,27.9737216 223.382546,27.7585227 224.294478,27.7585227 C224.851918,27.7585227 225.390148,27.8497093 225.909169,28.0320823 C226.428189,28.2144553 226.89396,28.501881 227.30648,28.8943592 C227.719,29.2868375 228.045427,29.7958707 228.285761,30.4214589 C228.526095,31.047047 228.646262,31.804288 228.646262,32.6931818 L228.646262,33.3681419 L220.83768,33.3681419 L220.83768,31.9363237 L226.769498,31.9363237 C226.768632,31.4369451 226.666576,30.9918657 226.463329,30.6010853 C226.260082,30.210305 225.974154,29.902205 225.605546,29.6767856 C225.236938,29.4513661 224.805043,29.3386563 224.309859,29.3386563 C223.772061,29.3386563 223.304593,29.4692605 222.907454,29.7304687 C222.510315,29.991677 222.203713,30.3328025 221.987649,30.7538452 C221.771584,31.1748879 221.66272,31.6304377 221.661055,32.1204945 L221.661055,33.2352073 C221.661055,33.8914573 221.777377,34.4496959 222.010021,34.9099232 C222.242665,35.3701505 222.567793,35.720864 222.985407,35.9620639 C223.403021,36.2032637 223.890514,36.3238636 224.447887,36.3238636 C224.813565,36.3238636 225.145336,36.2718783 225.443198,36.1679077 C225.741061,36.0639371 225.998224,35.9077648 226.214688,35.6993908 C226.431152,35.4910167 226.597346,35.2321222 226.713268,34.9227073 L228.523515,35.25 C228.378629,35.7818049 228.119967,36.246926 227.747531,36.6453635 C227.375094,37.043801 226.907826,37.3531827 226.345725,37.5735085 C225.783625,37.7938343 225.145918,37.9039972 224.432606,37.9039972 Z" id="Path"></path>
                    <path d="M235.360473,27.8863636 L235.360473,29.4204545 L229.996248,29.4204545 L229.996248,27.8863636 L235.360473,27.8863636 Z M231.433143,25.5340909 L233.34568,25.5340909 L233.34568,34.8230313 C233.34568,35.1911732 233.400645,35.4687777 233.510575,35.6558449 C233.620505,35.8429122 233.764542,35.9690552 233.942687,36.034274 C234.120832,36.0994929 234.313875,36.1321023 234.521816,36.1321023 C234.676091,36.1321023 234.810107,36.121865 234.923866,36.1013905 C235.037624,36.080916 235.126897,36.0638872 235.191683,36.0503041 L235.53945,37.6304377 C235.426058,37.6704545 235.266872,37.7134843 235.061894,37.759527 C234.856916,37.8055697 234.601883,37.8307218 234.296796,37.8349831 C233.793955,37.8435059 233.324773,37.753368 232.889248,37.5645696 C232.453723,37.3757713 232.101728,37.0857821 231.833262,36.6946023 C231.564796,36.3034224 231.431429,35.8108021 231.433143,35.2167414 L231.433143,25.5340909 Z" id="Shape"></path>
                    <path d="M237.468538,37.7045455 L237.468538,27.8863636 L239.37976,27.8863636 L239.37976,37.7045455 L237.468538,37.7045455 Z M238.433737,26.3714489 C238.101351,26.3714489 237.816905,26.2595881 237.580399,26.0358665 C237.343893,25.8121449 237.225641,25.5447443 237.225641,25.2336648 C237.225641,24.9183239 237.343893,24.6487926 237.580399,24.425071 C237.816905,24.2013494 238.101351,24.0894886 238.433737,24.0894886 C238.766124,24.0894886 239.05057,24.2013494 239.287075,24.425071 C239.523581,24.6487926 239.641834,24.9183239 239.641834,25.2336648 C239.641834,25.5447443 239.523581,25.8121449 239.287075,26.0358665 C239.05057,26.2595881 238.766124,26.3714489 238.433737,26.3714489 Z" id="Shape"></path>
                    <path d="M243.859318,31.875 L243.859318,37.7045455 L241.946798,37.7045455 L241.946798,27.8863636 L243.782614,27.8863636 L243.782614,29.4869718 L243.905361,29.4869718 C244.132079,28.963623 244.486837,28.544711 244.969636,28.2302357 C245.452436,27.9157604 246.062443,27.7585227 246.799659,27.7585227 C247.470424,27.7585227 248.056578,27.8985152 248.558121,28.1785001 C249.059663,28.458485 249.449578,28.8729026 249.727865,29.4217529 C250.006152,29.9706032 250.144863,30.6502907 250.144001,31.4608154 L250.144001,37.7045455 L248.231477,37.7045455 L248.231477,31.6909291 C248.232343,30.9767512 248.047623,30.4189453 247.677317,30.0175115 C247.307011,29.6160778 246.797994,29.4153609 246.150267,29.4153609 C245.707085,29.4153609 245.313126,29.511458 244.968388,29.7036521 C244.62365,29.8958463 244.352837,30.1753817 244.155949,30.5422585 C243.959061,30.9091353 243.860184,31.3533825 243.859318,31.875 Z" id="Path"></path>
                    <path d="M256.817266,41.5704346 C256.037437,41.5704346 255.36777,41.468811 254.808266,41.265564 C254.248762,41.0623169 253.791515,40.793002 253.436523,40.4576194 C253.081532,40.1222368 252.817544,39.7585227 252.644559,39.3664773 L254.286016,38.6915172 C254.401939,38.8696289 254.557062,39.0628718 254.751387,39.2712458 C254.945712,39.4796198 255.210133,39.6583807 255.54465,39.8075284 C255.879167,39.9566761 256.310197,40.03125 256.837741,40.03125 C257.563038,40.03125 258.161976,39.8565341 258.634555,39.5071023 C259.107133,39.1576705 259.343422,38.6028276 259.343422,37.8425737 L259.343422,35.9147727 L259.220675,35.9147727 C259.106484,36.1244451 258.942005,36.3573386 258.727239,36.6134533 C258.512473,36.8695679 258.217157,37.090726 257.841292,37.2769276 C257.465426,37.4631292 256.9775,37.55623 256.377513,37.55623 C255.603676,37.55623 254.906744,37.3738403 254.286715,37.0090609 C253.666687,36.6442816 253.175764,36.1052191 252.813948,35.3918734 C252.452132,34.6785278 252.271223,33.7994052 252.271223,32.7545055 C252.271223,31.7130682 252.449568,30.8190474 252.806258,30.0724432 C253.162947,29.325839 253.652155,28.7535345 254.273881,28.3555298 C254.895608,27.9575251 255.601945,27.7585227 256.392894,27.7585227 C257.001404,27.7585227 257.493158,27.8597301 257.868158,28.0621449 C258.243158,28.2645597 258.536343,28.5002164 258.747714,28.7691151 C258.959084,29.0380138 259.121865,29.2738703 259.236056,29.4766846 L259.374084,29.4766846 L259.374084,27.8863636 L261.245755,27.8863636 L261.245755,37.9244718 C261.245755,38.7588335 261.050365,39.4451127 260.659585,39.9833097 C260.268804,40.5215066 259.739313,40.9205766 259.071111,41.1805198 C258.40291,41.440463 257.651628,41.5704346 256.817266,41.5704346 Z M256.801985,35.9710028 C257.350835,35.9710028 257.815524,35.8420965 258.19605,35.584284 C258.576577,35.3264715 258.866349,34.9557329 259.065368,34.4720681 C259.264387,33.9884033 259.363897,33.4090909 259.363897,32.7341309 C259.363897,32.0710227 259.266102,31.4882646 259.070512,30.9858565 C258.874922,30.4834484 258.586847,30.0909868 258.206288,29.8084717 C257.825728,29.5259566 257.357627,29.384699 256.801985,29.384699 C256.225835,29.384699 255.745367,29.5327814 255.360579,29.8289462 C254.975791,30.125111 254.686867,30.5260953 254.493808,31.0318992 C254.300748,31.5377031 254.204218,32.1051136 254.204218,32.7341309 C254.204218,33.3767312 254.302446,33.9407127 254.498901,34.4260753 C254.695357,34.911438 254.985978,35.2902666 255.370766,35.562561 C255.755554,35.8348555 256.232627,35.9710028 256.801985,35.9710028 Z" id="Shape"></path>
                </g>
                <g id="7%---Strategic-Partn" transform="translate(321.307994, 97.089489)" fill="#000000" fill-rule="nonzero">
                    <polygon id="Path" points="0.894886364 13.6150568 6.60677823 2.31392045 6.60677823 2.21674139 -1.13686838e-13 2.21674139 -1.13686838e-13 0.524147727 8.65223278 0.524147727 8.65223278 2.27816495 2.95562189 13.6150568"></polygon>
                    <path d="M17.7085315,11.1605114 L17.7085315,10.4701705 C17.7093305,9.97758345 17.813068,9.52502996 18.0197442,9.11250999 C18.2264203,8.69999001 18.5281282,8.36886874 18.9248678,8.11914617 C19.3216074,7.86942361 19.8042235,7.74456232 20.372716,7.74456232 C20.9513959,7.74456232 21.4371914,7.86900746 21.8301024,8.11789773 C22.2230134,8.366788 22.5200272,8.69747647 22.7211435,9.10996316 C22.9222599,9.52244984 23.0224186,9.97585227 23.0216244,10.4701705 L23.0216244,11.1605114 C23.0224186,11.6530984 22.9211946,12.1056519 22.7179475,12.5181718 C22.5147005,12.9306918 22.2155561,13.2618131 21.8205143,13.5115356 C21.4254726,13.7612582 20.9428732,13.8861195 20.372716,13.8861195 C19.7957008,13.8861195 19.3096889,13.7612582 18.9146805,13.5115356 C18.519672,13.2618131 18.2200949,12.9306918 18.0159489,12.5181718 C17.811803,12.1056519 17.7093305,11.6530984 17.7085315,11.1605114 Z M19.1965797,10.4701705 L19.1965797,11.1605114 C19.1983109,11.526123 19.2858852,11.8578602 19.4593027,12.1557229 C19.6327203,12.4535855 19.9371914,12.6025169 20.372716,12.6025169 C20.8013826,12.6025169 21.1015923,12.4542347 21.2733453,12.1576705 C21.4450982,11.8611062 21.5301091,11.5287198 21.5283779,11.1605114 L21.5283779,10.4701705 C21.5301091,10.101962 21.4482942,9.76871005 21.2829333,9.4704146 C21.1175724,9.17211914 20.8141667,9.02297141 20.372716,9.02297141 C19.9474453,9.02297141 19.6455376,9.17211914 19.4669932,9.4704146 C19.2884487,9.76871005 19.1983109,10.101962 19.1965797,10.4701705 Z M11.1221279,3.66903409 L11.1221279,2.97869318 C11.1229935,2.484375 11.2269807,2.03097257 11.4340897,1.61848588 C11.6411986,1.2059992 11.9433226,0.875310724 12.3404617,0.626420455 C12.7376008,0.377530185 13.2195511,0.25308505 13.7863125,0.25308505 C14.3649923,0.25308505 14.8507878,0.377530185 15.2436988,0.626420455 C15.6366099,0.875310724 15.9336402,1.2059992 16.1347899,1.61848588 C16.3359396,2.03097257 16.4360816,2.484375 16.4352216,2.97869318 L16.4352216,3.66903409 C16.4360816,4.16335227 16.3348742,4.61633856 16.1315939,5.02799294 C15.9283135,5.43964733 15.6291525,5.76947021 15.2341107,6.0174616 C14.839069,6.26545299 14.3564696,6.38944869 13.7863125,6.38944869 C13.2093638,6.38944869 12.7233686,6.2650202 12.3283268,6.01616322 C11.9332851,5.76730624 11.6337079,5.43705056 11.4295953,5.02539617 C11.2254826,4.61374179 11.1229935,4.16162109 11.1221279,3.66903409 Z M12.6153696,2.97869318 L12.6153696,3.66903409 C12.6170342,4.03724254 12.7043755,4.36962891 12.8773935,4.66619318 C13.0504116,4.96275746 13.3533845,5.1110396 13.7863125,5.1110396 C14.2150456,5.1110396 14.515272,4.96275746 14.6869916,4.66619318 C14.8587112,4.36962891 14.9437055,4.03724254 14.9419743,3.66903409 L14.9419743,2.97869318 C14.9437055,2.61048473 14.8619073,2.27723278 14.6965797,1.97893732 C14.5312521,1.68064187 14.2278297,1.53149414 13.7863125,1.53149414 C13.3610417,1.53149414 13.059983,1.68129106 12.8831364,1.9808849 C12.7062898,2.28047874 12.6170342,2.6130815 12.6153696,2.97869318 Z M11.653966,13.6150568 L20.653966,0.524147727 L22.1829633,0.524147727 L13.1829633,13.6150568 L11.653966,13.6150568 Z" id="Shape"></path>
                    <polygon id="Path" points="36.3553656 6.24502841 36.3553656 7.90056818 30.5513883 7.90056818 30.5513883 6.24502841"></polygon>
                    <path d="M50.9624129,3.96047141 C50.8942311,3.35708896 50.6136303,2.8883556 50.1206105,2.55427135 C49.6275907,2.2201871 49.0065136,2.05314498 48.2573792,2.05314498 C47.7204474,2.05314498 47.2557423,2.13687411 46.8632641,2.30433239 C46.4707858,2.47179066 46.1671637,2.7016879 45.9523976,2.9940241 C45.7376315,3.28636031 45.6298157,3.61876332 45.6289501,3.99123313 C45.6272189,4.30231268 45.7002947,4.57012939 45.8481773,4.79468328 C45.9960599,5.01923717 46.1901684,5.20715332 46.4305026,5.35843173 C46.6708369,5.50971014 46.9294983,5.63520397 47.206487,5.73491322 C47.4834756,5.83462247 47.7502436,5.91643732 48.006791,5.98035778 L49.2852001,6.31274414 C49.7028138,6.41501687 50.1310808,6.55437678 50.5700013,6.73082386 C51.0089217,6.90727095 51.4154491,7.13760099 51.7895836,7.42181396 C52.163718,7.70602694 52.4669073,8.05907093 52.6991516,8.48094593 C52.931396,8.90282093 53.0479509,9.40909091 53.0488165,9.99975586 C53.0479509,10.7377708 52.8574713,11.3948531 52.4773776,11.9710028 C52.097284,12.5471524 51.5460866,13.0009877 50.8237854,13.3325084 C50.1014843,13.6640292 49.2272389,13.8297896 48.2010493,13.8297896 C47.2235324,13.8297896 46.376603,13.6751154 45.6602612,13.365767 C44.9439193,13.0564187 44.3831172,12.6151678 43.9778548,12.0420144 C43.5725925,11.468861 43.3490873,10.786377 43.3073392,9.99456232 L45.2914701,9.99456232 C45.3298224,10.4701705 45.4836476,10.8639304 45.7529458,11.1758423 C46.022244,11.4877541 46.3693288,11.7199984 46.7942,11.8725752 C47.2190713,12.025152 47.6846253,12.1014404 48.190862,12.1014404 C48.7508318,12.1014404 49.2489952,12.0128007 49.6853522,11.8355214 C50.1217091,11.658242 50.4655978,11.4106501 50.7170183,11.0927457 C50.9684388,10.7748413 51.0945485,10.4036865 51.0953475,9.97928134 C51.0945485,9.59149725 50.9844189,9.27337646 50.7649586,9.02491899 C50.5454984,8.77646151 50.2486844,8.57191606 49.8745167,8.41128263 C49.500349,8.25064919 49.0806214,8.1085427 48.6153337,7.98496316 L47.065862,7.56049139 C46.0158353,7.27498002 45.185502,6.85501931 44.5748619,6.30060924 C43.9642218,5.74619917 43.6593345,5.01389382 43.6602001,4.10369318 C43.6593345,3.351163 43.8632308,2.69343151 44.2718889,2.13049871 C44.680547,1.56756592 45.2349571,1.12927801 45.9351191,0.815634988 C46.6352811,0.501991966 47.4229842,0.345170455 48.2982284,0.345170455 C49.184592,0.345170455 49.9674178,0.500710227 50.6467058,0.811789773 C51.3259938,1.12286932 51.8618603,1.55050382 52.2543052,2.09469327 C52.6467502,2.63888272 52.8519282,3.26080877 52.8698392,3.96047141 L50.9624129,3.96047141 Z" id="Path"></path>
                    <path d="M59.8397718,3.796875 L59.8397718,5.33096591 L54.4755473,5.33096591 L54.4755473,3.796875 L59.8397718,3.796875 Z M55.9124425,1.44460227 L57.8249791,1.44460227 L57.8249791,10.7335427 C57.8249791,11.1016846 57.879944,11.3792891 57.9898739,11.5663563 C58.0998038,11.7534235 58.2438412,11.8795665 58.4219861,11.9447854 C58.6001311,12.0100042 58.7931742,12.0426136 59.0011155,12.0426136 C59.1553901,12.0426136 59.2894067,12.0323764 59.4031651,12.0119019 C59.5169236,11.9914273 59.6061958,11.9743985 59.6709818,11.9608154 L60.0187491,13.540949 C59.9053568,13.5809659 59.7461716,13.6239957 59.5411934,13.6700384 C59.3362151,13.7160811 59.0811825,13.7412331 58.7760955,13.7454945 C58.2732546,13.7540172 57.8040718,13.6638794 57.3685471,13.475081 C56.9330224,13.2862826 56.5810271,12.9962935 56.3125612,12.6051136 C56.0440953,12.2139338 55.9107279,11.7213135 55.9124425,11.1272528 L55.9124425,1.44460227 Z" id="Shape"></path>
                    <path d="M61.9465391,13.6150568 L61.9465391,3.796875 L63.7977354,3.796875 L63.7977354,5.35653409 L63.9000081,5.35653409 C64.0789854,4.82985618 64.3949588,4.41352428 64.8479285,4.1075384 C65.3008981,3.80155251 65.815025,3.64855957 66.3903091,3.64855957 C66.5096273,3.64855957 66.6509014,3.65260454 66.8141317,3.66069447 C66.9773619,3.6687844 67.107117,3.6805198 67.2033972,3.69590066 L67.2033972,5.52532404 C67.1275583,5.50315163 66.9916274,5.4779996 66.7956047,5.44986794 C66.599582,5.42173628 66.4031265,5.40767045 66.2062381,5.40767045 C65.7553992,5.40767045 65.3533495,5.5024858 65.0000891,5.69211648 C64.6468287,5.88174716 64.368342,6.14340487 64.1646288,6.47708962 C63.9609157,6.81077437 63.8590591,7.19238281 63.8590591,7.62191495 L63.8590591,13.6150568 L61.9465391,13.6150568 Z" id="Path"></path>
                    <path d="M71.7238452,13.8297896 C71.1008205,13.8297896 70.5385369,13.714533 70.0369944,13.4840199 C69.5354519,13.2535067 69.1380797,12.9162265 68.8448779,12.4721791 C68.5516761,12.0281317 68.4050752,11.4852406 68.4050752,10.8435059 C68.4050752,10.2860662 68.5120421,9.82858554 68.7259759,9.47106379 C68.9399097,9.11354204 69.2279845,8.83037775 69.5902004,8.62157093 C69.9524163,8.41276412 70.3570295,8.25552646 70.8040399,8.14985795 C71.2510503,8.04418945 71.7076654,7.96365634 72.1738852,7.90825861 C72.7610878,7.83834561 73.2372785,7.78101696 73.6024574,7.73627264 C73.9676363,7.69152832 74.2341713,7.61866899 74.4020623,7.51769465 C74.5699534,7.4167203 74.6538989,7.25031072 74.6538989,7.01846591 L74.6538989,6.97242321 C74.6538989,6.41678134 74.4970941,5.98555131 74.1834843,5.67873313 C73.8698746,5.37191495 73.4045537,5.21850586 72.7875215,5.21850586 C72.1440556,5.21850586 71.6375859,5.35933061 71.2681124,5.64098011 C70.8986388,5.92262962 70.6431567,6.23690518 70.5016662,6.58380682 L68.7067998,6.17471591 C68.9198679,5.578125 69.23158,5.09552557 69.641936,4.72691761 C70.052292,4.35830966 70.5263687,4.08984375 71.0641662,3.92151989 C71.6019636,3.75319602 72.1661615,3.66903409 72.7567598,3.66903409 C73.1496709,3.66903409 73.5664522,3.71527654 74.0071038,3.80776145 C74.4477555,3.90024636 74.8615405,4.06772128 75.248459,4.31018621 C75.6353775,4.55265115 75.9517838,4.89867054 76.1976778,5.34824441 C76.4435718,5.79781827 76.5665188,6.38012695 76.5665188,7.09517045 L76.5665188,13.6150568 L74.6999416,13.6150568 L74.6999416,12.275324 L74.6232371,12.275324 C74.5022543,12.5190208 74.3183831,12.7606201 74.0716235,13.0001221 C73.824864,13.239624 73.5073924,13.4377774 73.1192088,13.5945823 C72.7310252,13.7513872 72.265904,13.8297896 71.7238452,13.8297896 Z M72.1380298,12.3007923 C72.6690357,12.3007923 73.1226711,12.1959728 73.4989362,11.9863337 C73.8752013,11.7766946 74.162627,11.5027022 74.3612132,11.1643566 C74.5597994,10.826011 74.6590925,10.4633789 74.6590925,10.0764604 L74.6590925,8.80823864 C74.5891795,8.87728604 74.4577097,8.93992476 74.2646833,8.99615479 C74.0716568,9.05238481 73.8517805,9.10139049 73.6050542,9.14317183 C73.3583279,9.18495317 73.117128,9.22117476 72.8814546,9.2518366 C72.6457813,9.28249845 72.4491093,9.30848278 72.2914389,9.3297896 C71.923297,9.37926136 71.5864495,9.45874578 71.2808964,9.56824285 C70.9753434,9.67773992 70.7315967,9.83582653 70.5496564,10.0425027 C70.3677162,10.2491788 70.2767461,10.5229714 70.2767461,10.8638805 C70.2767461,11.3377575 70.4518781,11.695712 70.8021422,11.9377441 C71.1524063,12.1797763 71.5977022,12.3007923 72.1380298,12.3007923 Z" id="Shape"></path>
                    <path d="M83.7000275,3.796875 L83.7000275,5.33096591 L78.3358029,5.33096591 L78.3358029,3.796875 L83.7000275,3.796875 Z M79.7726982,1.44460227 L81.6852348,1.44460227 L81.6852348,10.7335427 C81.6852348,11.1016846 81.7401997,11.3792891 81.8501296,11.5663563 C81.9600594,11.7534235 82.1040968,11.8795665 82.2822418,11.9447854 C82.4603868,12.0100042 82.6534299,12.0426136 82.8613711,12.0426136 C83.0156458,12.0426136 83.1496624,12.0323764 83.2634208,12.0119019 C83.3771792,11.9914273 83.4664515,11.9743985 83.5312375,11.9608154 L83.8790047,13.540949 C83.7656125,13.5809659 83.6064273,13.6239957 83.401449,13.6700384 C83.1964708,13.7160811 82.9414382,13.7412331 82.6363512,13.7454945 C82.1335102,13.7540172 81.6643274,13.6638794 81.2288028,13.475081 C80.7932781,13.2862826 80.4412828,12.9962935 80.1728169,12.6051136 C79.904351,12.2139338 79.7709836,11.7213135 79.7726982,11.1272528 L79.7726982,1.44460227 Z" id="Shape"></path>
                    <path d="M90.0409256,13.8145086 C89.0744617,13.8145086 88.2419976,13.6063343 87.5435335,13.1899858 C86.8450694,12.7736373 86.3077048,12.187267 85.9314397,11.4308749 C85.5551746,10.6744829 85.367042,9.78835227 85.367042,8.77248313 C85.367042,7.76507013 85.555391,6.87784091 85.9320889,6.11079545 C86.3087867,5.34375 86.836763,4.74502841 87.5160177,4.31463068 C88.1952724,3.88423295 88.9908657,3.66903409 89.9027975,3.66903409 C90.4602372,3.66903409 90.9984674,3.76022061 91.5174881,3.94259366 C92.0365089,4.12496671 92.5022793,4.41239236 92.9147993,4.80487061 C93.3273192,5.19734885 93.6537463,5.70638206 93.8940806,6.33197021 C94.1344148,6.95755837 94.254582,7.71479936 94.254582,8.60369318 L94.254582,9.27865323 L86.4459993,9.27865323 L86.4459993,7.84683505 L92.3778175,7.84683505 C92.3769519,7.3474565 92.2748956,6.90237704 92.0716485,6.51159668 C91.8684014,6.12081632 91.5824739,5.8127164 91.213866,5.58729692 C90.845258,5.36187744 90.4133622,5.2491677 89.9181784,5.2491677 C89.380381,5.2491677 88.9129127,5.37977184 88.5157736,5.64098011 C88.1186345,5.90218839 87.8120327,6.24331388 87.5959682,6.66435658 C87.3799038,7.08539928 87.2710393,7.54094904 87.2693747,8.03100586 L87.2693747,9.14571866 C87.2693747,9.80196866 87.3856966,10.3602073 87.6183404,10.8204346 C87.8509842,11.2806618 88.176113,11.6313754 88.5937266,11.8725752 C89.0113402,12.1137751 89.4988336,12.234375 90.0562066,12.234375 C90.4218849,12.234375 90.7536553,12.1823897 91.051518,12.0784191 C91.3493807,11.9744485 91.606544,11.8182761 91.8230079,11.6099021 C92.0394719,11.4015281 92.2056651,11.1426336 92.3215875,10.8332187 L94.1318347,11.1605114 C93.9869484,11.6923162 93.7282869,12.1574374 93.3558504,12.5558749 C92.9834139,12.9543124 92.5161454,13.2636941 91.9540449,13.4840199 C91.3919444,13.7043457 90.754238,13.8145086 90.0409256,13.8145086 Z" id="Path"></path>
                    <path d="M100.498278,17.4809459 C99.7184481,17.4809459 99.0487815,17.3793224 98.4892778,17.1760753 C97.929774,16.9728283 97.4725264,16.7035134 97.1175348,16.3681308 C96.7625432,16.0327481 96.4985551,15.6690341 96.3255704,15.2769886 L97.9670277,14.6020286 C98.0829501,14.7801403 98.2380737,14.9733831 98.4323985,15.1817571 C98.6267234,15.3901312 98.8911443,15.568892 99.2256614,15.7180398 C99.5601784,15.8671875 99.9912087,15.9417614 100.518752,15.9417614 C101.24405,15.9417614 101.842988,15.7670455 102.315566,15.4176136 C102.788145,15.0681818 103.024434,14.513339 103.024434,13.753085 L103.024434,11.8252841 L102.901687,11.8252841 C102.787496,12.0349565 102.623017,12.26785 102.408251,12.5239646 C102.193485,12.7800792 101.898169,13.0012373 101.522303,13.187439 C101.146438,13.3736406 100.658512,13.4667414 100.058525,13.4667414 C99.2846879,13.4667414 98.5877552,13.2843517 97.9677268,12.9195723 C97.3476984,12.5547929 96.856776,12.0157304 96.4949596,11.3023848 C96.1331432,10.5890392 95.952235,9.70991655 95.952235,8.66501687 C95.952235,7.62357955 96.1305797,6.72955877 96.4872691,5.98295455 C96.8439586,5.23635032 97.3331665,4.66404585 97.9548928,4.26604115 C98.5766191,3.86803644 99.2829567,3.66903409 100.073906,3.66903409 C100.682415,3.66903409 101.17417,3.77024148 101.54917,3.97265625 C101.92417,4.17507102 102.217355,4.41072776 102.428725,4.67962646 C102.640096,4.94852517 102.802876,5.18438166 102.917068,5.38719593 L103.055096,5.38719593 L103.055096,3.796875 L104.926767,3.796875 L104.926767,13.8349831 C104.926767,14.6693448 104.731376,15.3556241 104.340596,15.893821 C103.949816,16.4320179 103.420325,16.831088 102.752123,17.0910312 C102.083921,17.3509743 101.332639,17.4809459 100.498278,17.4809459 Z M100.482997,11.8815141 C101.031847,11.8815141 101.496535,11.7526079 101.877062,11.4947954 C102.257588,11.2369829 102.547361,10.8662442 102.74638,10.3825795 C102.945399,9.89891468 103.044909,9.31960227 103.044909,8.64464222 C103.044909,7.98153409 102.947114,7.39877597 102.751524,6.89636785 C102.555934,6.39395974 102.267859,6.00149814 101.887299,5.71898304 C101.506739,5.43646795 101.038639,5.2952104 100.482997,5.2952104 C99.906847,5.2952104 99.4263783,5.44329279 99.0415904,5.73945756 C98.6568026,6.03562234 98.3678788,6.43660667 98.1748191,6.94241056 C97.9817593,7.44821444 97.8852295,8.015625 97.8852295,8.64464222 C97.8852295,9.28724254 97.9834572,9.85122403 98.1799127,10.3365867 C98.3763683,10.8219494 98.6669899,11.2007779 99.0517778,11.4730724 C99.4365656,11.7453669 99.9136385,11.8815141 100.482997,11.8815141 Z" id="Shape"></path>
                    <path d="M107.495039,13.6150568 L107.495039,3.796875 L109.406261,3.796875 L109.406261,13.6150568 L107.495039,13.6150568 Z M108.460238,2.28196023 C108.127852,2.28196023 107.843406,2.17009943 107.6069,1.94637784 C107.370394,1.72265625 107.252142,1.45525568 107.252142,1.14417614 C107.252142,0.828835227 107.370394,0.559303977 107.6069,0.335582386 C107.843406,0.111860795 108.127852,0 108.460238,0 C108.792625,0 109.077071,0.111860795 109.313576,0.335582386 C109.550082,0.559303977 109.668335,0.828835227 109.668335,1.14417614 C109.668335,1.45525568 109.550082,1.72265625 109.313576,1.94637784 C109.077071,2.17009943 108.792625,2.28196023 108.460238,2.28196023 Z" id="Shape"></path>
                    <path d="M116.110251,13.8145086 C115.160832,13.8145086 114.344365,13.5982444 113.660849,13.165716 C112.977333,12.7331876 112.451904,12.1357477 112.084561,11.3733964 C111.717218,10.6110451 111.533546,9.7372492 111.533546,8.75200861 C111.533546,7.75311834 111.721479,6.87164862 112.097345,6.10759943 C112.47321,5.34355025 113.002052,4.7461104 113.68387,4.31527987 C114.365689,3.88444935 115.167657,3.66903409 116.089776,3.66903409 C116.83465,3.66903409 117.499206,3.80603027 118.083445,4.08002264 C118.667685,4.354015 119.140064,4.73838667 119.500582,5.23313765 C119.8611,5.72788863 120.075883,6.30595259 120.14493,6.96732955 L118.283546,6.96732955 C118.182139,6.50623668 117.94883,6.10971347 117.583617,5.7777599 C117.218405,5.44580633 116.730679,5.27982955 116.120438,5.27982955 C115.588633,5.27982955 115.123313,5.4193892 114.724476,5.69850852 C114.325639,5.97762784 114.015425,6.37350186 113.793834,6.88613059 C113.572243,7.39875932 113.461447,8.00537109 113.461447,8.70596591 C113.461447,9.42014382 113.570528,10.0378252 113.78869,10.5590099 C114.006852,11.0801946 114.315368,11.4828935 114.714238,11.7671065 C115.113109,12.0513195 115.581842,12.193426 116.120438,12.193426 C116.486117,12.193426 116.816822,12.1267423 117.112554,11.9933749 C117.408286,11.8600075 117.657359,11.6673972 117.859774,11.415544 C118.062189,11.1636907 118.203446,10.8604847 118.283546,10.505926 L120.14493,10.505926 C120.074218,11.1426003 119.866693,11.7100109 119.522355,12.2081576 C119.178017,12.7063044 118.716707,13.0985662 118.138427,13.3849432 C117.560147,13.6713201 116.884088,13.8145086 116.110251,13.8145086 Z" id="Path"></path>
                    <path d="M127.114769,13.6150568 L127.114769,0.524147727 L131.783559,0.524147727 C132.799428,0.524147727 133.64188,0.70994984 134.310914,1.08155407 C134.979948,1.45315829 135.481091,1.95897883 135.814343,2.59901567 C136.147595,3.23905251 136.314221,3.96050471 136.314221,4.76337225 C136.314221,5.56790439 136.147395,6.29105447 135.813744,6.93282249 C135.480092,7.57459051 134.977684,8.08169278 134.306519,8.45412931 C133.635354,8.82656583 132.79267,9.01278409 131.778465,9.01278409 L128.567062,9.01278409 L128.567062,7.33547141 L131.594294,7.33547141 C132.240357,7.33547141 132.763456,7.22361062 133.163592,6.99988903 C133.563727,6.77616744 133.857328,6.47084739 134.044395,6.08392889 C134.231463,5.69701039 134.324996,5.25682484 134.324996,4.76337225 C134.324996,4.26905407 134.231463,3.82991721 134.044395,3.44596169 C133.857328,3.06200617 133.562012,2.76114724 133.158448,2.5433849 C132.754884,2.32562256 132.226707,2.21674139 131.57392,2.21674139 L129.093806,2.21674139 L129.093806,13.6150568 L127.114769,13.6150568 Z" id="Path"></path>
                    <path d="M141.325589,13.8297896 C140.702564,13.8297896 140.140281,13.714533 139.638738,13.4840199 C139.137196,13.2535067 138.739824,12.9162265 138.446622,12.4721791 C138.15342,12.0281317 138.006819,11.4852406 138.006819,10.8435059 C138.006819,10.2860662 138.113786,9.82858554 138.32772,9.47106379 C138.541654,9.11354204 138.829728,8.83037775 139.191944,8.62157093 C139.55416,8.41276412 139.958773,8.25552646 140.405784,8.14985795 C140.852794,8.04418945 141.309409,7.96365634 141.775629,7.90825861 C142.362832,7.83834561 142.839022,7.78101696 143.204201,7.73627264 C143.56938,7.69152832 143.835915,7.61866899 144.003806,7.51769465 C144.171697,7.4167203 144.255643,7.25031072 144.255643,7.01846591 L144.255643,6.97242321 C144.255643,6.41678134 144.098838,5.98555131 143.785228,5.67873313 C143.471618,5.37191495 143.006298,5.21850586 142.389265,5.21850586 C141.745799,5.21850586 141.23933,5.35933061 140.869856,5.64098011 C140.500383,5.92262962 140.244901,6.23690518 140.10341,6.58380682 L138.308544,6.17471591 C138.521612,5.578125 138.833324,5.09552557 139.24368,4.72691761 C139.654036,4.35830966 140.128113,4.08984375 140.66591,3.92151989 C141.203707,3.75319602 141.767905,3.66903409 142.358504,3.66903409 C142.751415,3.66903409 143.168196,3.71527654 143.608848,3.80776145 C144.049499,3.90024636 144.463284,4.06772128 144.850203,4.31018621 C145.237121,4.55265115 145.553528,4.89867054 145.799422,5.34824441 C146.045316,5.79781827 146.168263,6.38012695 146.168263,7.09517045 L146.168263,13.6150568 L144.301686,13.6150568 L144.301686,12.275324 L144.224981,12.275324 C144.103998,12.5190208 143.920127,12.7606201 143.673367,13.0001221 C143.426608,13.239624 143.109136,13.4377774 142.720953,13.5945823 C142.332769,13.7513872 141.867648,13.8297896 141.325589,13.8297896 Z M141.739774,12.3007923 C142.27078,12.3007923 142.724415,12.1959728 143.10068,11.9863337 C143.476945,11.7766946 143.764371,11.5027022 143.962957,11.1643566 C144.161543,10.826011 144.260836,10.4633789 144.260836,10.0764604 L144.260836,8.80823864 C144.190923,8.87728604 144.059454,8.93992476 143.866427,8.99615479 C143.673401,9.05238481 143.453524,9.10139049 143.206798,9.14317183 C142.960072,9.18495317 142.718872,9.22117476 142.483199,9.2518366 C142.247525,9.28249845 142.050853,9.30848278 141.893183,9.3297896 C141.525041,9.37926136 141.188193,9.45874578 140.88264,9.56824285 C140.577087,9.67773992 140.333341,9.83582653 140.1514,10.0425027 C139.96946,10.2491788 139.87849,10.5229714 139.87849,10.8638805 C139.87849,11.3377575 140.053622,11.695712 140.403886,11.9377441 C140.75415,12.1797763 141.199446,12.3007923 141.739774,12.3007923 Z" id="Shape"></path>
                    <path d="M148.71478,13.6150568 L148.71478,3.796875 L150.565976,3.796875 L150.565976,5.35653409 L150.668249,5.35653409 C150.847226,4.82985618 151.163199,4.41352428 151.616169,4.1075384 C152.069139,3.80155251 152.583265,3.64855957 153.15855,3.64855957 C153.277868,3.64855957 153.419142,3.65260454 153.582372,3.66069447 C153.745602,3.6687844 153.875358,3.6805198 153.971638,3.69590066 L153.971638,5.52532404 C153.895799,5.50315163 153.759868,5.4779996 153.563845,5.44986794 C153.367822,5.42173628 153.171367,5.40767045 152.974479,5.40767045 C152.52364,5.40767045 152.12159,5.5024858 151.76833,5.69211648 C151.415069,5.88174716 151.136582,6.14340487 150.932869,6.47708962 C150.729156,6.81077437 150.6273,7.19238281 150.6273,7.62191495 L150.6273,13.6150568 L148.71478,13.6150568 Z" id="Path"></path>
                    <path d="M160.220535,3.796875 L160.220535,5.33096591 L154.85631,5.33096591 L154.85631,3.796875 L160.220535,3.796875 Z M156.293205,1.44460227 L158.205742,1.44460227 L158.205742,10.7335427 C158.205742,11.1016846 158.260707,11.3792891 158.370637,11.5663563 C158.480567,11.7534235 158.624604,11.8795665 158.802749,11.9447854 C158.980894,12.0100042 159.173937,12.0426136 159.381878,12.0426136 C159.536153,12.0426136 159.67017,12.0323764 159.783928,12.0119019 C159.897687,11.9914273 159.986959,11.9743985 160.051745,11.9608154 L160.399512,13.540949 C160.28612,13.5809659 160.126935,13.6239957 159.921956,13.6700384 C159.716978,13.7160811 159.461945,13.7412331 159.156858,13.7454945 C158.654018,13.7540172 158.184835,13.6638794 157.74931,13.475081 C157.313785,13.2862826 156.96179,12.9962935 156.693324,12.6051136 C156.424858,12.2139338 156.291491,11.7213135 156.293205,11.1272528 L156.293205,1.44460227 Z" id="Shape"></path>
                    <path d="M164.239822,7.78551136 L164.239822,13.6150568 L162.327302,13.6150568 L162.327302,3.796875 L164.163117,3.796875 L164.163117,5.39748313 L164.285865,5.39748313 C164.512583,4.87413441 164.867341,4.45522239 165.35014,4.14074707 C165.832939,3.82627175 166.442947,3.66903409 167.180163,3.66903409 C167.850928,3.66903409 168.437082,3.80902654 168.938625,4.08901145 C169.440167,4.36899636 169.830082,4.78341397 170.108369,5.33226429 C170.386656,5.88111461 170.525367,6.56080211 170.524505,7.37132679 L170.524505,13.6150568 L168.611981,13.6150568 L168.611981,7.60144043 C168.612847,6.88726252 168.428127,6.32945668 168.057821,5.9280229 C167.687515,5.52658913 167.178498,5.32587225 166.530771,5.32587225 C166.087589,5.32587225 165.69363,5.42196933 165.348892,5.61416349 C165.004154,5.80635764 164.733341,6.08589311 164.536453,6.45276989 C164.339565,6.81964666 164.240688,7.26389382 164.239822,7.78551136 Z" id="Path"></path>
                    <path d="M177.315424,13.8145086 C176.34896,13.8145086 175.516496,13.6063343 174.818031,13.1899858 C174.119567,12.7736373 173.582203,12.187267 173.205938,11.4308749 C172.829673,10.6744829 172.64154,9.78835227 172.64154,8.77248313 C172.64154,7.76507013 172.829889,6.87784091 173.206587,6.11079545 C173.583285,5.34375 174.111261,4.74502841 174.790516,4.31463068 C175.46977,3.88423295 176.265364,3.66903409 177.177296,3.66903409 C177.734735,3.66903409 178.272965,3.76022061 178.791986,3.94259366 C179.311007,4.12496671 179.776777,4.41239236 180.189297,4.80487061 C180.601817,5.19734885 180.928244,5.70638206 181.168579,6.33197021 C181.408913,6.95755837 181.52908,7.71479936 181.52908,8.60369318 L181.52908,9.27865323 L173.720497,9.27865323 L173.720497,7.84683505 L179.652315,7.84683505 C179.65145,7.3474565 179.549394,6.90237704 179.346146,6.51159668 C179.142899,6.12081632 178.856972,5.8127164 178.488364,5.58729692 C178.119756,5.36187744 177.68786,5.2491677 177.192676,5.2491677 C176.654879,5.2491677 176.187411,5.37977184 175.790272,5.64098011 C175.393132,5.90218839 175.086531,6.24331388 174.870466,6.66435658 C174.654402,7.08539928 174.545537,7.54094904 174.543873,8.03100586 L174.543873,9.14571866 C174.543873,9.80196866 174.660195,10.3602073 174.892838,10.8204346 C175.125482,11.2806618 175.450611,11.6313754 175.868225,11.8725752 C176.285838,12.1137751 176.773332,12.234375 177.330705,12.234375 C177.696383,12.234375 178.028153,12.1823897 178.326016,12.0784191 C178.623879,11.9744485 178.881042,11.8182761 179.097506,11.6099021 C179.31397,11.4015281 179.480163,11.1426336 179.596085,10.8332187 L181.406333,11.1605114 C181.261446,11.6923162 181.002785,12.1574374 180.630348,12.5558749 C180.257912,12.9543124 179.790643,13.2636941 179.228543,13.4840199 C178.666442,13.7043457 178.028736,13.8145086 177.315424,13.8145086 Z" id="Path"></path>
                    <path d="M183.656298,13.6150568 L183.656298,3.796875 L185.507495,3.796875 L185.507495,5.35653409 L185.609767,5.35653409 C185.788745,4.82985618 186.104718,4.41352428 186.557688,4.1075384 C187.010657,3.80155251 187.524784,3.64855957 188.100068,3.64855957 C188.219387,3.64855957 188.360661,3.65260454 188.523891,3.66069447 C188.687121,3.6687844 188.816876,3.6805198 188.913157,3.69590066 L188.913157,5.52532404 C188.837318,5.50315163 188.701387,5.4779996 188.505364,5.44986794 C188.309341,5.42173628 188.112886,5.40767045 187.915997,5.40767045 C187.465158,5.40767045 187.063109,5.5024858 186.709848,5.69211648 C186.356588,5.88174716 186.078101,6.14340487 185.874388,6.47708962 C185.670675,6.81077437 185.568818,7.19238281 185.568818,7.62191495 L185.568818,13.6150568 L183.656298,13.6150568 Z" id="Path"></path>
                    <path d="M197.933605,6.19519043 L196.200062,6.50200861 C196.128484,6.28128329 196.014709,6.07034579 195.858737,5.86919611 C195.702764,5.66804643 195.492892,5.50333474 195.22912,5.37506104 C194.965348,5.24678733 194.634443,5.18265048 194.236405,5.18265048 C193.695279,5.18265048 193.243608,5.30368319 192.881392,5.54574862 C192.519176,5.78781405 192.338467,6.09804466 192.339266,6.47644043 C192.338467,6.80543102 192.460149,7.06920277 192.704312,7.26775568 C192.948475,7.46630859 193.339855,7.63037109 193.878451,7.75994318 L195.443304,8.11789773 C196.346713,8.32497337 197.019792,8.64648992 197.462541,9.0824474 C197.90529,9.51840487 198.127097,10.083252 198.127963,10.7769886 C198.127097,11.366788 197.956842,11.8903032 197.617198,12.3475342 C197.277554,12.8047652 196.806674,13.1635687 196.204556,13.4239446 C195.602439,13.6843206 194.905506,13.8145086 194.113758,13.8145086 C193.012595,13.8145086 192.114929,13.5792847 191.420759,13.1088368 C190.72659,12.6383889 190.299804,11.9684726 190.140403,11.0990878 L191.986505,10.8127441 C192.104958,11.2977406 192.342945,11.6627364 192.700467,11.9077315 C193.057989,12.1527266 193.523959,12.2752242 194.098377,12.2752242 C194.725663,12.2752242 195.22659,12.1439875 195.601157,11.8815141 C195.975724,11.6190407 196.163441,11.2986062 196.164306,10.9202104 C196.163441,10.6099299 196.049449,10.350819 195.822332,10.1428778 C195.595214,9.93493652 195.24555,9.77813166 194.773337,9.67246316 L193.116599,9.30422141 C192.196943,9.09887695 191.51937,8.76735618 191.083879,8.30965909 C190.648387,7.851962 190.431074,7.27498002 190.43194,6.57871316 C190.431074,5.9991677 190.592357,5.49141624 190.915788,5.05545876 C191.239219,4.61950129 191.686229,4.27944114 192.256819,4.03527832 C192.827409,3.7911155 193.482177,3.66903409 194.221124,3.66903409 C195.282204,3.66903409 196.117215,3.89829878 196.726157,4.35682817 C197.335099,4.81535756 197.737582,5.42814498 197.933605,6.19519043 Z" id="Path"></path>
                </g>
                <g id="Path-3">
                    <use fill="black" fill-opacity="1" filter="url(#filter-4)" xlink:href="#path-3"></use>
                    <use fill="url(#linearGradient-2)" fill-rule="evenodd" xlink:href="#path-3"></use>
                </g>
                <path d="M276.353837,78.6214109 C264.80062,70.6234351 256.083083,65.1559456 250.201227,62.2189425 L184.374121,204.811065 L303.236558,103.492465 C296.867961,94.9097381 287.907055,86.6193868 276.353837,78.6214109 Z" id="Path-3-Copy-2" fill="url(#linearGradient-5)" transform="translate(243.805340, 133.515004) rotate(33.000000) translate(-243.805340, -133.515004) "></path>
            </g>
        </g>
    </g>
</svg>