<svg enable-background="new 0 0 500 409.1" viewBox="0 0 500 409.1" xmlns="http://www.w3.org/2000/svg" xmlns:xlink="http://www.w3.org/1999/xlink"><linearGradient id="a"><stop offset=".00037858" stop-color="#0091ff"/><stop offset=".384" stop-color="#0292ff"/><stop offset=".5222" stop-color="#0994ff"/><stop offset=".6207" stop-color="#1499ff"/><stop offset=".7004" stop-color="#25a0ff"/><stop offset=".7686" stop-color="#3ba8ff"/><stop offset=".829" stop-color="#57b3ff"/><stop offset=".8836" stop-color="#77c0ff"/><stop offset=".9339" stop-color="#9dcfff"/><stop offset=".9786" stop-color="#c6dfff"/><stop offset=".9988" stop-color="#dbe7ff"/></linearGradient><linearGradient id="b" gradientUnits="userSpaceOnUse" x1="113.2914" x2="675.9581" xlink:href="#a" y1="241.4861" y2="-63.1806"/><linearGradient id="c" gradientUnits="userSpaceOnUse" x1="113.6841" x2="676.3508" xlink:href="#a" y1="242.2113" y2="-62.4554"/><linearGradient id="d" gradientUnits="userSpaceOnUse" x1="114.4839" x2="677.1505" xlink:href="#a" y1="243.6882" y2="-60.9784"/><linearGradient id="e" gradientUnits="userSpaceOnUse" x1="153.5348" x2="716.2015" xlink:href="#a" y1="315.8086" y2="11.1419"/><linearGradient id="f" gradientUnits="userSpaceOnUse" x1="110.2878" x2="672.9545" xlink:href="#a" y1="235.9389" y2="-68.7278"/><linearGradient id="g" gradientUnits="userSpaceOnUse" x1="124.7112" x2="687.3779" xlink:href="#a" y1="262.5764" y2="-42.0902"/><linearGradient id="h" gradientUnits="userSpaceOnUse" x1="125.8404" x2="688.5071" xlink:href="#a" y1="264.6619" y2="-40.0048"/><linearGradient id="i" gradientUnits="userSpaceOnUse" x1="110.2874" x2="672.954" xlink:href="#a" y1="235.938" y2="-68.7286"/><linearGradient id="j" gradientUnits="userSpaceOnUse" x1="62.8143" x2="625.4809" xlink:href="#a" y1="148.2634" y2="-156.4032"/><linearGradient id="k" gradientUnits="userSpaceOnUse" x1="67.6014" x2="630.2681" xlink:href="#a" y1="157.1045" y2="-147.5621"/><linearGradient id="l" gradientUnits="userSpaceOnUse" x1="79.7375" x2="642.4042" xlink:href="#a" y1="179.5178" y2="-125.1488"/><linearGradient id="m" gradientUnits="userSpaceOnUse" x1="118.2671" x2="680.9338" xlink:href="#a" y1="250.6752" y2="-53.9914"/><linearGradient id="n" gradientUnits="userSpaceOnUse" x1="157.8027" x2="720.4694" xlink:href="#a" y1="323.6906" y2="19.0239"/><linearGradient id="o" gradientUnits="userSpaceOnUse" x1="123.4766" x2="686.1432" xlink:href="#a" y1="260.2963" y2="-44.3704"/><linearGradient id="p" gradientUnits="userSpaceOnUse" x1="79.961" x2="642.6277" xlink:href="#a" y1="179.9305" y2="-124.7361"/><g fill="#0091ff"><path d="m76.8 329.2-3.9 13.2-8-11.2-12.1-16.7-12.1 16.7-8 11.1-3.9-13.1-14.2-47.9h11.4l11 36.9 9.3-12.8 1.7-2.4 5-6.8 5 6.8 1.7 2.4 9.3 12.8 11-36.9h11.4z"/><path d="m161 281.3v61.1h-10.9v-28h-39.3v28h-10.9v-61.1h10.9v22.2h39.3v-22.2z"/><path d="m228.7 342.4h-12.2l-5.6-10.9-13.4-26.2-13.4 26.2-5.6 10.9h-12.2l5.6-10.9 25.6-50.2 25.6 50.2z"/><path d="m282 331.6v10.9h-31c-3.1 0-5.9-.7-8.6-2-3.8-1.9-7-5.1-8.8-8.9-1.3-2.6-2-5.5-2-8.6v-41.7h10.9v42.7c.5 3.8 3.6 6.9 7.4 7.4z"/><path d="m301.7 297.8v5.7h39.3v10.9h-39.3v11.5c0 3.1 2.5 5.6 5.6 5.6h44.6v10.9h-44.6c-9.1 0-16.4-7.4-16.4-16.5v-28.1c0-9.1 7.3-16.5 16.4-16.5h44.6v10.9h-44.6c-3.1 0-5.6 2.5-5.6 5.6z"/><path d="m421.7 281.3v30.6c0 16.9-13.7 30.6-30.6 30.6s-30.6-13.7-30.6-30.6v-30.6h10.9v30.6c0 10.8 8.8 19.6 19.6 19.6s19.6-8.8 19.6-19.6v-30.6z"/><path d="m480.7 286.2c3 3 4.8 7.1 4.8 11.6 0 6.6-3.9 12.4-9.6 15-1.5.7-3.1 1.1-4.7 1.3-.2 0-.3 0-.5 0v.1h-29.3v28.1h-10.9v-61.1h38.5c4.5 0 8.6 1.8 11.6 4.8zm-9.3 16.7c2-.9 3.3-2.9 3.3-5.1 0-2-1-3.4-1.7-4-.7-.7-2-1.6-3.9-1.6h-27.7v11.3h27.7c.8 0 1.6-.1 2.3-.6z"/><path d="m101.8 392.7h-3.7l-12.8-31.5h3.9l10.9 27.3 10.9-27.3h3.8z"/><path d="m153.5 364.7h-17.8v10.3h15.9v3.5h-15.9v10.8h18.4v3.4h-22v-31.5h21.4z"/><path d="m200 392.7h-3.7l-18.9-25.3v25.3h-3.6v-31.5h3.7l18.9 25.4v-25.4h3.6z"/><path d="m241.8 364.7h-10.3v28.1h-3.6v-28.1h-10.3v-3.5h24.2z"/><path d="m285.2 361.2v18.6c0 4.1-1.2 7.3-3.5 9.7-2.3 2.3-5.6 3.5-9.7 3.5s-7.4-1.2-9.8-3.5-3.5-5.5-3.5-9.7v-18.6h3.6v18.6c0 3 .9 5.4 2.6 7.1s4.1 2.6 7.1 2.6 5.4-.8 7-2.5c1.7-1.7 2.5-4.1 2.5-7.1v-18.6h3.7z"/><path d="m327 392.7-6.5-10c-.9.1-1.6.1-2.1.1h-8.4v10h-3.6v-31.5h12c3.9 0 7 .9 9.2 2.8 2.2 1.8 3.3 4.5 3.3 7.8 0 2.6-.6 4.7-1.8 6.5-1.2 1.7-3 3-5.2 3.7l7.4 10.7h-4.3zm-17.1-13.4h8.4c2.9 0 5.1-.6 6.6-1.9s2.3-3.1 2.3-5.5-.8-4.2-2.3-5.4-3.8-1.8-6.6-1.8h-8.4z"/><path d="m372.6 364.7h-17.8v10.3h15.9v3.5h-15.9v10.8h18.4v3.4h-22v-31.5h21.4z"/><path d="m402.3 361.1c3.8 0 7.1 1 10 2.9l-1.5 3.4c-2.6-1.8-5.5-2.7-8.7-2.7-2 0-3.7.4-4.9 1.1s-1.8 1.8-1.8 3.1.4 2.3 1.3 3.2c.9.8 2 1.5 3.3 1.9s2.7.9 4.3 1.4c1.5.5 3 1.1 4.3 1.6 1.3.6 2.4 1.5 3.3 2.7s1.3 2.8 1.3 4.5c0 2.6-1.1 4.7-3.2 6.3s-4.8 2.4-8.2 2.4c-2.3 0-4.4-.4-6.6-1.3-2.1-.9-4-2-5.5-3.5l1.6-3.2c1.4 1.4 3.1 2.5 5 3.3s3.7 1.2 5.5 1.2c2.3 0 4.1-.4 5.4-1.3s2-2.1 2-3.6c0-1.1-.3-2.1-1-2.8-.6-.8-1.5-1.4-2.5-1.8s-2.2-.8-3.4-1.2c-1.3-.4-2.5-.8-3.8-1.2s-2.4-1-3.5-1.6-1.9-1.5-2.5-2.6-1-2.4-1-3.9c0-2.5 1-4.4 3-5.9 1.9-1.7 4.5-2.4 7.8-2.4z"/></g><path d="m402.1 159.4-9-21.7-12.4-18.1 7.9-19.2v-.1l3.6-26.3-.8-26c0-.1 0-.1 0-.2l-6.1-17.5c0-.1-.1-.1-.1-.2l-10.9-13.7c-.1-.2-.4-.3-.6-.2l-5.2 1.4c-.1 0-.2.1-.2.1-.1 0-.2.1-.2.1l-.1.2c-.8.4-8.5 4-16.9 16.1-5.2 7.6-6.2 11-9.2 17.1-1.7 3.4-4 7.6-8.1 13.7-4 6-9.6 13.8-17.9 24.5-.8 1.1-1.7 2.2-2.5 3.3-4.2 5.3-9 10.3-14.4 14.9-30.1 25.8-74.7 40.3-85.9 43.6-1.6.5-2.5.7-2.6.8l.1.3 2.9 10.2.6 2.1s.3-.2 3.4-.6c.9-.1 2-.3 3.5-.5l2.2 1.5 7.8 5.4-15.2-1.2c.2.4.3.8.5 1.2l14.4 1.1-10.8 4.5-1.3-.2h-.1c.2.4.4.8.6 1.3l27.5 3.2 38.4.7 28-3-11.1 34.3 2.1-.2 2-.2c3.7-.3 7.3-1.6 10.4-3.7 5.6-3.8 14.4-11.1 22.4-23.3 4.2-6.4 6.7-15.3 8-24.3l14.2-11.4s.1-.1.1-.1l9.7-13.3 10.2 12.4 17.8 24.1 2.9-12.7c.4-.1.4-.1.4-.2zm-20.7-11.5-3.6-21.6 14.4 20.9zm-.9-111-5.9-7.1-1.6-1.9.6-10.4zm10.5 36.9-4.6 9.1.1-18 4.4 8.3zm-108.2 106.1-18.5-3.9 33.6-6.8-12.3 10.7-.7.1zm66.6-39.7 18.7-22.4-2.2 17-.4.8zm-58.6 14h20.6l-37 9.4 8.8-8c2.7-.4 5.3-.9 7.6-1.4zm68.6-73.6 7.2-8.2-.4 12.2-.4 10.2-6.9-12c.2-.7.4-1.4.5-2.2zm6.8 14.6.8-22.6 9.4 15.6zm10.3-7.7-9.4-15.5 9.6-2.8zm-9.5-15.9 1.2-17.7 8.4 14.9zm-7.4 8.2c1.1-5 2.1-10.4 3-15.8l3.9 7.8zm11.1 12.8 5.6-3.9-7.9 27.4-2.2-20.4zm-2 24 7.9-27.3 2 20-.2.7-1.5 1zm8.2-28.2 8.4-3-6.3 22.8zm0-.4.3-18.3 8.1 15.1v.2zm8.4-4.1-8-14.9 8.2-5.6zm-8.1-15.4 3.8-28.9 4.3 23.4zm-.4-.2-8.5-15 12.4-14.7zm-10.1 2.8-3.9-7.8c.4-2.4.7-4.7 1.1-7.1l4-2.6zm-7.9 12.3 7 12.1-11.6 8.8 3.7-17.2c.3-1.2.6-2.4.9-3.7zm-.9 32.9-4.2-10.2.1-.4.2-.8 11.6-8.7zm-8.6 22.3-.6-17.4 4.7-14.6 4.2 10.2zm8.7-21.5 9.9.2-18.5 22.2zm.2-.4 7.7-20.3 2.3 20.5zm10.3.5 1-.7 8.5-5.8-11.6 23zm-4.6-61.5c.5-3.2.9-6.3 1.3-9.4l2.7 6.8zm-38.5 81.7.2-.2-2.4 9.4-4.5 13.9-19.1 7.7 14.6-13.5.7-.2c.1 0 .1 0 .2-.1.1 0 .1-.1.2-.2zm-12.1 17.5-14.8 13.7-23.5-3.9zm-.3-1.2h-20.4c6.3-1.5 11.5-3.3 15.8-5.3l5.5 5zm-40.2 11.5.4-.1.9-.2 23.5 3.9-33.6 6.8zm26.3 3.6 19.4-7.9-4.9 15.2-8-4.1zm80.4-58.3.4-1.4 7.1-7.9-9.1 22.2 1.1-11.7zm1.3-72.6-12.3 14.6 2.8-15.2 1.6-8.9 1.4 1.7zm-8.3-9.5-3.4 18.5-1 5.6-2.7-7c.6-4.8 1.1-9.3 1.5-13.2l1.3-.9zm-11.4 7.4v.1.1l-.7 12.3-4.4-6.3 5.1-7.7zm-38.4 103.8-8.3 13.7-5.5-5c6.4-3 10.9-6.2 13.8-8.7zm-56.4 18.1c3.6-.5 7.2-1 10.8-1.4 1.9-.2 3.7-.4 5.4-.6l-8.9 8.1-.6.2-.9.1-17.6-4.1-.5-.1 9.8-1.8c.8-.2 1.6-.3 2.5-.4zm-13.2 2.4.5.1 3.4.8 14.1 3.3-36.7 6 18.1-9.8zm45.6 9 10.9 5.6 3.9 2v.1l-27.1 3zm49.6-22.7 1.2-5.5v-.3l15.7-4.5-17.8 21.4c.4-3.8.7-7.5.9-11.1zm30.1-33.8-1.1 12-.4.9-.2.3-9.1 8zm2.8 16.1 11.5 9.2-.3 8.9-14-20.4zm6.3-28.7-7.3 8.2 5.7-20.6 1.7 11.5zm-5.3-60.6 7.8 8 .2.5-4.1 12.9zm2.1-8.5 5.4 15.6-7.6-7.8-.1-.6c-.1-.3-.3-.5-.6-.5zm-17.5.9c.4-3.9.7-7.1.9-9.5l1.1-2.7 3.7 8.3zm-94.6 133.5-8.9 10.5-28.6-4.4zm-8.8 10.9 17.4 3.7-30.3-.5zm103.1-40 .7-1.4 8.4-7.5-13.6 18.8 3.5-8.7zm26.3 11.2.3-8.6 8.1 19.4zm-.8-10.5-13.8-11.1 2.3-5.7zm-4.2-39.2-1.7-11 .3-1.2c0-.1 0-.1 0-.2v-1.5l4.4-8.8zm-1.2-33.6v-.9l-.3-1.5 4-12.6.7 23.3zm-2.6-33.6-3 6.9-6.8-19.1zm-14.9-11.8 4.1-1.1-.6 9.5-3.6-8.1zm-145.5 146.3-2.2-1.5c4.4-.6 11.4-1.3 22.5-2.4 2.6-.3 5.5-.7 8.6-1.2l-.9.5-.3.2-18.1 9.8-1.1.2h-.5zm-3 11.3 10.8-4.5.7.1.5-.1 12 7.3zm25 2.9-12.4-7.5h.2l28.9 4.4-13.5 3.3h-2.3zm103-21.4 16-19.4-3.6 9-.7 1zm22.5-22.2 6.4-8.8 3.4 20.7zm10.5 12.7 10.8-.7 5.5 20.9.7 2.7zm17.4 23.1-1.3-4.9-4.8-18.2 8.7 11.2z" fill="url(#b)"/><path d="m255.7 227.5c-.3.2-.5.5-.7.7-16.6-7.4-31.4-19.3-42.4-35.4-11.9-17.3-17.7-37.1-17.9-56.7.2-.1.4-.2.6-.3 1.1-.8 1.4-2.3.6-3.4-.8-1.1-2.3-1.4-3.4-.6-1.1.8-1.4 2.3-.6 3.4.5.7 1.3 1.1 2.1 1.1.2 19.7 6.1 39.6 18 57 11.1 16.2 26.1 28.2 42.8 35.7-.2.7 0 1.4.4 2 .8 1.1 2.3 1.4 3.4.6s1.4-2.3.6-3.4c-.8-1.2-2.4-1.5-3.5-.7zm-62.9-93c-.4-.6-.3-1.4.3-1.8s1.4-.3 1.8.3c.4.6.3 1.4-.3 1.8-.6.5-1.4.3-1.8-.3zm65 96.1c-.6.4-1.4.3-1.8-.3s-.3-1.4.3-1.8 1.4-.3 1.8.3c.5.6.3 1.4-.3 1.8z" fill="url(#c)"/><path d="m237.5 224.3c-.1.1-.2.2-.3.2-11.1-7.4-21-17-29-28.6-8.7-12.7-14.3-26.6-17-40.9.1-.1.2-.1.3-.2 1.1-.8 1.4-2.3.6-3.4-.8-1.1-2.3-1.4-3.4-.6s-1.4 2.3-.6 3.4c.5.8 1.5 1.2 2.4 1.1 2.7 14.3 8.3 28.3 17.1 41.1 8 11.7 18 21.4 29.2 28.8-.4.8-.4 1.8.1 2.6.8 1.1 2.3 1.4 3.4.6s1.4-2.3.6-3.4c-.8-1.2-2.3-1.5-3.4-.7zm-48.1-72.6c.6-.4 1.4-.3 1.8.3s.3 1.4-.3 1.8-1.4.3-1.8-.3c-.5-.6-.3-1.4.3-1.8zm50.2 75.7c-.6.4-1.4.3-1.8-.3s-.3-1.4.3-1.8 1.4-.3 1.8.3.3 1.4-.3 1.8z" fill="url(#d)"/><path d="m393.1 172.3c-.1.2-.2.5-.3.7s-.2.5-.3.7-.2.5-.3.7-.2.5-.3.7-.2.5-.3.7-.2.5-.3.7-.2.5-.3.7-.2.5-.3.7-.2.5-.3.7-.2.5-.3.7-.2.5-.3.7-.2.4-.3.7c-.1.2-.2.4-.3.7-.1.2-.2.4-.3.7-.1.2-.2.4-.4.7-.1.2-.2.4-.4.7-.1.2-.2.4-.4.7-.1.2-.2.4-.4.6-.1.2-.2.4-.4.6-.1.2-.2.4-.4.6-.1.2-.2.4-.4.6-.1.2-.2.4-.4.6-.1.2-.3.4-.4.6s-.3.4-.4.6-.3.4-.4.6-.3.4-.4.6-.3.4-.4.6-.3.4-.4.6-.3.4-.4.6-.3.4-.4.6-.3.4-.4.6-.3.4-.4.6-.3.4-.4.6-.3.4-.4.6-.3.4-.4.6-.3.4-.4.6-.3.4-.4.6-.3.4-.4.6-.3.4-.4.6-.3.4-.4.6c-.2.2-.3.4-.5.6s-.3.4-.5.6-.3.4-.5.6-.3.4-.5.6-.3.4-.5.6-.3.4-.5.6-.3.4-.5.6-.3.4-.5.5c-.2.2-.3.4-.5.5-.2.2-.3.4-.5.5-.2.2-.3.4-.5.5-.2.2-.3.4-.5.5-.2.2-.3.4-.5.5-.2.2-.3.3-.5.5s-.3.3-.5.5-.3.3-.5.5-.3.3-.5.5-.3.3-.5.5-.3.3-.5.5-.4.3-.5.5c-.2.2-.4.3-.5.5-.2.2-.4.3-.5.5-.2.2-.4.3-.5.5-.2.2-.4.3-.5.5-.2.2-.4.3-.5.5-.2.2-.4.3-.5.5-.2.2-.4.3-.6.5s-.4.3-.6.5-.4.3-.6.5-.4.3-.6.5-.4.3-.6.5-.4.3-.6.5-.4.3-.6.5-.4.3-.6.5-.4.3-.6.5-.4.3-.6.5-.4.3-.6.5c-.2.1-.4.3-.6.4s-.4.3-.6.4-.4.3-.6.4-.4.3-.6.4-.4.3-.6.4c-.1.1-.2.1-.3.2s-.2.2-.4.2c-.2.1-.4.3-.6.4s-.4.3-.6.4-.4.3-.6.4-.4.3-.6.4-.4.3-.6.4-.4.3-.6.4-.4.3-.6.4-.4.3-.7.4c-.2.1-.4.3-.7.4-.2.1-.4.3-.7.4-.2.1-.4.3-.7.4-.2.1-.4.3-.7.4-.2.1-.5.2-.7.4-.2.1-.5.2-.7.4-.2.1-.5.2-.7.4-.2.1-.5.2-.7.4-.2.1-.5.2-.7.4-.2.1-.5.2-.7.4-.2.1-.5.2-.7.4-.2.1-.5.2-.7.3s-.5.2-.7.3-.5.2-.7.3c-13 6-26.8 9.1-40.5 9.4-.1-.1-.1-.3-.2-.4-.8-1.1-2.3-1.4-3.4-.6s-1.4 2.3-.6 3.4c.8 1.1 2.3 1.4 3.4.6.8-.5 1.1-1.4 1.1-2.2 13.9-.4 27.9-3.5 41-9.6.2-.1.5-.2.7-.3s.5-.2.7-.3.5-.2.7-.4c.2-.1.5-.2.7-.4.2-.1.5-.2.7-.4.2-.1.5-.2.7-.4.2-.1.5-.2.7-.4.2-.1.5-.2.7-.4.2-.1.5-.2.7-.4.2-.1.5-.3.7-.4s.4-.3.7-.4c.2-.1.4-.3.7-.4.2-.1.4-.3.7-.4.2-.1.4-.3.7-.4.2-.1.4-.3.7-.4.2-.1.4-.3.6-.4s.4-.3.6-.4.4-.3.6-.4.4-.3.6-.4.4-.3.6-.4.4-.3.6-.4.4-.3.6-.4c.1 0 .1-.1.2-.1.1-.1.3-.2.4-.3.2-.1.4-.3.6-.4s.4-.3.6-.4.4-.3.6-.4.4-.3.6-.4.4-.3.6-.4.4-.3.6-.4c.2-.2.4-.3.6-.4.2-.2.4-.3.6-.5s.4-.3.6-.5.4-.3.6-.5.4-.3.6-.5.4-.3.6-.5.4-.3.6-.5.4-.3.6-.5.4-.3.6-.5.4-.3.6-.5.4-.3.6-.5.4-.3.6-.5.4-.3.5-.5c.2-.2.4-.3.5-.5.2-.2.4-.3.5-.5.2-.2.4-.3.5-.5.2-.2.4-.3.5-.5.2-.2.3-.3.5-.5s.3-.3.5-.5.3-.3.5-.5.3-.3.5-.5.3-.3.5-.5.3-.3.5-.5.3-.4.5-.5c.2-.2.3-.4.5-.5.2-.2.3-.4.5-.5.2-.2.3-.4.5-.5.2-.2.3-.4.5-.5.2-.2.3-.4.5-.5.2-.2.3-.4.5-.5.2-.2.3-.4.5-.6s.3-.4.5-.6.3-.4.5-.6.3-.4.5-.6.3-.4.5-.6.3-.4.5-.6.3-.4.4-.6.3-.4.4-.6.3-.4.4-.6.3-.4.4-.6.3-.4.4-.6.3-.4.4-.6.3-.4.4-.6.3-.4.4-.6.3-.4.4-.6.3-.4.4-.6.3-.4.4-.6.3-.4.4-.6.3-.4.4-.6.3-.4.4-.6.3-.4.4-.6.3-.4.4-.6.3-.4.4-.6.3-.4.4-.6.2-.4.4-.6c.1-.2.3-.4.4-.6s.2-.4.4-.6c.1-.2.2-.4.4-.6.1-.2.2-.4.4-.6.1-.2.2-.4.4-.7.1-.2.2-.4.4-.7.1-.2.2-.4.3-.7.1-.2.2-.4.3-.7.1-.2.2-.4.3-.7.1-.2.2-.4.3-.7.1-.2.2-.4.3-.7.1-.2.2-.5.3-.7s.2-.5.3-.7.2-.5.3-.7.2-.5.3-.7.2-.5.3-.7.2-.5.3-.7.2-.5.3-.7.2-.5.3-.7.2-.5.3-.7.2-.5.3-.7c0-.1.1-.2.1-.4l-.6-.8c-.2 0-.2.2-.3.4zm-96.5 66.6c-.4-.6-.3-1.4.3-1.8s1.4-.3 1.8.3.3 1.4-.3 1.8c-.6.5-1.4.3-1.8-.3z" fill="url(#e)"/><path d="m208.6 113.8c.1-.3.1-.5.2-.8s.1-.5.2-.8.1-.5.2-.8.1-.5.2-.8.1-.5.2-.8.1-.5.2-.8.2-.5.2-.8c.1-.3.2-.5.2-.8.1-.3.2-.5.2-.8.1-.2.2-.5.2-.7.1-.2.2-.5.2-.7.1-.2.2-.5.3-.7s.2-.5.3-.7.2-.5.3-.7.2-.5.3-.7.2-.5.3-.7.2-.5.3-.7.2-.5.3-.7.2-.5.3-.7.2-.5.3-.7.2-.5.3-.7.2-.5.3-.7.2-.5.3-.7.2-.5.3-.7.2-.5.3-.7.2-.5.3-.7.2-.4.3-.7c.1-.2.2-.4.3-.7.1-.2.2-.4.3-.7.1-.2.2-.4.3-.7.1-.2.2-.4.3-.7.1-.2.2-.4.4-.7.1-.2.2-.4.4-.6.1-.2.2-.4.4-.6.1-.2.2-.4.4-.6.1-.2.3-.4.4-.6s.2-.4.4-.6c.1-.2.3-.4.4-.6s.3-.4.4-.6.3-.4.4-.6.3-.4.4-.6.3-.4.4-.6.3-.4.4-.6.3-.4.4-.6.3-.4.4-.6.3-.4.4-.6.3-.4.4-.6.3-.4.4-.6.3-.4.4-.6.3-.4.4-.6.3-.4.4-.6.3-.4.4-.6.3-.4.5-.6.3-.4.5-.6.3-.4.5-.6.3-.4.5-.6.3-.4.5-.6.3-.4.5-.6.3-.4.5-.6.3-.4.5-.5c.2-.2.3-.4.5-.5.2-.2.3-.4.5-.5.2-.2.3-.4.5-.5.2-.2.3-.4.5-.5.2-.2.3-.4.5-.5.2-.2.3-.3.5-.5s.3-.3.5-.5.3-.3.5-.5.4-.3.5-.5c.2-.2.4-.3.5-.5.2-.2.3-.3.5-.5s.4-.3.5-.5c.2-.2.4-.3.5-.5.2-.2.4-.3.5-.5.2-.2.4-.3.5-.5.2-.2.4-.3.6-.5s.4-.3.6-.5.4-.3.6-.5.4-.3.6-.5.4-.3.6-.5.4-.3.6-.5.4-.3.6-.5.4-.3.6-.5.4-.3.6-.5.4-.3.6-.4.4-.3.6-.4.4-.3.6-.4.4-.3.6-.4.4-.3.6-.4.4-.3.6-.4c0 0 .1-.1.1-.1.2-.1.3-.2.5-.3s.4-.3.6-.4.4-.3.6-.4.4-.3.6-.4.4-.3.6-.4.4-.3.6-.4.4-.3.7-.4c.2-.1.4-.3.7-.4.2-.1.4-.3.7-.4.2-.1.4-.3.7-.4.2-.1.4-.3.7-.4.2-.1.5-.3.7-.4s.5-.3.7-.4.5-.2.7-.4c.2-.1.5-.2.7-.4.2-.1.5-.2.7-.4.2-.1.5-.2.7-.4.2-.1.5-.2.7-.3s.5-.2.7-.3.5-.2.7-.3.5-.2.7-.3.5-.2.7-.3.5-.2.7-.3.5-.2.7-.3c.3-.1.5-.2.8-.3s.5-.2.8-.3.5-.2.8-.3.5-.2.8-.3.5-.2.8-.3.5-.2.8-.3.5-.2.8-.3.5-.2.8-.3.5-.2.8-.3.5-.2.8-.3.5-.2.8-.3.5-.2.8-.3.6-.2.8-.2c.3-.1.6-.2.8-.2.3-.1.6-.2.8-.2.3-.1.6-.1.9-.2s.6-.1.9-.2.6-.1.9-.2.6-.1.9-.2.6-.1.9-.2.6-.1.9-.2.6-.1.9-.2.6-.1.9-.2.6-.1.9-.2.6-.1.9-.2.6-.1.9-.1.6-.1 1-.1c.3 0 .6-.1 1-.1.3 0 .7-.1 1-.1s.7-.1 1-.1.7-.1 1-.1.7-.1 1-.1.7-.1 1-.1.7 0 1-.1c.4 0 .7 0 1.1-.1h1.1 1.1 1.1 1.1 1.1 1.1 1.2 1.2c.4 0 .8 0 1.2.1.4 0 .8 0 1.2.1.4 0 .8.1 1.2.1s.8.1 1.3.1c.4 0 .9.1 1.3.1s.9.1 1.3.2.9.1 1.3.2c.5.1.9.1 1.4.2s.9.1 1.4.2.9.2 1.4.3 1 .2 1.5.3 1 .2 1.5.3 1 .2 1.5.4c.5.1 1.1.3 1.6.4s1.1.3 1.6.4c.6.2 1.1.3 1.7.5s1.2.4 1.8.5c.6.2 1.2.4 1.8.6s1.3.5 1.9.7c.7.3 1.4.5 2 .8.7.3 1.4.6 2.2.9s1.6.7 2.3 1c.9.4 1.7.8 2.5 1.2l.4-.6v-.1c-.1 0-.1-.1-.2-.1-.8-.4-1.7-.8-2.5-1.2s-1.5-.7-2.3-1c-.7-.3-1.4-.6-2.2-.9-.7-.3-1.3-.5-2-.8-.6-.2-1.3-.5-1.9-.7s-1.2-.4-1.8-.6-1.2-.4-1.8-.5c-.6-.2-1.1-.3-1.7-.5-.5-.2-1.1-.3-1.6-.4s-1.1-.3-1.6-.4-1-.2-1.5-.4c-.5-.1-1-.2-1.5-.3s-1-.2-1.5-.3-.9-.2-1.4-.3-.9-.2-1.4-.2c-.5-.1-.9-.1-1.4-.2-.4-.1-.9-.1-1.3-.2s-.9-.1-1.3-.2c-.4 0-.9-.1-1.3-.1s-.8-.1-1.3-.1c-.4 0-.8-.1-1.2-.1s-.8-.1-1.2-.1-.8 0-1.2-.1c-.4 0-.8 0-1.2 0s-.8 0-1.2 0-.8 0-1.1 0c-.4 0-.7 0-1.1 0s-.7 0-1.1 0-.7 0-1.1 0-.7 0-1.1 0-.7 0-1.1 0-.7 0-1.1.1c-.3 0-.7 0-1 .1-.3 0-.7.1-1 .1s-.7.1-1 .1-.7.1-1 .1-.7.1-1 .1-.7.1-1 .1-.6.1-1 .1c-.3 0-.6.1-1 .1-.3 0-.6.1-1 .1-.3 0-.6.1-.9.2s-.6.1-.9.2-.6.1-.9.2-.6.1-.9.2-.6.1-.9.2-.6.1-.9.2-.6.1-.9.2-.6.1-.9.2-.6.1-.9.2-.6.1-.9.2-.6.2-.9.2c-.3.1-.6.2-.8.2-.3.1-.6.2-.8.2-.3.1-.6.2-.8.2-.3.1-.5.2-.8.3s-.5.2-.8.3-.5.2-.8.3-.5.2-.8.3-.5.2-.8.3-.5.2-.8.3-.5.2-.8.3-.5.2-.8.3-.5.2-.8.3-.5.2-.8.3-.5.2-.8.3c-.2.1-.5.2-.7.3s-.5.2-.7.3-.5.2-.7.3-.5.2-.7.3-.5.2-.7.3-.5.2-.7.3-.5.2-.7.3-.5.2-.7.3-.5.2-.7.4c-.2.1-.5.2-.7.4-.2.1-.5.2-.7.4-.2.1-.5.2-.7.4-.2.1-.5.3-.7.4s-.5.2-.7.4c-.2.1-.4.3-.7.4-.2.1-.4.3-.7.4-.2.1-.4.3-.7.4-.2.1-.4.3-.7.4-.2.1-.4.3-.6.4s-.4.3-.6.4-.4.3-.6.4-.4.3-.6.4-.4.3-.6.4-.4.3-.6.4c-.1.1-.2.1-.3.2s-.2.1-.3.2c-.2.1-.4.3-.6.4s-.4.3-.6.4-.4.3-.6.4-.4.3-.6.4-.4.3-.6.4-.4.3-.6.4c-.2.2-.4.3-.6.5s-.4.3-.6.5-.4.3-.6.5-.4.3-.6.5-.4.3-.6.5-.4.3-.6.5-.4.3-.6.5-.4.3-.6.5-.4.3-.6.5-.4.3-.5.5c-.2.2-.4.3-.5.5-.2.2-.4.3-.5.5-.2.2-.4.3-.5.5-.2.2-.4.3-.5.5-.2.2-.4.3-.5.5-.2.2-.4.3-.5.5-.2.2-.3.3-.5.5s-.3.3-.5.5-.3.3-.5.5-.3.4-.5.5-.3.4-.5.5c-.2.2-.3.4-.5.5-.2.2-.3.4-.5.5-.2.2-.3.4-.5.5-.2.2-.3.4-.5.5-.2.2-.3.4-.5.6s-.3.4-.5.6-.3.4-.5.6-.3.4-.5.6-.3.4-.5.6-.3.4-.5.6-.3.4-.5.6c-.1.2-.3.4-.4.6s-.3.4-.4.6-.3.4-.4.6-.3.4-.4.6-.3.4-.4.6-.3.4-.4.6-.3.4-.4.6-.3.4-.4.6-.3.4-.4.6-.3.4-.4.6-.3.4-.4.6-.3.4-.4.6-.3.4-.4.6-.3.4-.4.6-.3.4-.4.6-.3.4-.4.6-.3.4-.4.6-.3.4-.4.6-.2.4-.4.6c-.1.2-.2.4-.4.6-.1.2-.2.4-.4.6-.1.2-.2.4-.3.7-.1.2-.2.4-.3.7-.1.2-.2.4-.3.7-.1.2-.2.4-.3.7-.1.2-.2.4-.3.7-.1.2-.2.4-.3.7-.1.2-.2.5-.3.7s-.2.5-.3.7-.2.5-.3.7-.2.5-.3.7-.2.5-.3.7-.2.5-.3.7-.2.5-.3.7-.2.5-.3.7-.2.5-.3.7-.2.5-.3.7-.2.5-.3.7-.2.5-.3.7-.2.5-.3.7-.2.5-.3.7-.2.5-.3.7-.2.5-.2.7-.2.5-.2.7c-.1.3-.2.5-.2.8-.1.3-.2.5-.2.8-.1.3-.2.5-.2.8-.1.3-.1.5-.2.8s-.1.5-.2.8-.1.5-.2.8-.1.5-.2.8-.1.5-.2.8-.1.5-.2.8c-5.7 24.3-1.5 50.8 13.6 72.8 24.7 36.1 70.9 48.9 110.1 33.3.3-.1.5-.2.8-.3s.5-.2.8-.3c.2-.1.5-.2.7-.3s.5-.2.7-.3.5-.2.7-.3.5-.2.7-.3.5-.2.7-.3.5-.2.7-.3.5-.2.7-.4c.2-.1.5-.2.7-.4.2-.1.5-.2.7-.4.2-.1.5-.2.7-.4s.5-.2.7-.4c.2-.1.5-.2.7-.4.2-.1.4-.3.7-.4.2-.1.5-.3.7-.4s.5-.3.7-.4.4-.3.7-.4c.2-.1.4-.3.7-.4.2-.1.4-.3.7-.4.2-.1.4-.3.6-.4s.4-.3.6-.4.4-.3.6-.4.4-.3.6-.4.4-.3.6-.4.4-.3.6-.4c.1 0 .1-.1.2-.1.1-.1.3-.2.4-.3.2-.1.4-.3.6-.4s.4-.3.6-.4.4-.3.6-.4.4-.3.6-.4.4-.3.6-.4.4-.3.6-.5.4-.3.6-.5.4-.3.6-.5.4-.3.6-.5.4-.3.6-.5.4-.3.6-.5.4-.3.6-.5.4-.3.6-.5.4-.3.6-.5.4-.3.5-.5c.2-.2.4-.3.5-.5.2-.2.4-.3.5-.5.2-.2.4-.3.5-.5.2-.2.4-.3.5-.5.2-.2.4-.3.5-.5.2-.2.4-.3.5-.5.2-.2.4-.3.5-.5.2-.2.3-.3.5-.5s.3-.3.5-.5.3-.3.5-.5.3-.4.5-.5c.2-.2.3-.4.5-.5.2-.2.3-.4.5-.5.2-.2.3-.4.5-.5.2-.2.3-.4.5-.5.2-.2.3-.4.5-.5.2-.2.3-.4.5-.6s.3-.4.5-.6.3-.4.5-.6.3-.4.5-.6.3-.4.5-.6.3-.4.5-.6.3-.4.5-.6c.1-.2.3-.4.4-.6s.3-.4.4-.6.3-.4.4-.6.3-.4.4-.6.3-.4.4-.6.3-.4.4-.6.3-.4.4-.6.3-.4.4-.6.3-.4.4-.6.3-.4.4-.6.3-.4.4-.6.3-.4.4-.6.3-.4.4-.6.3-.4.4-.6.3-.4.4-.6.3-.4.4-.6.3-.4.4-.6.2-.4.4-.6c.1-.2.2-.4.4-.6.1-.2.2-.4.4-.6.1-.2.2-.4.4-.7.1-.2.2-.4.4-.7.1-.2.2-.4.3-.7.1-.2.2-.4.3-.7.1-.2.2-.4.3-.7.1-.2.2-.5.3-.7s.2-.5.3-.7.2-.5.3-.7.2-.5.3-.7.2-.5.3-.7.2-.5.3-.7.2-.5.3-.7.2-.5.3-.7.2-.5.3-.7.2-.5.3-.7.2-.5.3-.7.2-.5.3-.7.2-.5.3-.7.2-.5.3-.7.2-.5.3-.7.2-.5.3-.7.2-.5.2-.7c.1-.2.2-.5.2-.7.1-.3.2-.5.2-.8.1-.3.2-.5.2-.8.1-.3.2-.5.2-.8.1-.3.1-.5.2-.8s.1-.5.2-.8c0-.1.1-.2.1-.3l-.6-.8c0 .2-.1.3-.1.5-.1.3-.1.5-.2.8s-.1.5-.2.8-.2.5-.2.8c-.1.3-.2.5-.2.8-.1.3-.2.5-.2.8-.1.3-.2.5-.2.7-.1.2-.2.5-.2.7-.1.2-.2.5-.3.7s-.2.5-.3.7-.2.5-.3.7-.2.5-.3.7-.2.5-.3.7-.2.5-.3.7-.2.5-.3.7-.2.5-.3.7-.2.5-.3.7-.2.5-.3.7-.2.5-.3.7-.2.5-.3.7-.2.5-.3.7-.2.5-.3.7-.2.5-.3.7-.2.4-.3.7c-.1.2-.2.4-.3.7s-.2.4-.3.7c-.1.2-.2.4-.3.7-.1.2-.2.4-.3.7-.1.2-.2.4-.4.7-.1.2-.2.4-.4.6-.1.2-.2.4-.4.6-.1.2-.2.4-.4.6-.1.2-.2.4-.4.6-.1.2-.2.4-.4.6-.1.2-.3.4-.4.6s-.3.4-.4.6-.3.4-.4.6-.3.4-.4.6-.3.4-.4.6-.3.4-.4.6-.3.4-.4.6-.3.4-.4.6-.3.4-.4.6-.3.4-.4.6-.3.4-.4.6-.3.4-.4.6-.3.4-.4.6-.3.4-.4.6-.3.4-.4.6-.3.4-.4.6c-.2.2-.3.4-.5.6s-.3.4-.5.6-.3.4-.5.6-.3.4-.5.6-.3.4-.5.6-.3.4-.5.6-.3.4-.5.5c-.2.2-.3.4-.5.5-.2.2-.3.4-.5.5-.2.2-.3.4-.5.5-.2.2-.3.4-.5.5-.2.2-.3.4-.5.5-.2.2-.3.3-.5.5s-.3.3-.5.5-.3.3-.5.5-.3.3-.5.5-.3.3-.5.5-.4.3-.5.5c-.2.2-.4.3-.5.5-.2.2-.4.3-.5.5-.2.2-.4.3-.5.5-.2.2-.4.3-.5.5-.2.2-.4.3-.5.5-.2.2-.4.3-.6.5s-.4.3-.6.5-.4.3-.6.5-.4.3-.6.5-.4.3-.6.5-.4.3-.6.5-.4.3-.6.5-.4.3-.6.5-.4.3-.6.5c-.2.1-.4.3-.6.4s-.4.3-.6.4-.4.3-.6.4-.4.3-.6.4-.4.3-.6.4c-.1.1-.2.1-.2.2-.1.1-.3.2-.4.3-.2.1-.4.3-.6.4s-.4.3-.6.4-.4.3-.6.4-.4.3-.6.4-.4.3-.6.4-.4.3-.7.4c-.2.1-.4.3-.7.4-.2.1-.4.3-.7.4-.2.1-.4.3-.7.4-.2.1-.5.3-.7.4s-.4.3-.7.4c-.2.1-.5.3-.7.4s-.5.2-.7.4c-.2.1-.5.2-.7.4-.2.1-.5.2-.7.4-.2.1-.5.2-.7.4-.2.1-.5.2-.7.4-.2.1-.5.2-.7.3s-.5.2-.7.3-.5.2-.7.3-.5.2-.7.3-.5.2-.7.3-.5.2-.7.3c-.3.1-.5.2-.8.3s-.5.2-.8.3-.5.2-.8.3c-38.8 15.5-84.3 2.7-108.8-32.9-14.9-21.8-19.1-47.8-13.6-71.8.1-.3.1-.6.2-.8z" fill="url(#f)"/><path d="m389.5 127c0-.3-.1-.7-.1-1s-.1-.7-.1-1c0-.4-.1-.7-.1-1.1s-.1-.7-.1-1.1-.1-.7-.1-1.1-.1-.7-.2-1.1-.1-.7-.2-1.1-.1-.7-.2-1.1-.1-.8-.2-1.1c-.1-.4-.1-.8-.2-1.2s-.2-.8-.2-1.2c-.1-.4-.2-.8-.3-1.2s-.2-.8-.3-1.2-.2-.8-.3-1.2c-.1-.3-.1-.6-.2-.8l-.2.5-.3.7c.1.4.2.7.3 1.1s.2.8.3 1.2.2.8.3 1.2.2.8.2 1.2c.1.4.1.8.2 1.1.1.4.1.8.2 1.1.1.4.1.7.2 1.1s.1.7.2 1.1.1.7.2 1.1c0 .4.1.7.1 1.1s.1.7.1 1.1c0 .3.1.7.1 1s.1.7.1 1 .1.7.1 1c0 .2 0 .5.1.7l.5.7.4.5c0-.1 0-.2 0-.2 0-.3 0-.7-.1-1-.1-.1-.2-.5-.2-.8z" fill="url(#g)"/><path d="m394.6 136.2v.7l.2.4.6 1.2c0-.2 0-.5 0-.7 0-.3 0-.6 0-.9s0-.6 0-.9 0-.6 0-1c0-.3 0-.6 0-1 0-.3 0-.6 0-1 0-.3 0-.6 0-1 0-.3 0-.7 0-1s0-.7 0-1 0-.7 0-1 0-.7-.1-1c0-.3 0-.7-.1-1 0-.3-.1-.7-.1-1s-.1-.7-.1-1-.1-.7-.1-1c0-.4-.1-.7-.1-1.1s-.1-.7-.1-1.1-.1-.7-.1-1.1-.1-.7-.2-1.1-.1-.7-.2-1.1-.1-.7-.2-1.1-.1-.8-.2-1.1c-.1-.4-.1-.8-.2-1.1-.1-.4-.2-.8-.2-1.2-.1-.4-.2-.8-.2-1.2-.1-.4-.2-.8-.3-1.2s-.2-.8-.3-1.2-.2-.8-.3-1.2-.2-.8-.3-1.2-.2-.8-.4-1.3c-.1-.4-.3-.9-.4-1.3s-.3-.9-.4-1.3c-.1-.5-.3-.9-.5-1.3-.1-.3-.2-.6-.3-.9l-.2.5-.3.7c.2.4.3.9.4 1.3s.3.9.4 1.3.3.9.4 1.3.2.8.4 1.3c.1.4.2.8.3 1.3.1.4.2.8.3 1.2s.2.8.3 1.2.2.8.3 1.2.2.8.2 1.2c.1.4.2.8.2 1.2.1.4.1.8.2 1.1.1.4.1.8.2 1.1.1.4.1.7.2 1.1s.1.7.2 1.1.1.7.1 1.1.1.7.1 1.1.1.7.1 1.1.1.7.1 1.1c0 .3.1.7.1 1s.1.7.1 1 0 .7.1 1c0 .3.1.7.1 1v1 1 1 1 1 1 1c.3.2.3.5.3.8z" fill="url(#h)"/><path d="m300 36.8c-.4 0-.8 0-1.1 0-.4 0-.7 0-1.1 0s-.7 0-1.1 0-.7 0-1.1 0-.7 0-1.1 0-.7 0-1.1 0-.7 0-1.1.1c-.3 0-.7 0-1 .1-.3 0-.7 0-1 .1-.3 0-.7.1-1 .1s-.7.1-1 .1-.7.1-1 .1-.7.1-1 .1-.7.1-1 .1-.6.1-1 .1c-.3 0-.6.1-1 .1-.3 0-.6.1-1 .1-.3 0-.6.1-.9.2s-.6.1-.9.2-.6.1-.9.2-.6.1-.9.2-.6.1-.9.2-.6.1-.9.2-.6.1-.9.2-.6.1-.9.2-.6.1-.9.2-.6.1-.9.2-.6.1-.9.2-.6.2-.8.2c-.3.1-.6.2-.8.2-.3.1-.6.2-.8.2-.3.1-.6.2-.8.2-.3.1-.5.2-.8.3s-.5.2-.8.3-.5.2-.8.3-.5.2-.8.3-.5.2-.8.3-.5.2-.8.3-.5.2-.8.3-.5.2-.8.3-.5.2-.8.3-.5.2-.8.3-.5.2-.8.3-.5.2-.8.3c-.2.1-.5.2-.7.3s-.5.2-.7.3-.5.2-.7.3-.5.2-.7.3-.5.2-.7.3-.5.2-.7.3-.5.2-.7.3-.5.2-.7.4c-.2.1-.5.2-.7.4-.2.1-.5.2-.7.4-.2.1-.5.2-.7.4-.2.1-.5.2-.7.4-.2.1-.5.3-.7.4s-.5.2-.7.4c-.2.1-.4.3-.7.4-.2.1-.4.3-.7.4-.2.1-.4.3-.7.4-.2.1-.4.3-.7.4-.2.1-.4.3-.7.4-.2.1-.4.3-.6.4s-.4.3-.6.4-.4.3-.6.4-.4.3-.6.4-.4.3-.6.4-.4.3-.6.4c-.1.1-.2.1-.3.2-.1.1-.2.1-.3.2-.2.1-.4.3-.6.4s-.4.3-.6.4-.4.3-.6.4-.4.3-.6.4-.4.3-.6.4-.4.3-.6.4c-.2.2-.4.3-.6.5s-.4.3-.6.5-.4.3-.6.5-.4.3-.6.5-.4.3-.6.5-.4.3-.6.5-.4.3-.6.5-.4.3-.6.5-.4.3-.6.5-.4.3-.6.5-.4.3-.5.5c-.2.2-.4.3-.5.5-.2.2-.4.3-.5.5-.2.2-.4.3-.5.5-.2.2-.4.3-.5.5-.2.2-.4.3-.5.5-.2.2-.4.3-.5.5-.2.2-.3.3-.5.5s-.3.3-.5.5-.3.3-.5.5-.3.3-.5.5-.3.4-.5.5c-.2.2-.3.4-.5.5-.2.2-.3.4-.5.5-.2.2-.3.4-.5.5-.2.2-.3.4-.5.5-.2.2-.3.4-.5.5-.2.2-.3.4-.5.6s-.3.4-.5.6-.3.4-.5.6-.3.4-.5.6-.3.4-.5.6-.3.4-.5.6-.3.4-.5.6-.3.4-.4.6-.3.4-.4.6-.3.4-.4.6-.3.4-.4.6-.3.4-.4.6-.3.4-.4.6-.3.4-.4.6-.3.4-.4.6-.3.4-.4.6-.3.4-.4.6-.3.4-.4.6-.3.4-.4.6-.3.4-.4.6-.3.4-.4.6-.3.4-.4.6-.3.4-.4.6-.3.4-.4.6-.3.4-.4.6-.3.4-.4.6-.2.4-.4.6c-.1.2-.2.4-.4.6-.1.2-.2.4-.4.6-.1.2-.2.4-.4.7-.1.2-.2.4-.3.7-.1.2-.2.4-.3.7-.1.2-.2.4-.3.7-.1.2-.2.4-.3.7-.1.2-.2.4-.3.7-.1.2-.2.4-.3.7-.1.2-.2.5-.3.7s-.2.5-.3.7-.2.5-.3.7-.2.5-.3.7-.2.5-.3.7-.2.5-.3.7-.2.5-.3.7-.2.5-.3.7-.2.5-.3.7-.2.5-.3.7-.2.5-.3.7-.2.5-.3.7-.2.5-.3.7-.2.5-.3.7-.2.5-.3.7-.2.5-.2.7c-.1.2-.2.5-.2.7-.1.2-.2.5-.2.7-.1.3-.2.5-.2.8-.1.3-.2.5-.2.8-.1.3-.2.5-.2.8-.1.3-.1.5-.2.8s-.1.5-.2.8-.1.5-.2.8c-7 26.6-2.9 55.9 13.8 80.2 26.8 39.1 77.5 52.5 119.6 34.2.2-.1.5-.2.7-.3s.5-.2.7-.3.5-.2.7-.3.5-.2.7-.3.5-.2.7-.3.5-.2.7-.4c.2-.1.5-.2.7-.4.2-.1.5-.2.7-.4.2-.1.5-.2.7-.4.2-.1.5-.2.7-.4.2-.1.5-.2.7-.4.2-.1.5-.3.7-.4s.5-.3.7-.4.5-.3.7-.4.4-.3.7-.4c.2-.1.4-.3.7-.4.2-.1.4-.3.7-.4.2-.1.4-.3.7-.4.2-.1.4-.3.6-.4s.4-.3.6-.4.4-.3.6-.4.4-.3.6-.4.4-.3.6-.4.4-.3.6-.4c.1 0 .1-.1.2-.1.1-.1.3-.2.4-.3.2-.1.4-.3.6-.4s.4-.3.6-.4.4-.3.6-.4.4-.3.6-.4.4-.3.6-.4.4-.3.6-.5.4-.3.6-.5.4-.3.6-.5.4-.3.6-.5.4-.3.6-.5.4-.3.6-.5.4-.3.6-.5.4-.3.6-.5.4-.3.6-.5.4-.3.6-.5.4-.3.6-.5.4-.3.5-.5c.2-.2.4-.3.5-.5.2-.2.4-.3.5-.5.2-.2.4-.3.5-.5.2-.2.4-.3.5-.5.2-.2.4-.3.5-.5.2-.2.3-.3.5-.5s.3-.3.5-.5.3-.3.5-.5.3-.3.5-.5.3-.3.5-.5.3-.4.5-.5c.2-.2.3-.4.5-.5s.3-.4.5-.5c.2-.2.3-.4.5-.5.2-.2.3-.4.5-.5.2-.2.3-.4.5-.5.2-.2.3-.4.5-.6s.3-.4.5-.6.3-.4.5-.6.3-.4.5-.6.3-.4.5-.6.3-.4.5-.6.3-.4.5-.6c.1-.2.3-.4.5-.6.1-.2.3-.4.4-.6s.3-.4.4-.6.3-.4.4-.6.3-.4.4-.6.3-.4.4-.6.3-.4.4-.6.3-.4.4-.6.3-.4.4-.6.3-.4.4-.6.3-.4.4-.6.3-.4.4-.6.3-.4.4-.6.3-.4.4-.6.3-.4.4-.6.3-.4.4-.6.3-.4.4-.6.3-.4.4-.6.2-.4.4-.6c.1-.2.2-.4.4-.6.1-.2.2-.4.4-.6.1-.2.2-.4.4-.7.1-.2.2-.4.4-.7.1-.2.2-.4.3-.7.1-.2.2-.4.3-.7.1-.2.2-.4.3-.7.1-.2.2-.4.3-.7.1-.2.2-.4.3-.7.1-.2.2-.5.3-.7s.2-.5.3-.7.2-.5.3-.7.2-.5.3-.7.2-.5.3-.7.2-.5.3-.7.2-.5.3-.7.2-.5.3-.7.2-.5.3-.7.2-.5.3-.7.2-.5.3-.7.2-.5.3-.7.2-.5.3-.7.2-.5.3-.7.2-.5.3-.7.2-.5.3-.7.2-.5.2-.7c.1-.2.2-.5.2-.7 0 0 0 0 0-.1l-.6-.8c0 .1-.1.2-.1.3-.1.3-.2.5-.2.7-.1.2-.2.5-.2.7-.1.2-.2.5-.3.7s-.2.5-.3.7-.2.5-.3.7-.2.5-.3.7-.2.5-.3.7-.2.5-.3.7-.2.5-.3.7-.2.5-.3.7-.2.5-.3.7-.2.5-.3.7-.2.5-.3.7-.2.5-.3.7-.2.5-.3.7-.2.5-.3.7-.2.5-.3.7-.2.5-.3.7-.2.4-.3.7c-.1.2-.2.5-.3.7s-.2.4-.3.7c-.1.2-.2.4-.3.7-.1.2-.2.4-.3.7-.1.2-.2.4-.4.7-.1.2-.2.4-.4.7-.1.2-.2.4-.4.6-.1.2-.2.4-.4.6-.1.2-.2.4-.4.6-.1.2-.3.4-.4.6s-.3.4-.4.6-.3.4-.4.6-.3.4-.4.6-.3.4-.4.6-.3.4-.4.6-.3.4-.4.6-.3.4-.4.6-.3.4-.4.6-.3.4-.4.6-.3.4-.4.6-.3.4-.4.6-.3.4-.4.6-.3.4-.4.6-.3.4-.4.6-.3.4-.4.6-.3.4-.4.6-.3.4-.4.6-.3.4-.4.6c-.2.2-.3.4-.5.6s-.3.4-.5.6-.3.4-.5.6-.3.4-.5.6-.3.4-.5.6-.3.4-.5.6-.3.4-.5.5c-.2.2-.3.4-.5.5-.2.2-.3.4-.5.5-.2.2-.3.4-.5.5-.2.2-.3.4-.5.5-.2.2-.3.4-.5.5-.2.2-.3.4-.5.5-.2.2-.3.4-.5.5-.2.2-.3.3-.5.5s-.3.3-.5.5-.3.3-.5.5-.4.3-.5.5c-.2.2-.4.3-.5.5-.2.2-.4.3-.5.5-.2.2-.4.3-.5.5-.2.2-.4.3-.5.5-.2.2-.4.3-.5.5-.2.2-.4.3-.6.5s-.4.3-.6.5-.4.3-.6.5-.4.3-.6.5-.4.3-.6.5-.4.3-.6.5-.4.3-.6.5-.4.3-.6.5-.4.3-.6.5-.4.3-.6.5-.4.3-.6.5c-.2.1-.4.3-.6.4s-.4.3-.6.4-.4.3-.6.4-.4.3-.6.4-.4.3-.6.4c-.1.1-.2.1-.2.2-.1.1-.3.2-.4.3-.2.1-.4.3-.6.4s-.4.3-.6.4-.4.3-.6.4-.4.3-.6.4-.4.3-.6.4-.4.3-.6.4-.4.3-.7.4c-.2.1-.4.3-.7.4-.2.1-.4.3-.7.4-.2.1-.4.3-.7.4-.2.1-.4.3-.7.4-.2.1-.4.3-.7.4-.2.1-.5.2-.7.4-.2.1-.5.2-.7.4-.2.1-.5.2-.7.4-.2.1-.5.2-.7.4-.2.1-.5.2-.7.4-.2.1-.5.2-.7.4-.2.1-.5.2-.7.3s-.5.2-.7.3-.5.2-.7.3-.5.2-.7.3-.5.2-.7.3-.5.2-.7.3c-41.8 17.9-91.7 4.6-118.3-34.1-16.5-24-20.6-52.9-13.7-79.2.1-.3.1-.5.2-.8s.1-.5.2-.8.1-.5.2-.8.2-.5.2-.8c.1-.3.2-.5.2-.8s.2-.5.2-.8c.1-.3.2-.5.2-.8.1-.2.2-.5.2-.7.1-.2.2-.5.2-.7.1-.2.2-.5.3-.7s.2-.5.3-.7.2-.5.3-.7.2-.5.3-.7.2-.5.3-.7.2-.5.3-.7.2-.5.3-.7.2-.5.3-.7.2-.5.3-.7.2-.5.3-.7.2-.5.3-.7.2-.5.3-.7.2-.5.3-.7.2-.5.3-.7.2-.5.3-.7.2-.5.3-.7.2-.4.3-.7.2-.4.3-.7c.1-.2.2-.4.3-.7.1-.2.2-.4.3-.7.1-.2.2-.4.3-.7.1-.2.2-.4.4-.7.1-.2.2-.4.4-.6.1-.2.2-.4.4-.6.1-.2.2-.4.4-.6.1-.2.3-.4.4-.6s.2-.4.4-.6c.1-.2.2-.4.4-.6.1-.2.3-.4.4-.6s.3-.4.4-.6.3-.4.4-.6.3-.4.4-.6.3-.4.4-.6.3-.4.4-.6.3-.4.4-.6.3-.4.4-.6.3-.4.4-.6.3-.4.4-.6.3-.4.4-.6.3-.4.4-.6.3-.4.4-.6.3-.4.4-.6.3-.4.4-.6.3-.4.4-.6.3-.4.5-.6.3-.4.5-.6.3-.4.5-.6.3-.4.5-.6.3-.4.5-.6.3-.4.5-.6.3-.4.5-.6.3-.4.5-.5c.2-.2.3-.4.5-.5s.3-.4.5-.5c.2-.2.3-.4.5-.5.2-.2.3-.4.5-.5.2-.2.3-.4.5-.5.2-.2.3-.4.5-.5.2-.2.3-.3.5-.5s.3-.3.5-.5.3-.3.5-.5.4-.3.5-.5c.2-.2.4-.3.5-.5.2-.2.3-.3.5-.5s.4-.3.5-.5c.2-.2.4-.3.5-.5.2-.2.4-.3.5-.5.2-.2.4-.3.5-.5.2-.2.4-.3.6-.5s.4-.3.6-.5.4-.3.6-.5.4-.3.6-.5.4-.3.6-.5.4-.3.6-.5.4-.3.6-.5.4-.3.6-.5.4-.3.6-.5.4-.3.6-.5c.2-.1.4-.3.6-.4s.4-.3.6-.4.4-.3.6-.4.4-.3.6-.4.4-.3.6-.4.4-.3.6-.4c0 0 .1-.1.1-.1.2-.1.3-.2.5-.3s.4-.3.6-.4.4-.3.6-.4.4-.3.6-.4.4-.3.6-.4.4-.3.6-.4.4-.3.6-.4.4-.3.7-.4c.2-.1.4-.3.7-.4.2-.1.4-.3.7-.4.2-.1.4-.3.7-.4.2-.1.4-.3.7-.4.2-.1.5-.3.7-.4s.5-.2.7-.4c.2-.1.5-.2.7-.4.2-.1.5-.2.7-.4.2-.1.5-.2.7-.4.2-.1.5-.2.7-.4.2-.1.5-.2.7-.3s.5-.2.7-.3.5-.2.7-.3.5-.2.7-.3.5-.2.7-.3.5-.2.7-.3.5-.2.7-.3.5-.2.7-.3c.3-.1.5-.2.8-.3s.5-.2.8-.3.5-.2.8-.3.5-.2.8-.3.5-.2.8-.3.5-.2.8-.3.5-.2.8-.3.5-.2.8-.3.5-.2.8-.3.5-.2.8-.3.5-.2.8-.3.5-.2.8-.3.6-.2.8-.2c.3-.1.6-.2.8-.2.3-.1.6-.2.8-.2.3-.1.6-.2.9-.2.3-.1.6-.1.9-.2s.6-.1.9-.2.6-.1.9-.2.6-.1.9-.2.6-.1.9-.2.6-.1.9-.2.6-.1.9-.2.6-.1.9-.2.6-.1.9-.2.6-.1.9-.2.6-.1.9-.1.6-.1 1-.1c.3 0 .6-.1 1-.1.3 0 .6-.1 1-.1.3 0 .7-.1 1-.1s.7-.1 1-.1.7-.1 1-.1.7-.1 1-.1.7-.1 1-.1.7 0 1-.1c.4 0 .7 0 1.1-.1h1.1 1.1 1.1 1.1 1.1 1.1 1.2 1.2c.4 0 .8 0 1.2.1.4 0 .8 0 1.2.1.4 0 .8.1 1.2.1s.8.1 1.2.1.8.1 1.3.1c.4 0 .9.1 1.3.1.4.1.9.1 1.3.2s.9.1 1.3.2c.5.1.9.1 1.4.2s.9.2 1.4.2c.5.1 1 .2 1.4.3.5.1 1 .2 1.5.3s1 .2 1.5.3 1 .2 1.5.4c.5.1 1.1.3 1.6.4s1.1.3 1.6.4c.6.2 1.1.3 1.7.5s1.2.4 1.7.5c.6.2 1.2.4 1.8.6s1.3.4 1.9.7c.7.2 1.3.5 2 .7.7.3 1.4.6 2.1.8.7.3 1.5.6 2.2 1 .8.4 1.6.7 2.4 1.1.6.3 1.2.6 1.8.9l.1-.2.3-.5c-.7-.3-1.4-.7-2-1-.8-.4-1.6-.8-2.4-1.1-.7-.3-1.5-.6-2.2-1-.7-.3-1.4-.6-2.1-.8-.7-.3-1.3-.5-2-.7-.6-.2-1.3-.4-1.9-.7-.6-.2-1.2-.4-1.8-.6s-1.2-.4-1.7-.5c-.6-.2-1.1-.3-1.7-.5-.5-.2-1.1-.3-1.6-.4s-1.1-.3-1.6-.4-1-.2-1.5-.4c-.5-.1-1-.2-1.5-.3s-1-.2-1.5-.3-1-.2-1.4-.3c-.5-.1-.9-.2-1.4-.2-.5-.1-.9-.1-1.4-.2-.4-.1-.9-.1-1.3-.2s-.9-.1-1.3-.2-.9-.1-1.3-.1-.8-.1-1.3-.1c-.4 0-.8-.1-1.2-.1s-.8-.1-1.2-.1-.8-.1-1.2-.1-.8 0-1.2-.1c-.4 0-.8 0-1.2 0-.7.1-1 .1-1.4.1z" fill="url(#i)"/><path d="m202.3 80.5c.3.4.6.6 1 .8s.9.3 1.4.2c.3 0 .6-.1.8-.3.1 0 .2-.1.3-.2s.2-.2.3-.3c.2-.2.3-.4.4-.6s.2-.5.3-.7c.1-.3.1-.6 0-1-.1-.3-.2-.6-.4-.9-.1-.2-.3-.3-.4-.5 0-.1.1-.1.1-.2.1-.2.3-.4.4-.6s.3-.4.4-.6.3-.4.4-.6.3-.4.4-.6.3-.4.4-.6.3-.4.4-.6.3-.4.4-.6.3-.4.4-.6.3-.4.4-.6.3-.4.4-.6.3-.4.4-.6.3-.4.4-.6.3-.4.4-.6.3-.4.4-.6.3-.4.5-.6c.1-.2.3-.4.5-.6s.3-.4.5-.6.3-.4.5-.6.3-.4.5-.6.3-.4.5-.6.3-.4.5-.6.3-.4.5-.6.3-.4.5-.5c.2-.2.3-.4.5-.5.2-.2.3-.4.5-.5.2-.2.3-.4.5-.5.2-.2.3-.4.5-.5.2-.2.3-.4.5-.5.2-.2.3-.4.5-.5.2-.2.3-.3.5-.5s.3-.3.5-.5.3-.3.5-.5.3-.4.5-.5c.2-.2.3-.3.5-.5s.3-.3.5-.5.3-.3.5-.5.3-.3.5-.5.4-.3.5-.5.4-.3.5-.5c.2-.2.4-.3.5-.5.2-.2.4-.3.5-.5.2-.2.4-.3.6-.5s.4-.3.6-.5.4-.3.6-.5.4-.3.6-.5.4-.3.6-.5.4-.3.6-.5.4-.3.6-.5.4-.3.6-.5.4-.3.6-.5.4-.3.6-.5.4-.3.6-.5.4-.3.6-.5.4-.3.6-.4.4-.3.6-.4.4-.3.6-.4.4-.3.6-.4.4-.3.6-.4.4-.3.6-.4.4-.3.6-.4c0 0 0 0 .1-.1.2-.1.4-.2.6-.4.2-.1.4-.3.6-.4s.4-.3.6-.4.4-.3.6-.4.4-.3.6-.4.4-.3.6-.4.4-.3.6-.4.4-.3.7-.4c.2-.1.4-.3.7-.4.2-.1.4-.3.7-.4.2-.1.4-.3.7-.4.2-.1.4-.3.7-.4.2-.1.4-.3.7-.4.2-.1.5-.3.7-.4s.5-.2.7-.4c.2-.1.5-.2.7-.4.2-.1.5-.2.7-.4.2-.1.5-.2.7-.4.2-.1.5-.2.7-.4.2-.1.5-.2.7-.4.2-.1.5-.2.7-.4.2-.1.5-.2.7-.3s.5-.2.7-.3.5-.2.7-.3.5-.2.7-.3.5-.2.7-.3.5-.2.7-.3.5-.2.7-.3c.3-.1.5-.2.8-.3s.5-.2.8-.3.5-.2.8-.3.5-.2.8-.3.5-.2.8-.3.5-.2.8-.3.5-.2.8-.3.5-.2.8-.3.5-.2.8-.3.5-.2.8-.3.5-.2.8-.3.5-.2.8-.3.5-.2.8-.3.5-.2.8-.3.6-.2.8-.2c.3-.1.6-.2.8-.2.3-.1.6-.2.8-.2.3-.1.6-.2.9-.2.3-.1.6-.2.9-.2.3-.1.6-.1.9-.2s.6-.1.9-.2.6-.1.9-.2.6-.1.9-.2.6-.1.9-.2.6-.1.9-.2.6-.1.9-.2.6-.1.9-.2h.2c0 .1.1.2.2.3.2.3.6.6.9.8.4.2.9.3 1.4.2.3 0 .6-.1.8-.3.1 0 .2-.1.3-.2s.2-.2.3-.3c.2-.2.3-.4.4-.6s.2-.5.3-.7c.1-.3.1-.6 0-1-.1-.3-.2-.6-.4-.9-.5-.7-1.2-1-1.9-1.1-.3 0-.6 0-1 .1-.2.1-.4.2-.6.3 0 0-.1.1-.1.1-.2.2-.4.3-.5.5s-.3.4-.3.7c-.1.3-.1.6-.1.9v.3c-.2 0-.5.1-.7.1-.3.1-.6.1-.9.2s-.6.1-.9.2-.6.1-.9.2-.6.1-.9.2-.6.1-.9.2-.6.1-.9.2-.6.1-.9.2-.6.1-.9.2-.6.2-.9.2c-.3.1-.6.2-.8.2-.3.1-.6.2-.8.2-.3.1-.6.2-.8.2-.3.1-.6.2-.8.2-.3.1-.5.2-.8.3s-.5.2-.8.3-.5.2-.8.3-.5.2-.8.3-.5.2-.8.3-.5.2-.8.3-.5.2-.8.3-.5.2-.8.3-.5.2-.8.3-.5.2-.8.3-.5.2-.8.3-.5.2-.8.3-.5.2-.8.3c-.2.1-.5.2-.7.3s-.5.2-.7.3-.5.2-.7.3-.5.2-.7.3-.5.2-.7.3-.5.2-.7.3-.5.2-.7.3-.5.2-.7.3-.5.2-.7.4c-.2.1-.5.2-.7.4-.2.1-.5.2-.7.4-.2.1-.5.2-.7.4-.2.1-.5.2-.7.4-.2.1-.5.2-.7.4-.2.1-.5.2-.7.4-.2.1-.5.3-.7.4s-.4.3-.7.4c-.2.1-.4.3-.7.4-.2.1-.4.3-.7.4-.2.1-.4.3-.7.4-.2.1-.4.3-.7.4-.2.1-.4.3-.6.4s-.4.3-.6.4-.4.3-.6.4-.4.3-.6.4-.4.3-.6.4-.4.3-.6.4-.4.3-.6.4c-.1.1-.3.2-.4.3s-.2.1-.2.2c-.2.1-.4.3-.6.4s-.4.3-.6.4-.4.3-.6.4-.4.3-.6.4-.4.3-.6.4-.4.3-.6.4-.4.3-.6.4c-.2.2-.4.3-.6.5s-.4.3-.6.5-.4.3-.6.5-.4.3-.6.5-.4.3-.6.5-.4.3-.6.5-.4.3-.6.5-.4.3-.6.5-.4.3-.6.5-.4.3-.6.5-.4.3-.6.5-.4.3-.6.5-.4.3-.5.5c-.2.2-.4.3-.5.5-.2.2-.4.3-.5.5-.2.2-.4.3-.5.5-.2.2-.3.3-.5.5s-.3.3-.5.5-.4.3-.5.5c-.2.2-.3.3-.5.5s-.3.3-.5.5-.3.3-.5.5-.3.3-.5.5-.3.4-.5.5c-.2.2-.3.4-.5.5-.2.2-.3.4-.5.5-.2.2-.3.4-.5.5-.2.2-.3.4-.5.5-.2.2-.3.4-.5.5-.2.2-.3.4-.5.5-.2.2-.3.4-.5.5-.2.2-.3.4-.5.6s-.3.4-.5.6-.3.4-.5.6-.3.4-.5.6-.3.4-.5.6-.3.4-.5.6-.3.4-.5.6c-.1.2-.3.4-.4.6s-.3.4-.4.6-.3.4-.4.6-.3.4-.4.6-.3.4-.4.6-.3.4-.4.6-.3.4-.4.6-.3.4-.4.6-.3.4-.4.6-.3.4-.4.6-.3.4-.4.6-.3.4-.4.6-.3.4-.4.6-.3.4-.4.6-.3.4-.4.6c-.1.1-.1.2-.2.3-.3-.1-.5-.2-.8-.2s-.6 0-1 .1c-.2.1-.4.2-.6.3s-.1.1-.1.1c-.2.2-.4.3-.5.5s-.3.4-.3.7c-.1.3-.1.6-.1.9-.3 1-.2 1.4.1 1.8zm76.8-54c.1-.2.2-.3.4-.4.1 0 .1-.1.2-.1.4-.2.8-.2 1.1 0 .2.1.4.2.5.4.2.3.3.7.2 1.1-.1.2-.2.4-.4.6 0 0-.1 0-.1.1s0 0 0 0c-.2.1-.5.2-.7.2-.4 0-.8-.2-1.1-.6-.1-.2-.2-.4-.2-.6-.1-.1-.1-.4.1-.7zm-75.9 52c.1-.2.2-.3.4-.4.1 0 .1-.1.2-.1.4-.2.8-.2 1.1 0 .2.1.3.2.5.4.2.3.3.7.2 1.1-.1.2-.2.4-.4.6 0 0-.1.1-.1.1-.2.1-.4.2-.7.2-.4 0-.8-.2-1.1-.6-.1-.2-.2-.4-.2-.6-.1-.2 0-.5.1-.7z" fill="url(#j)"/><path d="m199.3 98.9c.5.7 1.3 1.1 2.1 1.1.3 0 .6-.1.9-.2.1-.1.3-.1.4-.2.1-.1.1-.1.2-.2.2-.2.3-.3.5-.6.1-.2.2-.5.3-.7.1-.3.1-.6.1-.9 0-.4-.2-.8-.4-1.1s-.5-.6-.8-.7v-.1c.1-.2.2-.5.3-.7s.2-.5.3-.7.2-.5.3-.7.2-.5.3-.7.2-.5.3-.7.2-.5.3-.7.2-.5.3-.7.2-.5.3-.7.2-.4.3-.7c.1-.2.2-.4.3-.7.1-.2.2-.4.3-.7.1-.2.2-.4.3-.7.1-.2.2-.4.3-.7.1-.2.2-.4.4-.7.1-.2.2-.4.4-.7.1-.2.2-.4.4-.6.1-.2.2-.4.4-.6.1-.2.2-.4.4-.6.1-.2.3-.4.4-.6s.3-.4.4-.6.3-.4.4-.6.3-.4.4-.6.3-.4.4-.6.3-.4.4-.6.3-.4.4-.6.3-.4.4-.6.3-.4.4-.6.3-.4.4-.6.3-.4.4-.6.3-.4.4-.6.3-.4.4-.6.3-.4.4-.6.3-.4.4-.6.3-.4.4-.6.3-.4.4-.6.3-.4.4-.6.3-.4.4-.6.3-.4.4-.6c.2-.2.3-.4.5-.6s.3-.4.5-.6.3-.4.5-.6.3-.4.5-.6.3-.4.5-.6.3-.4.5-.6.3-.4.5-.5c.2-.2.3-.4.5-.5.2-.2.3-.4.5-.5.2-.2.3-.4.5-.5.2-.2.3-.4.5-.5.2-.2.3-.4.5-.5.2-.2.3-.4.5-.5.2-.2.3-.4.5-.5.2-.2.3-.3.5-.5s.3-.3.5-.5.3-.3.5-.5.3-.3.5-.5.3-.3.5-.5.4-.3.5-.5c.2-.2.4-.3.5-.5.2-.2.4-.3.5-.5.2-.2.4-.3.5-.5.2-.2.4-.3.5-.5.2-.2.4-.3.6-.5s.4-.3.6-.5.4-.3.6-.5.4-.3.6-.5.4-.3.6-.5.4-.3.6-.5.4-.3.6-.5.4-.3.6-.5.4-.3.6-.5.4-.3.6-.5.4-.3.6-.5.4-.3.6-.4.4-.3.6-.4.4-.3.6-.4.4-.3.6-.4.4-.3.6-.4.4-.3.6-.4.4-.3.6-.4c0 0 .1-.1.1-.1.2-.1.3-.2.5-.3s.4-.3.6-.4.4-.3.6-.4.4-.3.6-.4.4-.3.6-.4.4-.3.6-.4.4-.3.6-.4.4-.3.6-.4.4-.3.7-.4c.2-.1.4-.3.7-.4.2-.1.4-.3.7-.4.2-.1.4-.3.7-.4.2-.1.4-.3.7-.4.2-.1.5-.2.7-.4.2-.1.5-.2.7-.4.2-.1.5-.2.7-.4.2-.1.5-.2.7-.4s.5-.2.7-.4c.2-.1.5-.2.7-.4.2-.1.5-.2.7-.3s.5-.2.7-.3.5-.2.7-.3.5-.2.7-.3.5-.2.7-.3.5-.2.7-.3.5-.2.7-.3.5-.2.7-.3.5-.2.7-.3c.3-.1.5-.2.8-.3s.5-.2.8-.3.5-.2.8-.3.5-.2.8-.3.5-.2.8-.3.5-.2.8-.3.5-.2.8-.3.5-.2.8-.3.5-.2.8-.3.5-.2.8-.3.5-.2.8-.3.5-.2.8-.3.6-.2.8-.2c.3-.1.6-.2.8-.2.3-.1.6-.2.8-.2.3-.1.6-.2.8-.2.3-.1.6-.1.9-.2s.6-.1.9-.2.6-.1.9-.2.6-.1.9-.2.6-.1.9-.2.6-.1.9-.2.6-.1.9-.2.6-.1.9-.2.6-.1.9-.2.6-.1.9-.2.6-.1.9-.2.6-.1.9-.2c.3 0 .6-.1 1-.1.3 0 .6-.1 1-.1.3 0 .6-.1 1-.1.3 0 .7-.1 1-.1s.7-.1 1-.1.7-.1 1-.1.7-.1 1-.1.7-.1 1-.1.7 0 1-.1c.3 0 .7 0 1-.1.4 0 .7 0 1.1-.1h1.1 1.1 1.1.2c0 .1.1.2.1.3 0 0 .1.1.1.1.3.4.7.7 1.1.9s.9.2 1.3.1c.3 0 .6-.1.8-.3.1 0 .2-.1.2-.1.1-.1.3-.2.4-.3.2-.2.3-.4.4-.6s.2-.5.2-.7c.1-.3 0-.7 0-1-.1-.3-.2-.6-.4-.8-.4-.6-1.1-1-1.8-1.1-.3 0-.7 0-1 .1-.2.1-.4.2-.6.3s0 0-.1 0c-.2.1-.4.3-.5.5-.2.2-.3.4-.4.7s-.1.6-.1.8v.2c-.3 0-.6 0-.9 0-.4 0-.7 0-1.1 0s-.7 0-1.1 0-.7 0-1.1.1c-.4 0-.7 0-1.1.1-.3 0-.7 0-1 .1-.3 0-.7 0-1 .1-.3 0-.7.1-1 .1s-.7.1-1 .1-.7.1-1 .1-.7.1-1 .1-.6.1-1 .1c-.3 0-.6.1-1 .1-.3 0-.6.1-1 .1-.3 0-.6.1-.9.1-.3.1-.6.1-.9.2s-.6.1-.9.2-.6.1-.9.2-.6.1-.9.2-.6.1-.9.2-.6.1-.9.2-.6.1-.9.2-.6.1-.9.2-.6.1-.9.2-.6.1-.9.2-.6.1-.9.2-.6.1-.9.2-.6.2-.8.2c-.3.1-.6.2-.8.2-.3.1-.6.2-.8.2-.3.1-.6.2-.8.2-.3.1-.5.2-.8.3s-.5.2-.8.3-.5.2-.8.3-.5.2-.8.3-.5.2-.8.3-.5.2-.8.3-.5.2-.8.3-.5.2-.8.3-.5.2-.8.3-.5.2-.8.3-.5.2-.8.3-.5.2-.8.3c-.2.1-.5.2-.7.3s-.5.2-.7.3-.5.2-.7.3-.5.2-.7.3-.5.2-.7.3-.5.2-.7.3-.5.2-.7.3-.5.2-.7.4c-.2.1-.5.2-.7.4-.2.1-.5.2-.7.4-.2.1-.5.2-.7.4-.2.1-.5.2-.7.4-.2.1-.5.2-.7.4-.2.1-.5.2-.7.4-.2.1-.5.3-.7.4s-.4.3-.7.4c-.2.1-.4.3-.7.4-.2.1-.4.3-.7.4-.2.1-.4.3-.7.4-.2.1-.4.3-.7.4-.2.1-.4.3-.6.4s-.4.3-.6.4-.4.3-.6.4-.4.3-.6.4-.4.3-.6.4-.4.3-.6.4-.4.3-.6.4c-.1.1-.2.1-.3.2s-.2.1-.3.2c-.2.1-.4.3-.6.4s-.4.3-.6.4-.4.3-.6.4-.4.3-.6.4-.4.3-.6.4-.4.3-.6.4-.4.3-.6.4c-.2.2-.4.3-.6.5s-.4.3-.6.5-.4.3-.6.5-.4.3-.6.5-.4.3-.6.5-.4.3-.6.5-.4.3-.6.5-.4.3-.6.5-.4.3-.6.5-.4.3-.6.5-.4.3-.5.5c-.2.2-.4.3-.5.5-.2.2-.4.3-.5.5-.2.2-.4.3-.5.5-.2.2-.4.3-.5.5-.2.2-.4.3-.5.5-.2.2-.3.3-.5.5s-.3.3-.5.5-.3.3-.5.5-.3.3-.5.5-.3.3-.5.5-.3.4-.5.5c-.2.2-.3.4-.5.5-.2.2-.3.4-.5.5-.2.2-.3.4-.5.5-.2.2-.3.4-.5.5-.2.2-.3.4-.5.5-.2.2-.3.4-.5.5-.2.2-.3.4-.5.5-.2.2-.3.4-.5.6s-.3.4-.5.6-.3.4-.5.6-.3.4-.5.6-.3.4-.5.6-.3.4-.5.6-.3.4-.4.6-.3.4-.4.6-.3.4-.4.6-.3.4-.4.6-.3.4-.4.6-.3.4-.4.6-.3.4-.4.6-.3.4-.4.6-.3.4-.4.6-.3.4-.4.6-.3.4-.4.6-.3.4-.4.6-.3.4-.4.6-.3.4-.4.6-.3.4-.4.6-.3.4-.4.6-.3.4-.4.6-.3.4-.4.6-.3.4-.4.6-.3.4-.4.6-.2.4-.4.6c-.1.2-.2.4-.4.6-.1.2-.2.4-.4.7-.1.2-.2.4-.4.7-.1.2-.2.4-.4.7-.1.2-.2.4-.3.7-.1.2-.2.4-.3.7-.1.2-.2.4-.3.7-.1.2-.2.4-.3.7-.1.2-.2.4-.3.7-.1.2-.2.5-.3.7s-.2.5-.3.7-.2.5-.3.7-.2.5-.3.7-.2.5-.3.7-.2.5-.3.7-.2.5-.3.7-.2.5-.3.7c-.1.1-.1.2-.2.4-.2 0-.4-.1-.6 0-.3 0-.6.1-.9.2-.1.1-.3.1-.4.2-.1.1-.2.1-.2.2-.2.2-.3.3-.5.6-.1.2-.2.5-.3.7-.1.3-.1.6-.1.9.4.2.5.6.7.9zm98.3-68c0-.3.1-.6.2-.8.1-.1.2-.3.3-.4.1 0 .1-.1.2-.1.6-.2 1.2-.1 1.6.5.2.3.3.7.2 1-.1.2-.2.5-.4.6 0 0-.1.1-.1.1-.2.1-.4.2-.6.2-.4 0-.9-.2-1.2-.5-.1-.1-.2-.4-.2-.6zm-97.4 66.1c.1-.2.2-.4.4-.5s0 0 0 0c.3-.2.6-.2.9-.2.3.1.7.2.9.5.1.1.1.2.2.3.1.3.1.6-.1.9-.1.2-.2.4-.4.5-.3.2-.6.2-.9.2-.3-.1-.6-.2-.9-.5-.1-.1-.1-.2-.2-.3 0-.3 0-.6.1-.9z" fill="url(#k)"/><path d="m331.9 39.1c.5.7 1.3 1.1 2.1 1.1.3 0 .6-.1.9-.2.1-.1.3-.1.4-.2s.1-.1.2-.2.3-.3.4-.4c.2.1.3.1.5.2.7.3 1.5.6 2.2.9.8.3 1.6.7 2.3 1 .8.4 1.7.8 2.5 1.2.4.2.9.4 1.3.6l.2-.3.2-.4c-.5-.3-1-.5-1.5-.7-.8-.4-1.7-.8-2.5-1.2s-1.5-.7-2.3-1c-.7-.3-1.4-.6-2.2-.9-.1 0-.2-.1-.3-.1v-.1c.1-.3.1-.6.1-.9 0-.4-.2-.8-.4-1.1-.5-.7-1.3-1.1-2.1-1.1-.3 0-.6.1-.9.2-.1.1-.3.1-.4.2s-.2.1-.2.2c-.2.2-.3.4-.5.6-.1.2-.2.5-.3.7-.1.3-.1.6-.1.9.1.2.2.6.4 1zm.9-1c-.1-.3-.1-.6 0-.9.1-.2.2-.4.4-.5s0 0 0 0c.3-.2.6-.2.9-.2.3.1.7.2.9.5.1.1.1.2.2.3.1.3.1.6-.1.9-.1.2-.2.4-.4.5-.3.2-.6.2-.9.2-.3-.1-.6-.2-.8-.5-.2-.1-.2-.2-.2-.3z" fill="url(#l)"/><path d="m406.7 112c-.1-.3-.2-.5-.3-.7-.4-.6-1.1-1-1.7-1.1-.2 0-.4 0-.7 0-.1-.2-.1-.5-.2-.7-.1-.4-.2-.8-.3-1.2s-.2-.8-.3-1.2-.2-.8-.3-1.2-.2-.8-.3-1.3c-.1-.4-.2-.8-.4-1.3-.1-.4-.3-.9-.4-1.3s-.3-.9-.4-1.3-.3-.9-.4-1.3c-.2-.5-.3-.9-.5-1.4s-.3-.9-.5-1.4-.4-.9-.5-1.4c-.2-.5-.4-1-.6-1.4-.2-.5-.4-1-.6-1.5s-.4-1-.6-1.5-.5-1-.7-1.6c-.2-.5-.5-1.1-.7-1.6-.3-.5-.5-1.1-.8-1.6-.3-.6-.6-1.1-.9-1.7s-.6-1.2-.9-1.8c-.1-.2-.2-.4-.3-.6v.3l-.1.8v.2c.2.4.5.9.7 1.3.3.6.6 1.1.9 1.7.3.5.5 1.1.8 1.6s.5 1.1.7 1.6.5 1 .7 1.5.4 1 .6 1.5.4 1 .6 1.5.4 1 .6 1.4c.2.5.4.9.5 1.4.2.5.3.9.5 1.4s.3.9.5 1.4c.1.4.3.9.4 1.3s.3.9.4 1.3.3.9.4 1.3.2.8.4 1.3c.1.4.2.8.3 1.3.1.4.2.8.3 1.2s.2.8.3 1.2.2.8.3 1.2c0 .2.1.4.1.6-.1.1-.2.1-.3.2-.2.1-.4.3-.5.5-.2.2-.3.4-.4.6-.1.3-.2.5-.2.8 0 .4.1.8.3 1.2 0 .1.1.2.2.3.3.5.8.8 1.2.9s.8.2 1.2.1c.3 0 .5-.1.8-.3.1 0 .1-.1.2-.1.1-.1.3-.2.4-.3.2-.2.3-.4.4-.6s.2-.5.2-.8c0 0 0-.4-.1-.7zm-1.3 0c.2.3.3.7.2 1-.1.2-.2.5-.4.6-.1 0-.1.1-.2.1-.2.1-.4.2-.5.2-.5.1-1-.1-1.2-.5-.1-.2-.2-.5-.2-.7 0-.3.1-.5.2-.8.1-.1.2-.2.3-.3s.2-.1.3-.1c.5-.2 1.1 0 1.5.5z" fill="url(#m)"/><path d="m392.9 188.7c-.5-.7-1.2-1.1-2-1.1-.3 0-.6.1-.9.2-.2.1-.3.2-.5.3-.1 0-.1.1-.2.1-.2.2-.4.3-.5.5s-.3.4-.3.7c-.1.3-.1.6-.1.9 0 .4.2.9.4 1.2.1.1.2.2.2.3 0 0 0 0 .1.1-.1.2-.3.4-.4.6s-.3.4-.4.6-.3.4-.4.6-.3.4-.4.6-.3.4-.4.6-.3.4-.4.6-.3.4-.4.6-.3.4-.4.6-.3.4-.4.6-.3.4-.4.6-.3.4-.4.6-.3.4-.4.6-.3.4-.4.6-.3.4-.4.6-.3.4-.4.6-.3.4-.4.6c-.2.2-.3.4-.4.6-.2.2-.3.4-.5.6s-.3.4-.5.6-.3.4-.5.6-.3.4-.5.6-.3.4-.5.6-.3.4-.5.5c-.2.2-.3.4-.5.5-.2.2-.3.4-.5.5-.2.2-.3.4-.5.5-.2.2-.3.4-.5.5-.2.2-.3.4-.5.5-.2.2-.3.4-.5.5-.2.2-.3.3-.5.5s-.3.3-.5.5-.3.4-.5.5-.3.4-.5.5c-.2.2-.3.3-.5.5s-.3.3-.5.5-.3.3-.5.5-.3.3-.5.5-.4.3-.5.5c-.2.2-.4.3-.5.5-.2.2-.4.3-.5.5-.2.2-.4.3-.5.5-.2.2-.4.3-.6.5s-.4.3-.6.5-.4.3-.6.5-.4.3-.6.5-.4.3-.6.5-.4.3-.6.5-.4.3-.6.5-.4.3-.6.5-.4.3-.6.5-.4.3-.6.5-.4.3-.6.5-.4.3-.6.5-.4.3-.6.4-.4.3-.6.4-.4.3-.6.4-.4.3-.6.4-.4.3-.6.4-.4.3-.6.4-.4.3-.6.4c-.1 0-.1.1-.2.1-.1.1-.3.2-.4.3-.2.1-.4.3-.6.4s-.4.3-.6.4-.4.3-.6.4-.4.3-.6.4-.4.3-.6.4-.4.3-.6.4-.4.3-.6.4-.4.3-.7.4c-.2.1-.4.3-.7.4-.2.1-.4.3-.7.4-.2.1-.4.3-.7.4-.2.1-.4.3-.7.4-.2.1-.5.3-.7.4s-.5.3-.7.4-.5.2-.7.4c-.2.1-.5.2-.7.4-.2.1-.5.2-.7.4-.2.1-.5.2-.7.4-.2.1-.5.2-.7.4-.2.1-.5.2-.7.4-8.5 4.2-17.4 7.1-26.4 8.9-.8-1.1-2.3-1.4-3.4-.6-1.1.8-1.4 2.3-.6 3.4s2.3 1.4 3.4.6c.9-.6 1.2-1.7 1-2.7 9.1-1.8 18.1-4.8 26.8-9.1.2-.1.5-.2.7-.4.2-.1.5-.2.7-.4.2-.1.5-.2.7-.4.2-.1.5-.2.7-.4.2-.1.5-.2.7-.4.2-.1.5-.2.7-.4.2-.1.5-.2.7-.4.2-.1.4-.3.7-.4.2-.1.4-.3.7-.4.2-.1.4-.3.7-.4.2-.1.4-.3.7-.4.2-.1.4-.3.7-.4.2-.1.4-.3.7-.4.2-.1.4-.3.6-.4s.4-.3.6-.4.4-.3.6-.4.4-.3.6-.4.4-.3.6-.4.4-.3.6-.4.4-.3.6-.4c.1-.1.2-.1.2-.2.1-.1.2-.2.4-.3s.4-.3.6-.4.4-.3.6-.4.4-.3.6-.4.4-.3.6-.4.4-.3.6-.4.4-.3.6-.4.4-.3.6-.4c.2-.2.4-.3.6-.5s.4-.3.6-.5.4-.3.6-.5.4-.3.6-.5.4-.3.6-.5.4-.3.6-.5.4-.3.6-.5.4-.3.6-.5.4-.3.6-.5.4-.3.6-.5.4-.3.6-.5.4-.3.6-.5.4-.3.5-.5c.2-.2.4-.3.5-.5.2-.2.4-.3.5-.5.2-.2.4-.3.5-.5l.5-.5.5-.5s.4-.3.5-.5l.5-.5.5-.5s.3-.3.5-.5l.5-.5c.2-.2.3-.4.5-.5.2-.2.3-.4.5-.5.2-.2.3-.4.5-.5.2-.2.3-.4.5-.5.2-.2.3-.4.5-.5.2-.2.3-.4.5-.5.2-.2.3-.4.5-.5.2-.2.3-.4.5-.5.2-.2.3-.4.5-.6s.3-.4.5-.6.3-.4.5-.6.3-.4.5-.6.3-.4.5-.6.3-.4.5-.6.3-.4.5-.6c.1-.2.3-.4.5-.6.1-.2.3-.4.4-.6s.3-.4.4-.6.3-.4.4-.6.3-.4.4-.6.3-.4.4-.6.3-.4.4-.6.3-.4.4-.6.3-.4.4-.6.3-.4.4-.6.3-.4.4-.6.3-.4.4-.6.3-.4.4-.6.3-.4.4-.6.3-.4.4-.6c0 0 0 0 0-.1.4.2.9.3 1.3.2.3 0 .6-.1.8-.2.1-.1.2-.1.3-.2.1-.1.2-.1.3-.2.2-.2.3-.4.5-.6.1-.2.2-.5.3-.7.1-.3.1-.6 0-.9-.5-.3-.6-.6-.8-.9zm-75.8 54.3c-.6.4-1.4.3-1.8-.3s-.3-1.4.3-1.8c.6-.4 1.4-.3 1.8.3s.3 1.4-.3 1.8zm74.9-53.5c.2.3.2.7.1 1-.1.2-.2.4-.4.6-.2.2-.5.2-.8.2-.4 0-.8-.2-1-.6-.1-.1-.2-.3-.2-.5-.1-.3 0-.6.1-.8s.2-.3.4-.5.1 0 .1-.1c.3-.2.7-.2 1-.1.3.1.5.2.7.5-.1.2 0 .3 0 .3z" fill="url(#n)"/><path d="m403.2 129.6c-.4-.6-1.1-1-1.9-1.1-.1 0-.2 0-.2 0 0-.1 0-.1 0-.2 0-.3 0-.7-.1-1 0-.3 0-.7-.1-1 0-.3-.1-.7-.1-1s-.1-.7-.1-1c0-.4-.1-.7-.1-1.1s-.1-.7-.1-1.1-.1-.7-.1-1.1-.1-.7-.1-1.1c-.1-.4-.1-.7-.2-1.1s-.1-.7-.2-1.1-.1-.7-.2-1.1-.1-.8-.2-1.1c-.1-.4-.1-.8-.2-1.1-.1-.4-.2-.8-.2-1.2-.1-.4-.2-.8-.2-1.2-.1-.4-.2-.8-.3-1.2s-.2-.8-.3-1.2-.2-.8-.3-1.2-.2-.8-.3-1.2-.2-.8-.4-1.3c-.1-.4-.2-.9-.4-1.3-.1-.4-.3-.9-.4-1.3s-.3-.9-.4-1.3-.3-.9-.4-1.3c-.2-.5-.3-.9-.5-1.4s-.3-.9-.5-1.4-.4-1-.6-1.4c-.2-.5-.4-1-.6-1.5s-.4-1-.6-1.5-.5-1-.7-1.5c-.1-.3-.2-.6-.4-.8l-.1.4-.1.8v.1c.2.4.4.8.5 1.3.2.5.4 1 .6 1.5s.4 1 .6 1.5.4.9.5 1.4c.2.5.3.9.5 1.4s.3.9.5 1.4c.2.4.3.9.4 1.3s.3.9.4 1.3.3.9.4 1.3.3.9.4 1.3.2.8.3 1.2.2.8.3 1.2.2.8.3 1.2.2.8.3 1.2.2.8.3 1.2.2.8.3 1.2.1.8.2 1.2.1.8.2 1.1c.1.4.1.7.2 1.1s.1.7.2 1.1.1.7.2 1.1.1.7.2 1.1c0 .4.1.7.1 1.1s.1.7.1 1.1.1.7.1 1.1c0 .3.1.7.1 1s.1.7.1 1 .1.7.1 1 .1.7.1 1 0 .7.1 1v.1c-.2.1-.4.2-.5.3s-.1 0-.1.1c-.2.2-.4.3-.5.5s-.3.4-.3.7c-.1.3-.1.6-.1.8 0 .5.1.9.4 1.3.3.4.6.7 1 .9s.9.3 1.4.2c.3 0 .6-.1.8-.3.1 0 .2-.1.3-.2s.2-.2.3-.3c.2-.2.3-.4.4-.6s.2-.5.3-.7c.1-.3.1-.7 0-1-.1-.1-.2-.4-.4-.6zm-1.1.5c0 .1.1.1 0 0 .3.4.3.8.2 1.2-.1.2-.2.5-.4.6 0 0-.1.1-.1.1s0 0 0 0c-.2.1-.4.2-.7.2-.4 0-.9-.2-1.1-.6-.1-.2-.2-.4-.2-.6 0-.3 0-.6.2-.8.1-.1.2-.3.4-.4.1 0 .1-.1.2-.1.4-.2.8-.2 1.2.1.1.1.2.2.3.3z" fill="url(#o)"/><path d="m178.2 130.9c11-24.4-13.7-43.4-13.7-43.4s.2 43.7-13.1 60.4c-13.3 16.8-31.9 15.1-58.3 46.4 0 0 14.1 8 25.7 3.4 20.4-8.1 27.6-20.8 42.5-31.5 11.6-8.2 29 .5 29 .5l-3.4-14.6c.2.1-16.5-3.9-8.7-21.2z" fill="url(#p)"/></svg>