<svg enable-background="new 0 0 3898 4500" viewBox="0 0 3898 4500" xmlns="http://www.w3.org/2000/svg"><g fill="#fff"><path d="m.4 3375v-2250l1948.6-1125 1948.6 1125v2250l-1948.6 1125zm1948.6 643.2 1531.3-884.1v-1768.2l-1531.3-884.1-1531.3 884.1v1768.2z"/><path d="m1032.9 2661.3v-143.5l201.8-204.1c39.8-41.3 72.3-76 96.3-103 23.3-26.2 40-49.4 49.6-69.1 9.4-19.1 14.1-39.7 14.1-61.3 0-24.7-6.9-42.4-21-54-14.6-11.9-34-17.9-57.7-17.9-26 0-52.4 6.8-78.5 20.2-27 13.8-56.6 34.2-88 60.6l-7.7 6.4-117.4-137.6 7.3-6.6c23.4-21.1 48.7-41.2 75.1-59.8 26.9-18.8 59-34.4 95.4-46.3s80.8-17.9 131.8-17.9c55.2 0 103.4 10 143.3 29.7 40 19.8 71.6 47.1 93.9 81 22.3 34.1 33.7 73.6 33.7 117.3 0 47-9 89.8-26.8 127.4-17.6 37.1-43.9 74.6-78.1 111.5-33.7 36.3-75.5 77.2-124.2 121.4l-71.4 65.6h319.6v179.8h-591.1z"/><path d="m1911.6 2672.5c-91.8 0-167.9-15.1-226-44.9l-5.5-2.8v-183.4l14.7 7.6c26.9 13.8 60 25.8 98.5 35.7 38.3 9.9 74.3 14.8 107 14.8 43.2 0 76.4-8.9 98.8-26.5 22-17.2 32.7-43.1 32.7-79.1 0-32.2-10.7-56.3-32.7-73.5-22.4-17.6-57.9-26.5-105.6-26.5-19.4 0-39.6 2-59.9 6-20.7 4.1-38.7 8-53.4 11.7l-3.7.9-82.4-41.8 31.5-431.8h464.5v180.9h-281.8l-10.3 111.2c8.1-1.5 16.7-3.1 25.6-4.8 14.5-2.7 35.3-4.1 62-4.1 48.6 0 92.9 10.2 131.6 30.4 39 20.3 70.2 50.3 92.8 89.3 22.5 38.9 34 86.3 34 141 0 90.9-28.1 162.8-83.6 213.6-55 50.4-138.8 76.1-248.8 76.1z"/><path d="m2355.7 2661.3 288.7-642.8h-367.5v-179.8h596.6v129.1l-296.7 693.5z"/></g></svg>